<?xml version="1.0" encoding="utf-8" standalone="no"?>
<!DOCTYPE svg PUBLIC "-//W3C//DTD SVG 1.1//EN"
  "http://www.w3.org/Graphics/SVG/1.1/DTD/svg11.dtd">
<svg xmlns:xlink="http://www.w3.org/1999/xlink" width="405.309585pt" height="242.695353pt" viewBox="0 0 405.309585 242.695353" xmlns="http://www.w3.org/2000/svg" version="1.1">
 <metadata>
  <rdf:RDF xmlns:dc="http://purl.org/dc/elements/1.1/" xmlns:cc="http://creativecommons.org/ns#" xmlns:rdf="http://www.w3.org/1999/02/22-rdf-syntax-ns#">
   <cc:Work>
    <dc:type rdf:resource="http://purl.org/dc/dcmitype/StillImage"/>
    <dc:date>2024-01-24T20:39:00.831052</dc:date>
    <dc:format>image/svg+xml</dc:format>
    <dc:creator>
     <cc:Agent>
      <dc:title>Matplotlib v3.8.2, https://matplotlib.org/</dc:title>
     </cc:Agent>
    </dc:creator>
   </cc:Work>
  </rdf:RDF>
 </metadata>
 <defs>
  <style type="text/css">*{stroke-linejoin: round; stroke-linecap: butt}</style>
 </defs>
 <g id="figure_1">
  <g id="patch_1">
   <path d="M 0 242.695353 
L 405.309585 242.695353 
L 405.309585 0 
L 0 0 
z
" style="fill: #ffffff"/>
  </g>
  <g id="axes_1">
   <g id="patch_2">
    <path d="M 40.989585 206.784 
L 398.109585 206.784 
L 398.109585 7.2 
L 40.989585 7.2 
z
" style="fill: #ffffff"/>
   </g>
   <g id="patch_3">
    <path d="M 57.222312 55085.827295 
L 60.468858 55085.827295 
L 60.468858 55085.827295 
L 57.222312 55085.827295 
z
" clip-path="url(#pf952d58d06)" style="fill: #3274a1"/>
   </g>
   <g id="patch_4">
    <path d="M 60.468858 55085.827295 
L 63.715403 55085.827295 
L 63.715403 55085.827295 
L 60.468858 55085.827295 
z
" clip-path="url(#pf952d58d06)" style="fill: #3274a1"/>
   </g>
   <g id="patch_5">
    <path d="M 63.715403 55085.827295 
L 66.961948 55085.827295 
L 66.961948 55085.827295 
L 63.715403 55085.827295 
z
" clip-path="url(#pf952d58d06)" style="fill: #3274a1"/>
   </g>
   <g id="patch_6">
    <path d="M 66.961948 55085.827295 
L 70.208494 55085.827295 
L 70.208494 55085.827295 
L 66.961948 55085.827295 
z
" clip-path="url(#pf952d58d06)" style="fill: #3274a1"/>
   </g>
   <g id="patch_7">
    <path d="M 70.208494 55085.827295 
L 73.455039 55085.827295 
L 73.455039 55085.827295 
L 70.208494 55085.827295 
z
" clip-path="url(#pf952d58d06)" style="fill: #3274a1"/>
   </g>
   <g id="patch_8">
    <path d="M 73.455039 55085.827295 
L 76.701585 55085.827295 
L 76.701585 55085.827295 
L 73.455039 55085.827295 
z
" clip-path="url(#pf952d58d06)" style="fill: #3274a1"/>
   </g>
   <g id="patch_9">
    <path d="M 76.701585 55085.827295 
L 79.94813 55085.827295 
L 79.94813 55085.827295 
L 76.701585 55085.827295 
z
" clip-path="url(#pf952d58d06)" style="fill: #3274a1"/>
   </g>
   <g id="patch_10">
    <path d="M 79.94813 55085.827295 
L 83.194676 55085.827295 
L 83.194676 55085.827295 
L 79.94813 55085.827295 
z
" clip-path="url(#pf952d58d06)" style="fill: #3274a1"/>
   </g>
   <g id="patch_11">
    <path d="M 83.194676 55085.827295 
L 86.441221 55085.827295 
L 86.441221 55085.827295 
L 83.194676 55085.827295 
z
" clip-path="url(#pf952d58d06)" style="fill: #3274a1"/>
   </g>
   <g id="patch_12">
    <path d="M 86.441221 55085.827295 
L 89.687767 55085.827295 
L 89.687767 55085.827295 
L 86.441221 55085.827295 
z
" clip-path="url(#pf952d58d06)" style="fill: #3274a1"/>
   </g>
   <g id="patch_13">
    <path d="M 89.687767 55085.827295 
L 92.934312 55085.827295 
L 92.934312 181.238452 
L 89.687767 181.238452 
z
" clip-path="url(#pf952d58d06)" style="fill: #3274a1"/>
   </g>
   <g id="patch_14">
    <path d="M 92.934312 55085.827295 
L 96.180858 55085.827295 
L 96.180858 55085.827295 
L 92.934312 55085.827295 
z
" clip-path="url(#pf952d58d06)" style="fill: #3274a1"/>
   </g>
   <g id="patch_15">
    <path d="M 96.180858 55085.827295 
L 99.427403 55085.827295 
L 99.427403 197.712 
L 96.180858 197.712 
z
" clip-path="url(#pf952d58d06)" style="fill: #3274a1"/>
   </g>
   <g id="patch_16">
    <path d="M 99.427403 55085.827295 
L 102.673948 55085.827295 
L 102.673948 164.764903 
L 99.427403 164.764903 
z
" clip-path="url(#pf952d58d06)" style="fill: #3274a1"/>
   </g>
   <g id="patch_17">
    <path d="M 102.673948 55085.827295 
L 105.920494 55085.827295 
L 105.920494 55085.827295 
L 102.673948 55085.827295 
z
" clip-path="url(#pf952d58d06)" style="fill: #3274a1"/>
   </g>
   <g id="patch_18">
    <path d="M 105.920494 55085.827295 
L 109.167039 55085.827295 
L 109.167039 159.461605 
L 105.920494 159.461605 
z
" clip-path="url(#pf952d58d06)" style="fill: #3274a1"/>
   </g>
   <g id="patch_19">
    <path d="M 109.167039 55085.827295 
L 112.413585 55085.827295 
L 112.413585 120.279079 
L 109.167039 120.279079 
z
" clip-path="url(#pf952d58d06)" style="fill: #3274a1"/>
   </g>
   <g id="patch_20">
    <path d="M 112.413585 55085.827295 
L 115.66013 55085.827295 
L 115.66013 100.404552 
L 112.413585 100.404552 
z
" clip-path="url(#pf952d58d06)" style="fill: #3274a1"/>
   </g>
   <g id="patch_21">
    <path d="M 115.66013 55085.827295 
L 118.906676 55085.827295 
L 118.906676 86.215988 
L 115.66013 86.215988 
z
" clip-path="url(#pf952d58d06)" style="fill: #3274a1"/>
   </g>
   <g id="patch_22">
    <path d="M 118.906676 55085.827295 
L 122.153221 55085.827295 
L 122.153221 55085.827295 
L 118.906676 55085.827295 
z
" clip-path="url(#pf952d58d06)" style="fill: #3274a1"/>
   </g>
   <g id="patch_23">
    <path d="M 122.153221 55085.827295 
L 125.399767 55085.827295 
L 125.399767 73.515302 
L 122.153221 73.515302 
z
" clip-path="url(#pf952d58d06)" style="fill: #3274a1"/>
   </g>
   <g id="patch_24">
    <path d="M 125.399767 55085.827295 
L 128.646312 55085.827295 
L 128.646312 66.870602 
L 125.399767 66.870602 
z
" clip-path="url(#pf952d58d06)" style="fill: #3274a1"/>
   </g>
   <g id="patch_25">
    <path d="M 128.646312 55085.827295 
L 131.892858 55085.827295 
L 131.892858 54.327823 
L 128.646312 54.327823 
z
" clip-path="url(#pf952d58d06)" style="fill: #3274a1"/>
   </g>
   <g id="patch_26">
    <path d="M 131.892858 55085.827295 
L 135.139403 55085.827295 
L 135.139403 45.287768 
L 131.892858 45.287768 
z
" clip-path="url(#pf952d58d06)" style="fill: #3274a1"/>
   </g>
   <g id="patch_27">
    <path d="M 135.139403 55085.827295 
L 138.385948 55085.827295 
L 138.385948 55085.827295 
L 135.139403 55085.827295 
z
" clip-path="url(#pf952d58d06)" style="fill: #3274a1"/>
   </g>
   <g id="patch_28">
    <path d="M 138.385948 55085.827295 
L 141.632494 55085.827295 
L 141.632494 41.347498 
L 138.385948 41.347498 
z
" clip-path="url(#pf952d58d06)" style="fill: #3274a1"/>
   </g>
   <g id="patch_29">
    <path d="M 141.632494 55085.827295 
L 144.879039 55085.827295 
L 144.879039 33.755035 
L 141.632494 33.755035 
z
" clip-path="url(#pf952d58d06)" style="fill: #3274a1"/>
   </g>
   <g id="patch_30">
    <path d="M 144.879039 55085.827295 
L 148.125585 55085.827295 
L 148.125585 28.523792 
L 144.879039 28.523792 
z
" clip-path="url(#pf952d58d06)" style="fill: #3274a1"/>
   </g>
   <g id="patch_31">
    <path d="M 148.125585 55085.827295 
L 151.37213 55085.827295 
L 151.37213 24.481109 
L 148.125585 24.481109 
z
" clip-path="url(#pf952d58d06)" style="fill: #3274a1"/>
   </g>
   <g id="patch_32">
    <path d="M 151.37213 55085.827295 
L 154.618676 55085.827295 
L 154.618676 55085.827295 
L 151.37213 55085.827295 
z
" clip-path="url(#pf952d58d06)" style="fill: #3274a1"/>
   </g>
   <g id="patch_33">
    <path d="M 154.618676 55085.827295 
L 157.865221 55085.827295 
L 157.865221 19.862918 
L 154.618676 19.862918 
z
" clip-path="url(#pf952d58d06)" style="fill: #3274a1"/>
   </g>
   <g id="patch_34">
    <path d="M 157.865221 55085.827295 
L 161.111767 55085.827295 
L 161.111767 18.461442 
L 157.865221 18.461442 
z
" clip-path="url(#pf952d58d06)" style="fill: #3274a1"/>
   </g>
   <g id="patch_35">
    <path d="M 161.111767 55085.827295 
L 164.358312 55085.827295 
L 164.358312 17.474122 
L 161.111767 17.474122 
z
" clip-path="url(#pf952d58d06)" style="fill: #3274a1"/>
   </g>
   <g id="patch_36">
    <path d="M 164.358312 55085.827295 
L 167.604858 55085.827295 
L 167.604858 17.498312 
L 164.358312 17.498312 
z
" clip-path="url(#pf952d58d06)" style="fill: #3274a1"/>
   </g>
   <g id="patch_37">
    <path d="M 167.604858 55085.827295 
L 170.851403 55085.827295 
L 170.851403 55085.827295 
L 167.604858 55085.827295 
z
" clip-path="url(#pf952d58d06)" style="fill: #3274a1"/>
   </g>
   <g id="patch_38">
    <path d="M 170.851403 55085.827295 
L 174.097948 55085.827295 
L 174.097948 16.445014 
L 170.851403 16.445014 
z
" clip-path="url(#pf952d58d06)" style="fill: #3274a1"/>
   </g>
   <g id="patch_39">
    <path d="M 174.097948 55085.827295 
L 177.344494 55085.827295 
L 177.344494 17.173811 
L 174.097948 17.173811 
z
" clip-path="url(#pf952d58d06)" style="fill: #3274a1"/>
   </g>
   <g id="patch_40">
    <path d="M 177.344494 55085.827295 
L 180.591039 55085.827295 
L 180.591039 16.272 
L 177.344494 16.272 
z
" clip-path="url(#pf952d58d06)" style="fill: #3274a1"/>
   </g>
   <g id="patch_41">
    <path d="M 180.591039 55085.827295 
L 183.837585 55085.827295 
L 183.837585 17.185751 
L 180.591039 17.185751 
z
" clip-path="url(#pf952d58d06)" style="fill: #3274a1"/>
   </g>
   <g id="patch_42">
    <path d="M 183.837585 55085.827295 
L 187.08413 55085.827295 
L 187.08413 55085.827295 
L 183.837585 55085.827295 
z
" clip-path="url(#pf952d58d06)" style="fill: #3274a1"/>
   </g>
   <g id="patch_43">
    <path d="M 187.08413 55085.827295 
L 190.330676 55085.827295 
L 190.330676 17.729349 
L 187.08413 17.729349 
z
" clip-path="url(#pf952d58d06)" style="fill: #3274a1"/>
   </g>
   <g id="patch_44">
    <path d="M 190.330676 55085.827295 
L 193.577221 55085.827295 
L 193.577221 19.544259 
L 190.330676 19.544259 
z
" clip-path="url(#pf952d58d06)" style="fill: #3274a1"/>
   </g>
   <g id="patch_45">
    <path d="M 193.577221 55085.827295 
L 196.823767 55085.827295 
L 196.823767 19.809511 
L 193.577221 19.809511 
z
" clip-path="url(#pf952d58d06)" style="fill: #3274a1"/>
   </g>
   <g id="patch_46">
    <path d="M 196.823767 55085.827295 
L 200.070312 55085.827295 
L 200.070312 20.609707 
L 196.823767 20.609707 
z
" clip-path="url(#pf952d58d06)" style="fill: #3274a1"/>
   </g>
   <g id="patch_47">
    <path d="M 200.070312 55085.827295 
L 203.316858 55085.827295 
L 203.316858 55085.827295 
L 200.070312 55085.827295 
z
" clip-path="url(#pf952d58d06)" style="fill: #3274a1"/>
   </g>
   <g id="patch_48">
    <path d="M 203.316858 55085.827295 
L 206.563403 55085.827295 
L 206.563403 23.232043 
L 203.316858 23.232043 
z
" clip-path="url(#pf952d58d06)" style="fill: #3274a1"/>
   </g>
   <g id="patch_49">
    <path d="M 206.563403 55085.827295 
L 209.809948 55085.827295 
L 209.809948 22.789512 
L 206.563403 22.789512 
z
" clip-path="url(#pf952d58d06)" style="fill: #3274a1"/>
   </g>
   <g id="patch_50">
    <path d="M 209.809948 55085.827295 
L 213.056494 55085.827295 
L 213.056494 23.262869 
L 209.809948 23.262869 
z
" clip-path="url(#pf952d58d06)" style="fill: #3274a1"/>
   </g>
   <g id="patch_51">
    <path d="M 213.056494 55085.827295 
L 216.303039 55085.827295 
L 216.303039 24.676718 
L 213.056494 24.676718 
z
" clip-path="url(#pf952d58d06)" style="fill: #3274a1"/>
   </g>
   <g id="patch_52">
    <path d="M 216.303039 55085.827295 
L 219.549585 55085.827295 
L 219.549585 55085.827295 
L 216.303039 55085.827295 
z
" clip-path="url(#pf952d58d06)" style="fill: #3274a1"/>
   </g>
   <g id="patch_53">
    <path d="M 219.549585 55085.827295 
L 222.79613 55085.827295 
L 222.79613 25.577443 
L 219.549585 25.577443 
z
" clip-path="url(#pf952d58d06)" style="fill: #3274a1"/>
   </g>
   <g id="patch_54">
    <path d="M 222.79613 55085.827295 
L 226.042676 55085.827295 
L 226.042676 25.816646 
L 222.79613 25.816646 
z
" clip-path="url(#pf952d58d06)" style="fill: #3274a1"/>
   </g>
   <g id="patch_55">
    <path d="M 226.042676 55085.827295 
L 229.289221 55085.827295 
L 229.289221 26.566764 
L 226.042676 26.566764 
z
" clip-path="url(#pf952d58d06)" style="fill: #3274a1"/>
   </g>
   <g id="patch_56">
    <path d="M 229.289221 55085.827295 
L 232.535767 55085.827295 
L 232.535767 28.408608 
L 229.289221 28.408608 
z
" clip-path="url(#pf952d58d06)" style="fill: #3274a1"/>
   </g>
   <g id="patch_57">
    <path d="M 232.535767 55085.827295 
L 235.782312 55085.827295 
L 235.782312 55085.827295 
L 232.535767 55085.827295 
z
" clip-path="url(#pf952d58d06)" style="fill: #3274a1"/>
   </g>
   <g id="patch_58">
    <path d="M 235.782312 55085.827295 
L 239.028858 55085.827295 
L 239.028858 28.562311 
L 235.782312 28.562311 
z
" clip-path="url(#pf952d58d06)" style="fill: #3274a1"/>
   </g>
   <g id="patch_59">
    <path d="M 239.028858 55085.827295 
L 242.275403 55085.827295 
L 242.275403 29.930962 
L 239.028858 29.930962 
z
" clip-path="url(#pf952d58d06)" style="fill: #3274a1"/>
   </g>
   <g id="patch_60">
    <path d="M 242.275403 55085.827295 
L 245.521948 55085.827295 
L 245.521948 31.71109 
L 242.275403 31.71109 
z
" clip-path="url(#pf952d58d06)" style="fill: #3274a1"/>
   </g>
   <g id="patch_61">
    <path d="M 245.521948 55085.827295 
L 248.768494 55085.827295 
L 248.768494 34.634464 
L 245.521948 34.634464 
z
" clip-path="url(#pf952d58d06)" style="fill: #3274a1"/>
   </g>
   <g id="patch_62">
    <path d="M 248.768494 55085.827295 
L 252.015039 55085.827295 
L 252.015039 55085.827295 
L 248.768494 55085.827295 
z
" clip-path="url(#pf952d58d06)" style="fill: #3274a1"/>
   </g>
   <g id="patch_63">
    <path d="M 252.015039 55085.827295 
L 255.261585 55085.827295 
L 255.261585 34.884638 
L 252.015039 34.884638 
z
" clip-path="url(#pf952d58d06)" style="fill: #3274a1"/>
   </g>
   <g id="patch_64">
    <path d="M 255.261585 55085.827295 
L 258.50813 55085.827295 
L 258.50813 40.093812 
L 255.261585 40.093812 
z
" clip-path="url(#pf952d58d06)" style="fill: #3274a1"/>
   </g>
   <g id="patch_65">
    <path d="M 258.50813 55085.827295 
L 261.754676 55085.827295 
L 261.754676 40.440771 
L 258.50813 40.440771 
z
" clip-path="url(#pf952d58d06)" style="fill: #3274a1"/>
   </g>
   <g id="patch_66">
    <path d="M 261.754676 55085.827295 
L 265.001221 55085.827295 
L 265.001221 45.326761 
L 261.754676 45.326761 
z
" clip-path="url(#pf952d58d06)" style="fill: #3274a1"/>
   </g>
   <g id="patch_67">
    <path d="M 265.001221 55085.827295 
L 268.247767 55085.827295 
L 268.247767 55085.827295 
L 265.001221 55085.827295 
z
" clip-path="url(#pf952d58d06)" style="fill: #3274a1"/>
   </g>
   <g id="patch_68">
    <path d="M 268.247767 55085.827295 
L 271.494312 55085.827295 
L 271.494312 50.983906 
L 268.247767 50.983906 
z
" clip-path="url(#pf952d58d06)" style="fill: #3274a1"/>
   </g>
   <g id="patch_69">
    <path d="M 271.494312 55085.827295 
L 274.740858 55085.827295 
L 274.740858 52.944061 
L 271.494312 52.944061 
z
" clip-path="url(#pf952d58d06)" style="fill: #3274a1"/>
   </g>
   <g id="patch_70">
    <path d="M 274.740858 55085.827295 
L 277.987403 55085.827295 
L 277.987403 61.298321 
L 274.740858 61.298321 
z
" clip-path="url(#pf952d58d06)" style="fill: #3274a1"/>
   </g>
   <g id="patch_71">
    <path d="M 277.987403 55085.827295 
L 281.233948 55085.827295 
L 281.233948 67.260223 
L 277.987403 67.260223 
z
" clip-path="url(#pf952d58d06)" style="fill: #3274a1"/>
   </g>
   <g id="patch_72">
    <path d="M 281.233948 55085.827295 
L 284.480494 55085.827295 
L 284.480494 55085.827295 
L 281.233948 55085.827295 
z
" clip-path="url(#pf952d58d06)" style="fill: #3274a1"/>
   </g>
   <g id="patch_73">
    <path d="M 284.480494 55085.827295 
L 287.727039 55085.827295 
L 287.727039 72.760753 
L 284.480494 72.760753 
z
" clip-path="url(#pf952d58d06)" style="fill: #3274a1"/>
   </g>
   <g id="patch_74">
    <path d="M 287.727039 55085.827295 
L 290.973585 55085.827295 
L 290.973585 81.665832 
L 287.727039 81.665832 
z
" clip-path="url(#pf952d58d06)" style="fill: #3274a1"/>
   </g>
   <g id="patch_75">
    <path d="M 290.973585 55085.827295 
L 294.22013 55085.827295 
L 294.22013 94.786463 
L 290.973585 94.786463 
z
" clip-path="url(#pf952d58d06)" style="fill: #3274a1"/>
   </g>
   <g id="patch_76">
    <path d="M 294.22013 55085.827295 
L 297.466676 55085.827295 
L 297.466676 99.244989 
L 294.22013 99.244989 
z
" clip-path="url(#pf952d58d06)" style="fill: #3274a1"/>
   </g>
   <g id="patch_77">
    <path d="M 297.466676 55085.827295 
L 300.713221 55085.827295 
L 300.713221 55085.827295 
L 297.466676 55085.827295 
z
" clip-path="url(#pf952d58d06)" style="fill: #3274a1"/>
   </g>
   <g id="patch_78">
    <path d="M 300.713221 55085.827295 
L 303.959767 55085.827295 
L 303.959767 111.893818 
L 300.713221 111.893818 
z
" clip-path="url(#pf952d58d06)" style="fill: #3274a1"/>
   </g>
   <g id="patch_79">
    <path d="M 303.959767 55085.827295 
L 307.206312 55085.827295 
L 307.206312 133.351648 
L 303.959767 133.351648 
z
" clip-path="url(#pf952d58d06)" style="fill: #3274a1"/>
   </g>
   <g id="patch_80">
    <path d="M 307.206312 55085.827295 
L 310.452858 55085.827295 
L 310.452858 142.988057 
L 307.206312 142.988057 
z
" clip-path="url(#pf952d58d06)" style="fill: #3274a1"/>
   </g>
   <g id="patch_81">
    <path d="M 310.452858 55085.827295 
L 313.699403 55085.827295 
L 313.699403 155.128495 
L 310.452858 155.128495 
z
" clip-path="url(#pf952d58d06)" style="fill: #3274a1"/>
   </g>
   <g id="patch_82">
    <path d="M 313.699403 55085.827295 
L 316.945948 55085.827295 
L 316.945948 55085.827295 
L 313.699403 55085.827295 
z
" clip-path="url(#pf952d58d06)" style="fill: #3274a1"/>
   </g>
   <g id="patch_83">
    <path d="M 316.945948 55085.827295 
L 320.192494 55085.827295 
L 320.192494 181.238452 
L 316.945948 181.238452 
z
" clip-path="url(#pf952d58d06)" style="fill: #3274a1"/>
   </g>
   <g id="patch_84">
    <path d="M 320.192494 55085.827295 
L 323.439039 55085.827295 
L 323.439039 197.712 
L 320.192494 197.712 
z
" clip-path="url(#pf952d58d06)" style="fill: #3274a1"/>
   </g>
   <g id="patch_85">
    <path d="M 323.439039 55085.827295 
L 326.685585 55085.827295 
L 326.685585 181.238452 
L 323.439039 181.238452 
z
" clip-path="url(#pf952d58d06)" style="fill: #3274a1"/>
   </g>
   <g id="patch_86">
    <path d="M 326.685585 55085.827295 
L 329.93213 55085.827295 
L 329.93213 55085.827295 
L 326.685585 55085.827295 
z
" clip-path="url(#pf952d58d06)" style="fill: #3274a1"/>
   </g>
   <g id="patch_87">
    <path d="M 329.93213 55085.827295 
L 333.178676 55085.827295 
L 333.178676 55085.827295 
L 329.93213 55085.827295 
z
" clip-path="url(#pf952d58d06)" style="fill: #3274a1"/>
   </g>
   <g id="patch_88">
    <path d="M 333.178676 55085.827295 
L 336.425221 55085.827295 
L 336.425221 55085.827295 
L 333.178676 55085.827295 
z
" clip-path="url(#pf952d58d06)" style="fill: #3274a1"/>
   </g>
   <g id="patch_89">
    <path d="M 336.425221 55085.827295 
L 339.671767 55085.827295 
L 339.671767 55085.827295 
L 336.425221 55085.827295 
z
" clip-path="url(#pf952d58d06)" style="fill: #3274a1"/>
   </g>
   <g id="patch_90">
    <path d="M 339.671767 55085.827295 
L 342.918312 55085.827295 
L 342.918312 55085.827295 
L 339.671767 55085.827295 
z
" clip-path="url(#pf952d58d06)" style="fill: #3274a1"/>
   </g>
   <g id="patch_91">
    <path d="M 342.918312 55085.827295 
L 346.164858 55085.827295 
L 346.164858 55085.827295 
L 342.918312 55085.827295 
z
" clip-path="url(#pf952d58d06)" style="fill: #3274a1"/>
   </g>
   <g id="patch_92">
    <path d="M 346.164858 55085.827295 
L 349.411403 55085.827295 
L 349.411403 55085.827295 
L 346.164858 55085.827295 
z
" clip-path="url(#pf952d58d06)" style="fill: #3274a1"/>
   </g>
   <g id="patch_93">
    <path d="M 349.411403 55085.827295 
L 352.657948 55085.827295 
L 352.657948 55085.827295 
L 349.411403 55085.827295 
z
" clip-path="url(#pf952d58d06)" style="fill: #3274a1"/>
   </g>
   <g id="patch_94">
    <path d="M 352.657948 55085.827295 
L 355.904494 55085.827295 
L 355.904494 55085.827295 
L 352.657948 55085.827295 
z
" clip-path="url(#pf952d58d06)" style="fill: #3274a1"/>
   </g>
   <g id="patch_95">
    <path d="M 355.904494 55085.827295 
L 359.151039 55085.827295 
L 359.151039 55085.827295 
L 355.904494 55085.827295 
z
" clip-path="url(#pf952d58d06)" style="fill: #3274a1"/>
   </g>
   <g id="patch_96">
    <path d="M 359.151039 55085.827295 
L 362.397585 55085.827295 
L 362.397585 55085.827295 
L 359.151039 55085.827295 
z
" clip-path="url(#pf952d58d06)" style="fill: #3274a1"/>
   </g>
   <g id="patch_97">
    <path d="M 362.397585 55085.827295 
L 365.64413 55085.827295 
L 365.64413 55085.827295 
L 362.397585 55085.827295 
z
" clip-path="url(#pf952d58d06)" style="fill: #3274a1"/>
   </g>
   <g id="patch_98">
    <path d="M 365.64413 55085.827295 
L 368.890676 55085.827295 
L 368.890676 55085.827295 
L 365.64413 55085.827295 
z
" clip-path="url(#pf952d58d06)" style="fill: #3274a1"/>
   </g>
   <g id="patch_99">
    <path d="M 368.890676 55085.827295 
L 372.137221 55085.827295 
L 372.137221 55085.827295 
L 368.890676 55085.827295 
z
" clip-path="url(#pf952d58d06)" style="fill: #3274a1"/>
   </g>
   <g id="patch_100">
    <path d="M 372.137221 55085.827295 
L 375.383767 55085.827295 
L 375.383767 55085.827295 
L 372.137221 55085.827295 
z
" clip-path="url(#pf952d58d06)" style="fill: #3274a1"/>
   </g>
   <g id="patch_101">
    <path d="M 375.383767 55085.827295 
L 378.630312 55085.827295 
L 378.630312 55085.827295 
L 375.383767 55085.827295 
z
" clip-path="url(#pf952d58d06)" style="fill: #3274a1"/>
   </g>
   <g id="patch_102">
    <path d="M 378.630312 55085.827295 
L 381.876858 55085.827295 
L 381.876858 55085.827295 
L 378.630312 55085.827295 
z
" clip-path="url(#pf952d58d06)" style="fill: #3274a1"/>
   </g>
   <g id="matplotlib.axis_1">
    <g id="xtick_1">
     <g id="line2d_1">
      <defs>
       <path id="mc84038a410" d="M 0 0 
L 0 3.5 
" style="stroke: #000000; stroke-width: 0.8"/>
      </defs>
      <g>
       <use xlink:href="#mc84038a410" x="53.16413" y="206.784" style="stroke: #000000; stroke-width: 0.8"/>
      </g>
     </g>
     <g id="text_1">
      <!-- $\mathdefault{0}$ -->
      <g transform="translate(50.673463 220.702498) scale(0.1 -0.1)">
       <defs>
        <path id="CMR17-30" d="M 2688 2038 
C 2688 2430 2682 3099 2413 3613 
C 2176 4063 1798 4224 1466 4224 
C 1158 4224 768 4082 525 3620 
C 269 3137 243 2539 243 2038 
C 243 1671 250 1112 448 623 
C 723 -39 1216 -128 1466 -128 
C 1760 -128 2208 -7 2470 604 
C 2662 1048 2688 1568 2688 2038 
z
M 1466 -26 
C 1056 -26 813 328 723 816 
C 653 1196 653 1749 653 2109 
C 653 2604 653 3015 736 3407 
C 858 3954 1216 4121 1466 4121 
C 1728 4121 2067 3947 2189 3420 
C 2272 3054 2278 2623 2278 2109 
C 2278 1691 2278 1176 2202 797 
C 2067 96 1690 -26 1466 -26 
z
" transform="scale(0.015625)"/>
       </defs>
       <use xlink:href="#CMR17-30" transform="scale(0.996264)"/>
      </g>
     </g>
    </g>
    <g id="xtick_2">
     <g id="line2d_2">
      <g>
       <use xlink:href="#mc84038a410" x="93.745948" y="206.784" style="stroke: #000000; stroke-width: 0.8"/>
      </g>
     </g>
     <g id="text_2">
      <!-- $\mathdefault{10}$ -->
      <g transform="translate(88.764613 220.702498) scale(0.1 -0.1)">
       <defs>
        <path id="CMR17-31" d="M 1702 4083 
C 1702 4217 1696 4224 1606 4224 
C 1357 3927 979 3833 621 3820 
C 602 3820 570 3820 563 3808 
C 557 3795 557 3782 557 3648 
C 755 3648 1088 3686 1344 3839 
L 1344 467 
C 1344 243 1331 166 781 166 
L 589 166 
L 589 0 
C 896 6 1216 12 1523 12 
C 1830 12 2150 6 2458 0 
L 2458 166 
L 2266 166 
C 1715 166 1702 236 1702 467 
L 1702 4083 
z
" transform="scale(0.015625)"/>
       </defs>
       <use xlink:href="#CMR17-31" transform="scale(0.996264)"/>
       <use xlink:href="#CMR17-30" transform="translate(45.690477 0) scale(0.996264)"/>
      </g>
     </g>
    </g>
    <g id="xtick_3">
     <g id="line2d_3">
      <g>
       <use xlink:href="#mc84038a410" x="134.327767" y="206.784" style="stroke: #000000; stroke-width: 0.8"/>
      </g>
     </g>
     <g id="text_3">
      <!-- $\mathdefault{20}$ -->
      <g transform="translate(129.346431 220.702498) scale(0.1 -0.1)">
       <defs>
        <path id="CMR17-32" d="M 2669 990 
L 2554 990 
C 2490 537 2438 460 2413 422 
C 2381 371 1920 371 1830 371 
L 602 371 
C 832 620 1280 1073 1824 1596 
C 2214 1966 2669 2400 2669 3033 
C 2669 3788 2067 4224 1395 4224 
C 691 4224 262 3603 262 3027 
C 262 2777 448 2745 525 2745 
C 589 2745 781 2783 781 3007 
C 781 3206 614 3264 525 3264 
C 486 3264 448 3257 422 3244 
C 544 3788 915 4057 1306 4057 
C 1862 4057 2227 3616 2227 3033 
C 2227 2477 1901 1998 1536 1583 
L 262 147 
L 262 0 
L 2515 0 
L 2669 990 
z
" transform="scale(0.015625)"/>
       </defs>
       <use xlink:href="#CMR17-32" transform="scale(0.996264)"/>
       <use xlink:href="#CMR17-30" transform="translate(45.690477 0) scale(0.996264)"/>
      </g>
     </g>
    </g>
    <g id="xtick_4">
     <g id="line2d_4">
      <g>
       <use xlink:href="#mc84038a410" x="174.909585" y="206.784" style="stroke: #000000; stroke-width: 0.8"/>
      </g>
     </g>
     <g id="text_4">
      <!-- $\mathdefault{30}$ -->
      <g transform="translate(169.92825 220.702498) scale(0.1 -0.1)">
       <defs>
        <path id="CMR17-33" d="M 1414 2176 
C 1984 2176 2234 1673 2234 1094 
C 2234 322 1824 25 1453 25 
C 1114 25 563 193 390 691 
C 422 678 454 678 486 678 
C 640 678 755 780 755 947 
C 755 1132 614 1216 486 1216 
C 378 1216 211 1164 211 927 
C 211 335 787 -128 1466 -128 
C 2176 -128 2720 432 2720 1087 
C 2720 1718 2208 2176 1600 2246 
C 2086 2347 2554 2776 2554 3353 
C 2554 3856 2048 4224 1472 4224 
C 890 4224 378 3862 378 3347 
C 378 3123 544 3084 627 3084 
C 762 3084 877 3167 877 3334 
C 877 3500 762 3584 627 3584 
C 602 3584 570 3584 544 3571 
C 730 3999 1235 4076 1459 4076 
C 1683 4076 2106 3966 2106 3347 
C 2106 3167 2080 2851 1862 2574 
C 1670 2329 1453 2316 1242 2297 
C 1210 2297 1062 2284 1037 2284 
C 992 2278 966 2272 966 2227 
C 966 2182 973 2176 1101 2176 
L 1414 2176 
z
" transform="scale(0.015625)"/>
       </defs>
       <use xlink:href="#CMR17-33" transform="scale(0.996264)"/>
       <use xlink:href="#CMR17-30" transform="translate(45.690477 0) scale(0.996264)"/>
      </g>
     </g>
    </g>
    <g id="xtick_5">
     <g id="line2d_5">
      <g>
       <use xlink:href="#mc84038a410" x="215.491403" y="206.784" style="stroke: #000000; stroke-width: 0.8"/>
      </g>
     </g>
     <g id="text_5">
      <!-- $\mathdefault{40}$ -->
      <g transform="translate(210.510068 220.702498) scale(0.1 -0.1)">
       <defs>
        <path id="CMR17-34" d="M 2150 4147 
C 2150 4281 2144 4288 2029 4288 
L 128 1254 
L 128 1088 
L 1779 1088 
L 1779 460 
C 1779 230 1766 166 1318 166 
L 1197 166 
L 1197 0 
C 1402 12 1747 12 1965 12 
C 2182 12 2528 12 2733 0 
L 2733 166 
L 2611 166 
C 2163 166 2150 230 2150 460 
L 2150 1088 
L 2803 1088 
L 2803 1254 
L 2150 1254 
L 2150 4147 
z
M 1798 3723 
L 1798 1254 
L 256 1254 
L 1798 3723 
z
" transform="scale(0.015625)"/>
       </defs>
       <use xlink:href="#CMR17-34" transform="scale(0.996264)"/>
       <use xlink:href="#CMR17-30" transform="translate(45.690477 0) scale(0.996264)"/>
      </g>
     </g>
    </g>
    <g id="xtick_6">
     <g id="line2d_6">
      <g>
       <use xlink:href="#mc84038a410" x="256.073221" y="206.784" style="stroke: #000000; stroke-width: 0.8"/>
      </g>
     </g>
     <g id="text_6">
      <!-- $\mathdefault{50}$ -->
      <g transform="translate(251.091886 220.702498) scale(0.1 -0.1)">
       <defs>
        <path id="CMR17-35" d="M 730 3750 
C 794 3724 1056 3641 1325 3641 
C 1920 3641 2246 3961 2432 4140 
C 2432 4191 2432 4224 2394 4224 
C 2387 4224 2374 4224 2323 4198 
C 2099 4102 1837 4032 1517 4032 
C 1325 4032 1037 4055 723 4191 
C 653 4224 640 4224 634 4224 
C 602 4224 595 4217 595 4090 
L 595 2231 
C 595 2113 595 2080 659 2080 
C 691 2080 704 2093 736 2139 
C 941 2435 1222 2560 1542 2560 
C 1766 2560 2246 2415 2246 1293 
C 2246 1087 2246 716 2054 422 
C 1894 159 1645 25 1370 25 
C 947 25 518 319 403 812 
C 429 806 480 793 506 793 
C 589 793 749 838 749 1036 
C 749 1209 627 1280 506 1280 
C 358 1280 262 1190 262 1011 
C 262 454 704 -128 1382 -128 
C 2042 -128 2669 441 2669 1267 
C 2669 2054 2170 2662 1549 2662 
C 1222 2662 947 2540 730 2304 
L 730 3750 
z
" transform="scale(0.015625)"/>
       </defs>
       <use xlink:href="#CMR17-35" transform="scale(0.996264)"/>
       <use xlink:href="#CMR17-30" transform="translate(45.690477 0) scale(0.996264)"/>
      </g>
     </g>
    </g>
    <g id="xtick_7">
     <g id="line2d_7">
      <g>
       <use xlink:href="#mc84038a410" x="296.655039" y="206.784" style="stroke: #000000; stroke-width: 0.8"/>
      </g>
     </g>
     <g id="text_7">
      <!-- $\mathdefault{60}$ -->
      <g transform="translate(291.673704 220.702498) scale(0.1 -0.1)">
       <defs>
        <path id="CMR17-36" d="M 678 2198 
C 678 3712 1395 4076 1811 4076 
C 1946 4076 2272 4049 2400 3782 
C 2298 3782 2106 3782 2106 3558 
C 2106 3385 2246 3328 2336 3328 
C 2394 3328 2566 3353 2566 3571 
C 2566 3987 2246 4224 1805 4224 
C 1043 4224 243 3411 243 2011 
C 243 257 966 -128 1478 -128 
C 2099 -128 2688 431 2688 1295 
C 2688 2101 2170 2688 1517 2688 
C 1126 2688 838 2430 678 1979 
L 678 2198 
z
M 1478 25 
C 691 25 691 1212 691 1450 
C 691 1914 909 2585 1504 2585 
C 1613 2585 1926 2585 2138 2140 
C 2253 1889 2253 1624 2253 1302 
C 2253 954 2253 696 2118 438 
C 1978 173 1773 25 1478 25 
z
" transform="scale(0.015625)"/>
       </defs>
       <use xlink:href="#CMR17-36" transform="scale(0.996264)"/>
       <use xlink:href="#CMR17-30" transform="translate(45.690477 0) scale(0.996264)"/>
      </g>
     </g>
    </g>
    <g id="xtick_8">
     <g id="line2d_8">
      <g>
       <use xlink:href="#mc84038a410" x="337.236858" y="206.784" style="stroke: #000000; stroke-width: 0.8"/>
      </g>
     </g>
     <g id="text_8">
      <!-- $\mathdefault{70}$ -->
      <g transform="translate(332.255522 220.702498) scale(0.1 -0.1)">
       <defs>
        <path id="CMR17-37" d="M 2886 3955 
L 2886 4096 
L 1382 4096 
C 634 4096 621 4166 595 4288 
L 480 4288 
L 294 3104 
L 410 3104 
C 429 3226 474 3552 550 3673 
C 589 3724 1062 3724 1171 3724 
L 2579 3724 
L 1869 2670 
C 1395 1961 1069 1003 1069 166 
C 1069 89 1069 -128 1299 -128 
C 1530 -128 1530 89 1530 172 
L 1530 466 
C 1530 1514 1709 2204 2003 2644 
L 2886 3955 
z
" transform="scale(0.015625)"/>
       </defs>
       <use xlink:href="#CMR17-37" transform="scale(0.996264)"/>
       <use xlink:href="#CMR17-30" transform="translate(45.690477 0) scale(0.996264)"/>
      </g>
     </g>
    </g>
    <g id="xtick_9">
     <g id="line2d_9">
      <g>
       <use xlink:href="#mc84038a410" x="377.818676" y="206.784" style="stroke: #000000; stroke-width: 0.8"/>
      </g>
     </g>
     <g id="text_9">
      <!-- $\mathdefault{80}$ -->
      <g transform="translate(372.83734 220.702498) scale(0.1 -0.1)">
       <defs>
        <path id="CMR17-38" d="M 1741 2289 
C 2144 2494 2554 2803 2554 3298 
C 2554 3884 1990 4224 1472 4224 
C 890 4224 378 3800 378 3215 
C 378 3054 416 2777 666 2533 
C 730 2469 998 2276 1171 2154 
C 883 2006 211 1652 211 945 
C 211 282 838 -128 1459 -128 
C 2144 -128 2720 366 2720 1022 
C 2720 1607 2330 1877 2074 2051 
L 1741 2289 
z
M 902 2855 
C 851 2887 595 3086 595 3388 
C 595 3781 998 4076 1459 4076 
C 1965 4076 2336 3716 2336 3298 
C 2336 2700 1670 2359 1638 2359 
C 1632 2359 1626 2359 1574 2398 
L 902 2855 
z
M 2080 1536 
C 2176 1466 2483 1253 2483 861 
C 2483 385 2010 25 1472 25 
C 890 25 448 443 448 951 
C 448 1459 838 1884 1280 2083 
L 2080 1536 
z
" transform="scale(0.015625)"/>
       </defs>
       <use xlink:href="#CMR17-38" transform="scale(0.996264)"/>
       <use xlink:href="#CMR17-30" transform="translate(45.690477 0) scale(0.996264)"/>
      </g>
     </g>
    </g>
    <g id="text_10">
     <!-- Verfügbare Aktionen -->
     <g transform="translate(174.274823 233.558175) scale(0.1 -0.1)">
      <defs>
       <path id="CMR17-56" d="M 3776 3762 
C 3834 3903 3936 4179 4365 4185 
L 4365 4352 
C 4218 4339 4051 4339 3891 4339 
C 3738 4339 3475 4339 3328 4352 
L 3328 4185 
C 3648 4166 3661 3942 3661 3903 
C 3661 3833 3642 3788 3622 3737 
L 2362 448 
L 1043 3903 
C 1024 3948 1011 3980 1011 4012 
C 1011 4185 1267 4185 1402 4185 
L 1402 4352 
C 1197 4339 896 4339 685 4339 
C 518 4339 218 4339 64 4352 
L 64 4185 
C 435 4185 506 4160 582 3955 
L 2106 -26 
C 2138 -116 2144 -128 2214 -128 
C 2285 -128 2291 -116 2323 -26 
L 3776 3762 
z
" transform="scale(0.015625)"/>
       <path id="CMR17-65" d="M 2438 1503 
C 2464 1529 2464 1542 2464 1606 
C 2464 2251 2118 2816 1389 2816 
C 710 2816 173 2175 173 1394 
C 173 554 781 -64 1459 -64 
C 2176 -64 2458 619 2458 755 
C 2458 800 2419 800 2406 800 
C 2362 800 2355 787 2330 709 
C 2189 270 1837 51 1504 51 
C 1229 51 954 206 781 490 
C 582 819 582 1200 582 1503 
L 2438 1503 
z
M 589 1600 
C 634 2511 1126 2713 1382 2713 
C 1818 2713 2112 2308 2118 1600 
L 589 1600 
z
" transform="scale(0.015625)"/>
       <path id="CMR17-72" d="M 960 1517 
C 960 2134 1222 2713 1702 2713 
C 1747 2713 1792 2707 1837 2687 
C 1837 2687 1696 2642 1696 2475 
C 1696 2321 1818 2257 1914 2257 
C 1990 2257 2131 2302 2131 2482 
C 2131 2687 1926 2816 1709 2816 
C 1222 2816 1011 2340 947 2115 
L 941 2115 
L 941 2816 
L 198 2745 
L 198 2578 
C 576 2578 634 2540 634 2231 
L 634 443 
C 634 198 608 166 198 166 
L 198 0 
C 352 12 646 12 813 12 
C 998 12 1325 12 1498 0 
L 1498 166 
C 1037 166 960 166 960 455 
L 960 1517 
z
" transform="scale(0.015625)"/>
       <path id="CMR17-66" d="M 979 2585 
L 1709 2585 
L 1709 2752 
L 966 2752 
L 966 3539 
C 966 4076 1235 4377 1510 4377 
C 1594 4377 1690 4363 1754 4339 
C 1702 4326 1568 4281 1568 4121 
C 1568 3955 1696 3904 1786 3904 
C 1875 3904 2003 3955 2003 4121 
C 2003 4353 1773 4480 1517 4480 
C 1152 4480 653 4211 653 3526 
L 653 2752 
L 141 2752 
L 141 2585 
L 653 2585 
L 653 441 
C 653 198 627 166 218 166 
L 218 0 
C 371 12 666 12 832 12 
C 1018 12 1344 12 1517 0 
L 1517 166 
C 1056 166 979 166 979 454 
L 979 2585 
z
" transform="scale(0.015625)"/>
       <path id="CMR17-7f" d="M 1133 3961 
C 1133 4121 1005 4217 883 4217 
C 717 4217 627 4076 627 3968 
C 627 3840 730 3712 883 3712 
C 1018 3712 1133 3820 1133 3961 
z
M 2304 3961 
C 2304 4089 2202 4217 2048 4217 
C 1914 4217 1798 4108 1798 3968 
C 1798 3808 1926 3712 2048 3712 
C 2214 3712 2304 3852 2304 3961 
z
" transform="scale(0.015625)"/>
       <path id="CMR17-75" d="M 1882 2745 
L 1882 2579 
C 2259 2579 2317 2540 2317 2229 
L 2317 1053 
C 2317 510 2029 38 1555 38 
C 1030 38 986 355 986 691 
L 986 2816 
L 211 2745 
L 211 2579 
C 467 2579 640 2579 646 2320 
L 646 1079 
C 646 646 646 368 813 187 
C 896 103 1056 -64 1517 -64 
C 2061 -64 2272 400 2323 536 
L 2330 536 
L 2330 -64 
L 3091 -13 
L 3091 154 
C 2714 154 2656 193 2656 503 
L 2656 2816 
L 1882 2745 
z
" transform="scale(0.015625)"/>
       <path id="CMR17-67" d="M 710 1165 
C 832 1068 1043 960 1299 960 
C 1805 960 2240 1359 2240 1895 
C 2240 2063 2189 2321 1997 2521 
C 2176 2713 2438 2777 2586 2777 
C 2611 2777 2650 2777 2682 2758 
C 2656 2751 2598 2726 2598 2623 
C 2598 2540 2656 2483 2739 2483 
C 2835 2483 2886 2547 2886 2630 
C 2886 2751 2790 2880 2586 2880 
C 2330 2880 2106 2758 1926 2591 
C 1734 2764 1504 2828 1299 2828 
C 794 2828 358 2431 358 1895 
C 358 1527 570 1294 634 1230 
C 442 1004 442 742 442 710 
C 442 544 506 300 723 166 
C 390 82 128 -184 128 -517 
C 128 -996 736 -1344 1466 -1344 
C 2170 -1344 2803 -1009 2803 -510 
C 2803 384 1856 384 1363 384 
C 1216 384 954 384 922 390 
C 723 422 589 601 589 825 
C 589 883 589 1024 710 1165 
z
M 1299 1068 
C 736 1068 736 1766 736 1895 
C 736 2024 736 2719 1299 2719 
C 1862 2719 1862 2024 1862 1895 
C 1862 1766 1862 1068 1299 1068 
z
M 1466 -1236 
C 826 -1236 384 -883 384 -517 
C 384 -311 493 -118 634 -11 
C 794 102 858 102 1293 102 
C 1818 102 2547 102 2547 -517 
C 2547 -883 2106 -1236 1466 -1236 
z
" transform="scale(0.015625)"/>
       <path id="CMR17-62" d="M 960 4416 
L 198 4345 
L 198 4179 
C 576 4179 634 4141 634 3843 
L 634 -13 
L 749 -13 
L 934 445 
C 1120 141 1395 -64 1766 -64 
C 2406 -64 3053 503 3053 1382 
C 3053 2209 2477 2816 1830 2816 
C 1434 2816 1152 2603 960 2351 
L 960 4416 
z
M 973 2022 
C 973 2138 973 2157 1062 2293 
C 1312 2681 1670 2713 1792 2713 
C 1984 2713 2643 2610 2643 1388 
C 2643 109 1888 38 1734 38 
C 1536 38 1248 115 1043 490 
C 973 613 973 626 973 742 
L 973 2022 
z
" transform="scale(0.015625)"/>
       <path id="CMR17-61" d="M 2304 1656 
C 2304 2048 2304 2275 2035 2534 
C 1798 2751 1523 2816 1306 2816 
C 800 2816 435 2408 435 1977 
C 435 1740 627 1728 666 1728 
C 749 1728 896 1779 896 1958 
C 896 2118 774 2188 666 2188 
C 640 2188 608 2182 589 2176 
C 723 2594 1069 2713 1293 2713 
C 1613 2713 1965 2421 1965 1875 
L 1965 1632 
C 1587 1619 1133 1568 774 1373 
C 371 1147 256 822 256 576 
C 256 77 832 -64 1171 -64 
C 1523 -64 1850 135 1990 505 
C 2003 219 2182 -39 2464 -39 
C 2598 -39 2938 51 2938 563 
L 2938 926 
L 2822 926 
L 2822 557 
C 2822 161 2650 109 2566 109 
C 2304 109 2304 446 2304 732 
L 2304 1656 
z
M 1965 887 
C 1965 323 1568 38 1216 38 
C 896 38 646 278 646 576 
C 646 771 730 1114 1101 1322 
C 1408 1497 1760 1523 1965 1536 
L 1965 887 
z
" transform="scale(0.015625)"/>
       <path id="CMR17-41" d="M 2323 4441 
C 2291 4524 2278 4544 2214 4544 
C 2150 4544 2138 4524 2106 4441 
L 749 580 
C 627 236 371 166 147 166 
L 147 0 
C 262 12 518 12 640 12 
C 800 12 1056 12 1210 0 
L 1210 166 
C 909 179 864 382 864 459 
C 864 516 877 548 890 586 
L 1229 1536 
L 2906 1536 
L 3290 453 
C 3322 376 3322 363 3322 338 
C 3322 166 3046 166 2925 166 
L 2925 0 
C 3110 12 3443 12 3642 12 
C 3808 12 4128 12 4282 0 
L 4282 166 
C 3942 166 3827 166 3744 402 
L 2323 4441 
z
M 2067 3924 
L 2848 1702 
L 1286 1702 
L 2067 3924 
z
" transform="scale(0.015625)"/>
       <path id="CMR17-6b" d="M 1670 1679 
C 1664 1692 1632 1730 1632 1749 
C 1632 1762 2086 2175 2144 2226 
C 2509 2532 2739 2563 2906 2570 
L 2906 2735 
C 2867 2735 2854 2735 2848 2729 
L 2534 2722 
C 2355 2722 2080 2722 1907 2735 
L 1907 2570 
C 1997 2563 2061 2513 2061 2423 
C 2061 2296 1933 2175 1926 2175 
L 960 1298 
L 960 4416 
L 198 4345 
L 198 4179 
C 576 4179 634 4141 634 3835 
L 634 439 
C 634 198 608 166 198 166 
L 198 0 
C 352 12 634 12 794 12 
C 954 12 1235 12 1389 0 
L 1389 166 
C 979 166 954 191 954 439 
L 954 1139 
L 1395 1540 
L 2042 586 
C 2118 471 2182 382 2182 299 
C 2182 185 2067 166 1990 166 
L 1990 0 
C 2144 12 2419 12 2579 12 
C 2694 12 2931 6 3040 0 
L 3040 166 
C 2739 166 2669 223 2477 503 
L 1670 1679 
z
" transform="scale(0.015625)"/>
       <path id="CMR17-74" d="M 966 2585 
L 1862 2585 
L 1862 2752 
L 966 2752 
L 966 3968 
L 851 3968 
C 838 3292 614 2700 70 2687 
L 70 2585 
L 627 2585 
L 627 778 
C 627 655 627 -64 1370 -64 
C 1747 -64 1965 308 1965 784 
L 1965 1151 
L 1850 1151 
L 1850 790 
C 1850 347 1677 51 1408 51 
C 1222 51 966 179 966 765 
L 966 2585 
z
" transform="scale(0.015625)"/>
       <path id="CMR17-69" d="M 992 3961 
C 992 4102 877 4224 730 4224 
C 589 4224 467 4108 467 3961 
C 467 3820 582 3699 730 3699 
C 870 3699 992 3814 992 3961 
z
M 243 2745 
L 243 2579 
C 602 2579 653 2540 653 2231 
L 653 443 
C 653 198 627 166 218 166 
L 218 0 
C 371 12 646 12 806 12 
C 960 12 1222 12 1370 0 
L 1370 166 
C 992 166 979 205 979 436 
L 979 2816 
L 243 2745 
z
" transform="scale(0.015625)"/>
       <path id="CMR17-6f" d="M 2758 1356 
C 2758 2176 2163 2816 1466 2816 
C 768 2816 173 2176 173 1356 
C 173 550 768 -64 1466 -64 
C 2163 -64 2758 550 2758 1356 
z
M 1466 51 
C 1165 51 909 230 762 480 
C 602 768 582 1126 582 1408 
C 582 1676 595 2009 762 2297 
C 890 2508 1139 2713 1466 2713 
C 1754 2713 1997 2553 2150 2329 
C 2349 2028 2349 1606 2349 1408 
C 2349 1158 2336 774 2163 467 
C 1984 172 1709 51 1466 51 
z
" transform="scale(0.015625)"/>
       <path id="CMR17-6e" d="M 2656 1954 
C 2656 2282 2592 2816 1837 2816 
C 1331 2816 1069 2424 973 2166 
L 966 2166 
L 966 2816 
L 211 2745 
L 211 2578 
C 589 2578 646 2540 646 2231 
L 646 443 
C 646 198 621 166 211 166 
L 211 0 
C 365 12 646 12 813 12 
C 979 12 1267 12 1421 0 
L 1421 166 
C 1011 166 986 192 986 443 
L 986 1678 
C 986 2269 1344 2713 1792 2713 
C 2266 2713 2317 2289 2317 1980 
L 2317 443 
C 2317 198 2291 166 1882 166 
L 1882 0 
C 2035 12 2317 12 2483 12 
C 2650 12 2938 12 3091 0 
L 3091 166 
C 2682 166 2656 192 2656 443 
L 2656 1954 
z
" transform="scale(0.015625)"/>
      </defs>
      <use xlink:href="#CMR17-56" transform="scale(0.996264)"/>
      <use xlink:href="#CMR17-65" transform="translate(61.265174 0) scale(0.996264)"/>
      <use xlink:href="#CMR17-72" transform="translate(101.750835 0) scale(0.996264)"/>
      <use xlink:href="#CMR17-66" transform="translate(137.031603 0) scale(0.996264)"/>
      <use xlink:href="#CMR17-7f" transform="translate(167.107569 0) scale(0.996264)"/>
      <use xlink:href="#CMR17-75" transform="translate(164.505115 0) scale(0.996264)"/>
      <use xlink:href="#CMR17-67" transform="translate(215.400485 0) scale(0.996264)"/>
      <use xlink:href="#CMR17-62" transform="translate(261.090962 0) scale(0.996264)"/>
      <use xlink:href="#CMR17-61" transform="translate(311.986332 0) scale(0.996264)"/>
      <use xlink:href="#CMR17-72" transform="translate(357.676809 0) scale(0.996264)"/>
      <use xlink:href="#CMR17-65" transform="translate(392.957577 0) scale(0.996264)"/>
      <use xlink:href="#CMR17-41" transform="translate(463.519203 0) scale(0.996264)"/>
      <use xlink:href="#CMR17-6b" transform="translate(532.591633 0) scale(0.996264)"/>
      <use xlink:href="#CMR17-74" transform="translate(580.884549 0) scale(0.996264)"/>
      <use xlink:href="#CMR17-69" transform="translate(616.165317 0) scale(0.996264)"/>
      <use xlink:href="#CMR17-6f" transform="translate(641.036375 0) scale(0.996264)"/>
      <use xlink:href="#CMR17-6e" transform="translate(686.726853 0) scale(0.996264)"/>
      <use xlink:href="#CMR17-65" transform="translate(737.622222 0) scale(0.996264)"/>
      <use xlink:href="#CMR17-6e" transform="translate(778.107883 0) scale(0.996264)"/>
     </g>
    </g>
   </g>
   <g id="matplotlib.axis_2">
    <g id="ytick_1">
     <g id="line2d_10">
      <defs>
       <path id="m03bd703b18" d="M 0 0 
L -3.5 0 
" style="stroke: #000000; stroke-width: 0.8"/>
      </defs>
      <g>
       <use xlink:href="#m03bd703b18" x="40.989585" y="197.712" style="stroke: #000000; stroke-width: 0.8"/>
      </g>
     </g>
     <g id="text_11">
      <!-- $\mathdefault{10^{3}}$ -->
      <g transform="translate(20.055677 201.171249) scale(0.1 -0.1)">
       <use xlink:href="#CMR17-31" transform="scale(0.996264)"/>
       <use xlink:href="#CMR17-30" transform="translate(45.690477 0) scale(0.996264)"/>
       <use xlink:href="#CMR17-33" transform="translate(91.380954 36.153639) scale(0.697382)"/>
      </g>
     </g>
    </g>
    <g id="ytick_2">
     <g id="line2d_11">
      <g>
       <use xlink:href="#m03bd703b18" x="40.989585" y="142.988057" style="stroke: #000000; stroke-width: 0.8"/>
      </g>
     </g>
     <g id="text_12">
      <!-- $\mathdefault{10^{4}}$ -->
      <g transform="translate(20.055677 146.447306) scale(0.1 -0.1)">
       <use xlink:href="#CMR17-31" transform="scale(0.996264)"/>
       <use xlink:href="#CMR17-30" transform="translate(45.690477 0) scale(0.996264)"/>
       <use xlink:href="#CMR17-34" transform="translate(91.380954 36.153639) scale(0.697382)"/>
      </g>
     </g>
    </g>
    <g id="ytick_3">
     <g id="line2d_12">
      <g>
       <use xlink:href="#m03bd703b18" x="40.989585" y="88.264113" style="stroke: #000000; stroke-width: 0.8"/>
      </g>
     </g>
     <g id="text_13">
      <!-- $\mathdefault{10^{5}}$ -->
      <g transform="translate(20.055677 91.723362) scale(0.1 -0.1)">
       <use xlink:href="#CMR17-31" transform="scale(0.996264)"/>
       <use xlink:href="#CMR17-30" transform="translate(45.690477 0) scale(0.996264)"/>
       <use xlink:href="#CMR17-35" transform="translate(91.380954 36.153639) scale(0.697382)"/>
      </g>
     </g>
    </g>
    <g id="ytick_4">
     <g id="line2d_13">
      <g>
       <use xlink:href="#m03bd703b18" x="40.989585" y="33.54017" style="stroke: #000000; stroke-width: 0.8"/>
      </g>
     </g>
     <g id="text_14">
      <!-- $\mathdefault{10^{6}}$ -->
      <g transform="translate(20.055677 36.999419) scale(0.1 -0.1)">
       <use xlink:href="#CMR17-31" transform="scale(0.996264)"/>
       <use xlink:href="#CMR17-30" transform="translate(45.690477 0) scale(0.996264)"/>
       <use xlink:href="#CMR17-36" transform="translate(91.380954 36.153639) scale(0.697382)"/>
      </g>
     </g>
    </g>
    <g id="ytick_5">
     <g id="line2d_14">
      <defs>
       <path id="m07175106d9" d="M 0 0 
L -2 0 
" style="stroke: #000000; stroke-width: 0.6"/>
      </defs>
      <g>
       <use xlink:href="#m07175106d9" x="40.989585" y="206.188846" style="stroke: #000000; stroke-width: 0.6"/>
      </g>
     </g>
    </g>
    <g id="ytick_6">
     <g id="line2d_15">
      <g>
       <use xlink:href="#m07175106d9" x="40.989585" y="203.015298" style="stroke: #000000; stroke-width: 0.6"/>
      </g>
     </g>
    </g>
    <g id="ytick_7">
     <g id="line2d_16">
      <g>
       <use xlink:href="#m07175106d9" x="40.989585" y="200.21603" style="stroke: #000000; stroke-width: 0.6"/>
      </g>
     </g>
    </g>
    <g id="ytick_8">
     <g id="line2d_17">
      <g>
       <use xlink:href="#m07175106d9" x="40.989585" y="181.238452" style="stroke: #000000; stroke-width: 0.6"/>
      </g>
     </g>
    </g>
    <g id="ytick_9">
     <g id="line2d_18">
      <g>
       <use xlink:href="#m07175106d9" x="40.989585" y="171.602043" style="stroke: #000000; stroke-width: 0.6"/>
      </g>
     </g>
    </g>
    <g id="ytick_10">
     <g id="line2d_19">
      <g>
       <use xlink:href="#m07175106d9" x="40.989585" y="164.764903" style="stroke: #000000; stroke-width: 0.6"/>
      </g>
     </g>
    </g>
    <g id="ytick_11">
     <g id="line2d_20">
      <g>
       <use xlink:href="#m07175106d9" x="40.989585" y="159.461605" style="stroke: #000000; stroke-width: 0.6"/>
      </g>
     </g>
    </g>
    <g id="ytick_12">
     <g id="line2d_21">
      <g>
       <use xlink:href="#m07175106d9" x="40.989585" y="155.128495" style="stroke: #000000; stroke-width: 0.6"/>
      </g>
     </g>
    </g>
    <g id="ytick_13">
     <g id="line2d_22">
      <g>
       <use xlink:href="#m07175106d9" x="40.989585" y="151.464903" style="stroke: #000000; stroke-width: 0.6"/>
      </g>
     </g>
    </g>
    <g id="ytick_14">
     <g id="line2d_23">
      <g>
       <use xlink:href="#m07175106d9" x="40.989585" y="148.291355" style="stroke: #000000; stroke-width: 0.6"/>
      </g>
     </g>
    </g>
    <g id="ytick_15">
     <g id="line2d_24">
      <g>
       <use xlink:href="#m07175106d9" x="40.989585" y="145.492087" style="stroke: #000000; stroke-width: 0.6"/>
      </g>
     </g>
    </g>
    <g id="ytick_16">
     <g id="line2d_25">
      <g>
       <use xlink:href="#m07175106d9" x="40.989585" y="126.514508" style="stroke: #000000; stroke-width: 0.6"/>
      </g>
     </g>
    </g>
    <g id="ytick_17">
     <g id="line2d_26">
      <g>
       <use xlink:href="#m07175106d9" x="40.989585" y="116.8781" style="stroke: #000000; stroke-width: 0.6"/>
      </g>
     </g>
    </g>
    <g id="ytick_18">
     <g id="line2d_27">
      <g>
       <use xlink:href="#m07175106d9" x="40.989585" y="110.04096" style="stroke: #000000; stroke-width: 0.6"/>
      </g>
     </g>
    </g>
    <g id="ytick_19">
     <g id="line2d_28">
      <g>
       <use xlink:href="#m07175106d9" x="40.989585" y="104.737662" style="stroke: #000000; stroke-width: 0.6"/>
      </g>
     </g>
    </g>
    <g id="ytick_20">
     <g id="line2d_29">
      <g>
       <use xlink:href="#m07175106d9" x="40.989585" y="100.404552" style="stroke: #000000; stroke-width: 0.6"/>
      </g>
     </g>
    </g>
    <g id="ytick_21">
     <g id="line2d_30">
      <g>
       <use xlink:href="#m07175106d9" x="40.989585" y="96.740959" style="stroke: #000000; stroke-width: 0.6"/>
      </g>
     </g>
    </g>
    <g id="ytick_22">
     <g id="line2d_31">
      <g>
       <use xlink:href="#m07175106d9" x="40.989585" y="93.567411" style="stroke: #000000; stroke-width: 0.6"/>
      </g>
     </g>
    </g>
    <g id="ytick_23">
     <g id="line2d_32">
      <g>
       <use xlink:href="#m07175106d9" x="40.989585" y="90.768143" style="stroke: #000000; stroke-width: 0.6"/>
      </g>
     </g>
    </g>
    <g id="ytick_24">
     <g id="line2d_33">
      <g>
       <use xlink:href="#m07175106d9" x="40.989585" y="71.790565" style="stroke: #000000; stroke-width: 0.6"/>
      </g>
     </g>
    </g>
    <g id="ytick_25">
     <g id="line2d_34">
      <g>
       <use xlink:href="#m07175106d9" x="40.989585" y="62.154157" style="stroke: #000000; stroke-width: 0.6"/>
      </g>
     </g>
    </g>
    <g id="ytick_26">
     <g id="line2d_35">
      <g>
       <use xlink:href="#m07175106d9" x="40.989585" y="55.317016" style="stroke: #000000; stroke-width: 0.6"/>
      </g>
     </g>
    </g>
    <g id="ytick_27">
     <g id="line2d_36">
      <g>
       <use xlink:href="#m07175106d9" x="40.989585" y="50.013718" style="stroke: #000000; stroke-width: 0.6"/>
      </g>
     </g>
    </g>
    <g id="ytick_28">
     <g id="line2d_37">
      <g>
       <use xlink:href="#m07175106d9" x="40.989585" y="45.680608" style="stroke: #000000; stroke-width: 0.6"/>
      </g>
     </g>
    </g>
    <g id="ytick_29">
     <g id="line2d_38">
      <g>
       <use xlink:href="#m07175106d9" x="40.989585" y="42.017016" style="stroke: #000000; stroke-width: 0.6"/>
      </g>
     </g>
    </g>
    <g id="ytick_30">
     <g id="line2d_39">
      <g>
       <use xlink:href="#m07175106d9" x="40.989585" y="38.843468" style="stroke: #000000; stroke-width: 0.6"/>
      </g>
     </g>
    </g>
    <g id="ytick_31">
     <g id="line2d_40">
      <g>
       <use xlink:href="#m07175106d9" x="40.989585" y="36.0442" style="stroke: #000000; stroke-width: 0.6"/>
      </g>
     </g>
    </g>
    <g id="ytick_32">
     <g id="line2d_41">
      <g>
       <use xlink:href="#m07175106d9" x="40.989585" y="17.066621" style="stroke: #000000; stroke-width: 0.6"/>
      </g>
     </g>
    </g>
    <g id="ytick_33">
     <g id="line2d_42">
      <g>
       <use xlink:href="#m07175106d9" x="40.989585" y="7.430213" style="stroke: #000000; stroke-width: 0.6"/>
      </g>
     </g>
    </g>
    <g id="text_15">
     <!-- Anzahl -->
     <g transform="translate(14.118498 122.351106) rotate(-90) scale(0.1 -0.1)">
      <defs>
       <path id="CMR17-7a" d="M 2310 2604 
C 2362 2668 2362 2681 2362 2694 
C 2362 2752 2336 2752 2221 2752 
L 275 2752 
L 211 1760 
L 326 1760 
C 371 2380 442 2649 1178 2649 
L 1958 2649 
L 128 96 
C 128 6 134 0 269 0 
L 2291 0 
L 2381 1152 
L 2266 1152 
C 2214 441 2131 115 1350 115 
L 531 115 
L 2310 2604 
z
" transform="scale(0.015625)"/>
       <path id="CMR17-68" d="M 2656 1954 
C 2656 2282 2592 2816 1837 2816 
C 1312 2816 1056 2392 979 2179 
L 973 2179 
L 973 4416 
L 211 4345 
L 211 4179 
C 589 4179 646 4141 646 3843 
L 646 443 
C 646 198 621 166 211 166 
L 211 0 
C 365 12 646 12 813 12 
C 979 12 1267 12 1421 0 
L 1421 166 
C 1011 166 986 192 986 443 
L 986 1678 
C 986 2269 1344 2713 1792 2713 
C 2266 2713 2317 2289 2317 1980 
L 2317 443 
C 2317 198 2291 166 1882 166 
L 1882 0 
C 2035 12 2317 12 2483 12 
C 2650 12 2938 12 3091 0 
L 3091 166 
C 2682 166 2656 192 2656 443 
L 2656 1954 
z
" transform="scale(0.015625)"/>
       <path id="CMR17-6c" d="M 979 4416 
L 218 4345 
L 218 4179 
C 595 4179 653 4141 653 3835 
L 653 439 
C 653 198 627 166 218 166 
L 218 0 
C 371 12 653 12 813 12 
C 979 12 1261 12 1414 0 
L 1414 166 
C 1005 166 979 191 979 439 
L 979 4416 
z
" transform="scale(0.015625)"/>
      </defs>
      <use xlink:href="#CMR17-41" transform="scale(0.996264)"/>
      <use xlink:href="#CMR17-6e" transform="translate(69.07243 0) scale(0.996264)"/>
      <use xlink:href="#CMR17-7a" transform="translate(119.9678 0) scale(0.996264)"/>
      <use xlink:href="#CMR17-61" transform="translate(160.45346 0) scale(0.996264)"/>
      <use xlink:href="#CMR17-68" transform="translate(206.143937 0) scale(0.996264)"/>
      <use xlink:href="#CMR17-6c" transform="translate(257.039307 0) scale(0.996264)"/>
     </g>
    </g>
   </g>
   <g id="patch_103">
    <path d="M 40.989585 206.784 
L 40.989585 7.2 
" style="fill: none; stroke: #000000; stroke-width: 0.8; stroke-linejoin: miter; stroke-linecap: square"/>
   </g>
   <g id="patch_104">
    <path d="M 398.109585 206.784 
L 398.109585 7.2 
" style="fill: none; stroke: #000000; stroke-width: 0.8; stroke-linejoin: miter; stroke-linecap: square"/>
   </g>
   <g id="patch_105">
    <path d="M 40.989585 206.784 
L 398.109585 206.784 
" style="fill: none; stroke: #000000; stroke-width: 0.8; stroke-linejoin: miter; stroke-linecap: square"/>
   </g>
   <g id="patch_106">
    <path d="M 40.989585 7.2 
L 398.109585 7.2 
" style="fill: none; stroke: #000000; stroke-width: 0.8; stroke-linejoin: miter; stroke-linecap: square"/>
   </g>
   <g id="legend_1"/>
  </g>
 </g>
 <defs>
  <clipPath id="pf952d58d06">
   <rect x="40.989585" y="7.2" width="357.12" height="199.584"/>
  </clipPath>
 </defs>
</svg>
