<svg width="791" height="968" xmlns="http://www.w3.org/2000/svg" xmlns:xlink="http://www.w3.org/1999/xlink" xml:space="preserve" overflow="hidden"><g transform="translate(-1766 -670)"><text font-family="Cambria Math,Cambria Math_MSFontService,sans-serif" font-weight="400" font-size="82" transform="matrix(1 0 0 1 1965.86 1540)">ğ’¢</text><text font-family="CMU Serif,CMU Serif_MSFontService,sans-serif" font-weight="500" font-size="82" transform="matrix(1 0 0 1 2013.41 1540)">(x)</text><path d="M2164.94 1438.5 2164.94 1586.97 2158.06 1586.97 2158.06 1438.5ZM2175.25 1582.39 2161.5 1609.89 2147.75 1582.39Z"/><text font-family="CMU Serif,CMU Serif_MSFontService,sans-serif" font-weight="500" font-size="82" transform="matrix(1 0 0 1 2073.15 784)">x</text><path d="M1768.5 1072.1C1768.5 1066.25 1773.25 1061.5 1779.1 1061.5L2543.9 1061.5C2549.75 1061.5 2554.5 1066.25 2554.5 1072.1L2554.5 1209.9C2554.5 1215.75 2549.75 1220.5 2543.9 1220.5L1779.1 1220.5C1773.25 1220.5 1768.5 1215.75 1768.5 1209.9Z" stroke="#000000" stroke-width="4.58333" stroke-miterlimit="8" fill="#FFFFFF" fill-rule="evenodd"/><text font-family="CMU Serif,CMU Serif_MSFontService,sans-serif" font-weight="500" font-size="83" transform="matrix(1 0 0 1 1937.6 1169)">B</text><text font-family="CMU Serif,CMU Serif_MSFontService,sans-serif" font-weight="500" font-size="83" transform="matrix(1 0 0 1 1996.04 1169)">atch</text><text font-family="CMU Serif,CMU Serif_MSFontService,sans-serif" font-weight="500" font-size="83" transform="matrix(1 0 0 1 2151.87 1169)"> </text><text font-family="CMU Serif,CMU Serif_MSFontService,sans-serif" font-weight="500" font-size="83" transform="matrix(1 0 0 1 2179.37 1169)">Nor</text><text font-family="CMU Serif,CMU Serif_MSFontService,sans-serif" font-weight="500" font-size="83" transform="matrix(1 0 0 1 2315.15 1169)">m</text><path d="M1768.5 1289.17C1768.5 1283.28 1773.28 1278.5 1779.17 1278.5L2543.83 1278.5C2549.72 1278.5 2554.5 1283.28 2554.5 1289.17L2554.5 1427.83C2554.5 1433.72 2549.72 1438.5 2543.83 1438.5L1779.17 1438.5C1773.28 1438.5 1768.5 1433.72 1768.5 1427.83Z" stroke="#000000" stroke-width="4.58333" stroke-miterlimit="8" fill="#FFFFFF" fill-rule="evenodd"/><text font-family="CMU Serif,CMU Serif_MSFontService,sans-serif" font-weight="500" font-size="83" transform="matrix(1 0 0 1 2055.33 1386)">ReLU</text><path d="M3.4375-2.13014e-05 3.43772 35.322-3.43728 35.322-3.4375 2.13014e-05ZM13.7502 30.7386 0.000360892 58.2386-13.7498 30.7387Z" transform="matrix(-1 0 0 1 2161.5 1220.5)"/><path d="M2422.5 1383.5 2464.72 1383.5" stroke="#7F7F7F" stroke-width="6.875" stroke-miterlimit="8" fill="none" fill-rule="evenodd"/><path d="M0 0 58.2217 58.2217" stroke="#7F7F7F" stroke-width="6.875" stroke-miterlimit="8" fill="none" fill-rule="evenodd" transform="matrix(-1 0 0 1 2521.72 1325.5)"/><path d="M1768.5 854.1C1768.5 848.246 1773.25 843.5 1779.1 843.5L2543.9 843.5C2549.75 843.5 2554.5 848.246 2554.5 854.1L2554.5 991.899C2554.5 997.754 2549.75 1002.5 2543.9 1002.5L1779.1 1002.5C1773.25 1002.5 1768.5 997.754 1768.5 991.899Z" stroke="#000000" stroke-width="4.58333" stroke-miterlimit="8" fill="#FFFFFF" fill-rule="evenodd"/><text font-family="CMU Serif,CMU Serif_MSFontService,sans-serif" font-weight="500" font-size="83" transform="matrix(1 0 0 1 1905.52 951)">Conv</text><text font-family="CMU Serif,CMU Serif_MSFontService,sans-serif" font-weight="500" font-size="83" transform="matrix(1 0 0 1 2095.72 951)">2</text><text font-family="CMU Serif,CMU Serif_MSFontService,sans-serif" font-weight="500" font-size="83" transform="matrix(1 0 0 1 2136.97 951)">d Layer</text><path d="M2164.94 1002.5 2164.94 1038.36 2158.06 1038.36 2158.06 1002.5ZM2175.25 1033.78 2161.5 1061.28 2147.75 1033.78Z"/><path d="M2164.94 670.5 2164.94 820.845 2158.06 820.845 2158.06 670.5ZM2175.25 816.262 2161.5 843.762 2147.75 816.262Z"/></g></svg>