<svg width="1631" height="1289" xmlns="http://www.w3.org/2000/svg" xmlns:xlink="http://www.w3.org/1999/xlink" xml:space="preserve" overflow="hidden"><g transform="translate(-692 -324)"><path d="M1187.5 1459C1187.5 1405.7 1230.7 1362.5 1284 1362.5 1337.3 1362.5 1380.5 1405.7 1380.5 1459 1380.5 1512.3 1337.3 1555.5 1284 1555.5 1230.7 1555.5 1187.5 1512.3 1187.5 1459Z" stroke="#000000" stroke-width="11.4583" stroke-miterlimit="8" fill-rule="evenodd"/><text fill="#FFFFFF" font-family="CMU Serif,CMU Serif_MSFontService,sans-serif" font-weight="500" font-size="128" transform="matrix(1 0 0 1 1240.22 1492)">E</text><path d="M2084.5 1459C2084.5 1405.7 2127.7 1362.5 2181 1362.5 2234.3 1362.5 2277.5 1405.7 2277.5 1459 2277.5 1512.3 2234.3 1555.5 2181 1555.5 2127.7 1555.5 2084.5 1512.3 2084.5 1459Z" stroke="#000000" stroke-width="11.4583" stroke-miterlimit="8" fill-rule="evenodd"/><text fill="#FFFFFF" font-family="CMU Serif,CMU Serif_MSFontService,sans-serif" font-weight="500" font-size="128" transform="matrix(1 0 0 1 2129.74 1492)">G</text><path d="M1660.5 1459C1660.5 1405.7 1703.7 1362.5 1757 1362.5 1810.3 1362.5 1853.5 1405.7 1853.5 1459 1853.5 1512.3 1810.3 1555.5 1757 1555.5 1703.7 1555.5 1660.5 1512.3 1660.5 1459Z" stroke="#000000" stroke-width="11.4583" stroke-miterlimit="8" fill-rule="evenodd"/><text fill="#FFFFFF" font-family="CMU Serif,CMU Serif_MSFontService,sans-serif" font-weight="500" font-size="128" transform="matrix(1 0 0 1 1714.67 1492)">F</text><path d="M749.5 1459C749.5 1405.7 792.928 1362.5 846.5 1362.5 900.072 1362.5 943.5 1405.7 943.5 1459 943.5 1512.3 900.072 1555.5 846.5 1555.5 792.928 1555.5 749.5 1512.3 749.5 1459Z" stroke="#000000" stroke-width="11.4583" stroke-miterlimit="8" fill-rule="evenodd"/><text fill="#FFFFFF" font-family="CMU Serif,CMU Serif_MSFontService,sans-serif" font-weight="500" font-size="128" transform="matrix(1 0 0 1 796.982 1492)">D</text><path d="M1266.23 1339.71 1109.36 1020.02 1119.64 1014.98 1276.51 1334.66ZM1284.28 1324.47 1283.99 1362.9 1253.42 1339.61Z"/><path d="M15.564 24.7221 137.132 343.36 126.426 347.445 4.85837 28.8065ZM-3.80513 38.2436 0 0 28.3118 25.9903Z" transform="matrix(1 0 0 -1 846.5 1362.9)"/><path d="M15.564 24.7221 137.132 343.36 126.426 347.445 4.85837 28.8065ZM-3.80513 38.2436 0 0 28.3118 25.9903Z" transform="matrix(1 0 0 -1 1756.5 1362.9)"/><path d="M2163.87 1339.13 2020.27 1019.85 2030.72 1015.15 2174.32 1334.43ZM2182.42 1324.5 2180.85 1362.9 2151.07 1338.6Z"/><path d="M1860.5 949C1860.5 895.704 1903.7 852.5 1957 852.5 2010.3 852.5 2053.5 895.704 2053.5 949 2053.5 1002.3 2010.3 1045.5 1957 1045.5 1903.7 1045.5 1860.5 1002.3 1860.5 949Z" stroke="#000000" stroke-width="11.4583" stroke-miterlimit="8" fill="#F7CDCC" fill-rule="evenodd"/><text font-family="CMU Serif,CMU Serif_MSFontService,sans-serif" font-weight="500" font-size="128" transform="matrix(1 0 0 1 1910.42 982)">C</text><path d="M949.5 949C949.5 895.704 992.928 852.5 1046.5 852.5 1100.07 852.5 1143.5 895.704 1143.5 949 1143.5 1002.3 1100.07 1045.5 1046.5 1045.5 992.928 1045.5 949.5 1002.3 949.5 949Z" stroke="#000000" stroke-width="11.4583" stroke-miterlimit="8" fill="#F7CDCC" fill-rule="evenodd"/><text font-family="CMU Serif,CMU Serif_MSFontService,sans-serif" font-weight="500" font-size="128" transform="matrix(1 0 0 1 1000.75 982)">B</text><path d="M25.2256 14.7335 390.804 339.285 383.197 347.854 17.6184 23.3023ZM14.2957 35.6747 0 0 37.1172 9.96828Z" transform="matrix(1 0 0 -1 1046.5 853.069)"/><path d="M1932.27 838.336 1566.7 513.784 1574.3 505.216 1939.88 829.767ZM1943.2 817.394 1957.5 853.069 1920.38 843.101Z"/><path d="M1405.5 441C1405.5 387.704 1448.7 344.5 1502 344.5 1555.3 344.5 1598.5 387.704 1598.5 441 1598.5 494.296 1555.3 537.5 1502 537.5 1448.7 537.5 1405.5 494.296 1405.5 441Z" stroke="#000000" stroke-width="11.4583" stroke-miterlimit="8" fill="#97D0FF" fill-rule="evenodd"/><text font-family="CMU Serif,CMU Serif_MSFontService,sans-serif" font-weight="500" font-size="128" transform="matrix(1 0 0 1 1453.15 473)">A</text><text font-family="Cambria Math,Cambria Math_MSFontService,sans-serif" font-weight="400" font-size="110" transform="matrix(1 0 0 1 1124.03 672)">𝒜</text><text font-family="Times New Roman,Times New Roman_MSFontService,sans-serif" font-weight="400" font-size="110" transform="matrix(1 0 0 1 1780.02 671)">ℬ</text><text font-family="Cambria Math,Cambria Math_MSFontService,sans-serif" font-weight="400" font-size="110" transform="matrix(1 0 0 1 767.566 1204)">𝒜</text><text font-family="Times New Roman,Times New Roman_MSFontService,sans-serif" font-weight="400" font-size="110" transform="matrix(1 0 0 1 1238.37 1206)">ℬ</text><text font-family="Cambria Math,Cambria Math_MSFontService,sans-serif" font-weight="400" font-size="110" transform="matrix(1 0 0 1 1683.53 1217)">𝒜</text><text font-family="Times New Roman,Times New Roman_MSFontService,sans-serif" font-weight="400" font-size="110" transform="matrix(1 0 0 1 2154.33 1219)">ℬ</text></g></svg>