<svg width="1508" height="1362" xmlns="http://www.w3.org/2000/svg" xmlns:xlink="http://www.w3.org/1999/xlink" xml:space="preserve" overflow="hidden"><g transform="translate(-573 -446)"><path d="M830.5 548C830.5 494.704 873.704 451.5 927 451.5 980.295 451.5 1023.5 494.704 1023.5 548 1023.5 601.295 980.295 644.5 927 644.5 873.704 644.5 830.5 601.295 830.5 548Z" stroke="#000000" stroke-width="11.4583" stroke-miterlimit="8" fill="#FFFFFF" fill-rule="evenodd"/><path d="M1216.5 741C1216.5 687.705 1259.7 644.5 1313 644.5 1366.3 644.5 1409.5 687.705 1409.5 741 1409.5 794.295 1366.3 837.5 1313 837.5 1259.7 837.5 1216.5 794.295 1216.5 741Z" stroke="#000000" stroke-width="11.4583" stroke-miterlimit="8" fill="#FFFFFF" fill-rule="evenodd"/><path d="M830.5 934C830.5 880.704 873.704 837.5 927 837.5 980.295 837.5 1023.5 880.704 1023.5 934 1023.5 987.296 980.295 1030.5 927 1030.5 873.704 1030.5 830.5 987.296 830.5 934Z" stroke="#000000" stroke-width="11.4583" stroke-miterlimit="8" fill="#FFFFFF" fill-rule="evenodd"/><path d="M1602.5 934C1602.5 880.704 1645.7 837.5 1699 837.5 1752.3 837.5 1795.5 880.704 1795.5 934 1795.5 987.296 1752.3 1030.5 1699 1030.5 1645.7 1030.5 1602.5 987.296 1602.5 934Z" stroke="#000000" stroke-width="11.4583" stroke-miterlimit="8" fill="#FFFFFF" fill-rule="evenodd"/><path d="M1216.5 1127C1216.5 1073.7 1259.7 1030.5 1313 1030.5 1366.3 1030.5 1409.5 1073.7 1409.5 1127 1409.5 1180.3 1366.3 1223.5 1313 1223.5 1259.7 1223.5 1216.5 1180.3 1216.5 1127Z" stroke="#000000" stroke-width="11.4583" stroke-miterlimit="8" fill="#FFFFFF" fill-rule="evenodd"/><path d="M830.5 1320C830.5 1266.7 873.704 1223.5 927 1223.5 980.295 1223.5 1023.5 1266.7 1023.5 1320 1023.5 1373.3 980.295 1416.5 927 1416.5 873.704 1416.5 830.5 1373.3 830.5 1320Z" stroke="#000000" stroke-width="11.4583" stroke-miterlimit="8" fill="#FFFFFF" fill-rule="evenodd"/><path d="M1602.5 1320C1602.5 1266.7 1645.7 1223.5 1699 1223.5 1752.3 1223.5 1795.5 1266.7 1795.5 1320 1795.5 1373.3 1752.3 1416.5 1699 1416.5 1645.7 1416.5 1602.5 1373.3 1602.5 1320Z" stroke="#000000" stroke-width="11.4583" stroke-miterlimit="8" fill="#FFFFFF" fill-rule="evenodd"/><path d="M1216.5 1513C1216.5 1459.7 1259.7 1416.5 1313 1416.5 1366.3 1416.5 1409.5 1459.7 1409.5 1513 1409.5 1566.3 1366.3 1609.5 1313 1609.5 1259.7 1609.5 1216.5 1566.3 1216.5 1513Z" stroke="#000000" stroke-width="11.4583" stroke-miterlimit="8" fill="#FFFFFF" fill-rule="evenodd"/><path d="M830.5 1706C830.5 1652.7 873.704 1609.5 927 1609.5 980.295 1609.5 1023.5 1652.7 1023.5 1706 1023.5 1759.3 980.295 1802.5 927 1802.5 873.704 1802.5 830.5 1759.3 830.5 1706Z" stroke="#000000" stroke-width="11.4583" stroke-miterlimit="8" fill="#FFFFFF" fill-rule="evenodd"/><path d="M28.6459-5.72913 251.559-5.72881 251.559 5.72953 28.6458 5.72921ZM34.375 17.1875 0 0 34.375-17.1875Z" transform="matrix(-1 0 0 1 830.059 547.5)"/><path d="M1205.35 1485.95 1017.88 548.624 1029.12 546.377 1216.58 1483.71ZM1226.7 1475.84 1216.58 1512.92 1192.99 1482.58Z"/><path d="M1202.09 1101.39 1018.06 549.312 1028.93 545.688 1212.96 1097.76ZM1222.02 1088.71 1216.58 1126.75 1189.41 1099.58Z"/><path d="M1192.28 724.38 1019.45 551.551 1027.55 543.449 1200.38 716.277ZM1204.43 704.124 1216.58 740.584 1180.12 728.431Z"/><path d="M24.3067 16.2044 197.135 189.033 189.033 197.135 16.2044 24.3067ZM12.1534 36.4602 0 0 36.4602 12.1534Z" transform="matrix(-1 0 0 1 1216.58 740.5)"/><path d="M11.2359 26.9664 198.702 964.296 187.466 966.543 7.50684e-05 29.2136ZM-10.1123 37.0782 0 0 23.5952 30.3367Z" transform="matrix(-1 0 0 1 1216.58 740.5)"/><path d="M24.3067 16.2044 197.135 189.033 189.033 197.135 16.2044 24.3067ZM12.1534 36.4602 0 0 36.4602 12.1534Z" transform="matrix(-1 0 0 1 1216.58 1127.5)"/><path d="M24.3067 16.2044 197.135 189.033 189.033 197.135 16.2044 24.3067ZM12.1534 36.4602 0 0 36.4602 12.1534Z" transform="matrix(-1 0 0 1 1216.58 1513.5)"/><path d="M28.6459-5.72913 251.559-5.72881 251.559 5.72953 28.6458 5.72921ZM34.375 17.1875 0 0 34.375-17.1875Z" transform="matrix(-1 0 0 1 830.059 933.5)"/><path d="M28.6459-5.72913 251.559-5.72881 251.559 5.72953 28.6458 5.72921ZM34.375 17.1875 0 0 34.375-17.1875Z" transform="matrix(-1 0 0 1 830.059 1320.5)"/><path d="M28.6459-5.72913 251.559-5.72881 251.559 5.72953 28.6458 5.72921ZM34.375 17.1875 0 0 34.375-17.1875Z" transform="matrix(-1 0 0 1 830.059 1706.5)"/><path d="M28.6459-5.72913 251.559-5.72881 251.559 5.72953 28.6458 5.72921ZM34.375 17.1875 0 0 34.375-17.1875Z" transform="matrix(-1 0 0 1 2047.06 933.5)"/><path d="M28.6459-5.72913 251.559-5.72881 251.559 5.72953 28.6458 5.72921ZM34.375 17.1875 0 0 34.375-17.1875Z" transform="matrix(-1 0 0 1 2047.06 1320.5)"/><path d="M14.4936 25.3637 198.519 577.44 187.649 581.063 3.62331 28.9871ZM-5.43516 38.0462 0 0 27.1758 27.1758Z" transform="matrix(-1 0 0 1 1602.58 933.5)"/><path d="M1578.28 1304.38 1405.45 1131.55 1413.55 1123.45 1586.38 1296.28ZM1590.43 1284.12 1602.58 1320.58 1566.12 1308.43Z"/><path d="M1578.28 917.379 1405.45 744.551 1413.55 736.449 1586.38 909.277ZM1590.43 897.124 1602.58 933.584 1566.12 921.43Z"/><path d="M24.3067 16.2044 197.135 189.033 189.033 197.135 16.2044 24.3067ZM12.1534 36.4602 0 0 36.4602 12.1534Z" transform="matrix(-1 0 0 1 1602.58 1320.5)"/></g></svg>