<svg width="2997" height="2559" xmlns="http://www.w3.org/2000/svg" xmlns:xlink="http://www.w3.org/1999/xlink" xml:space="preserve" overflow="hidden"><g transform="translate(-674 -20)"><path d="M5.72917-9.41564e-07 5.72952 2167.29-5.72881 2167.29-5.72917 9.41564e-07ZM17.1879 2161.56 0.000360892 2195.93-17.1871 2161.56Z" transform="matrix(1 0 0 -1 965.5 2308.43)"/><path d="M961.5 2300.77 3231.1 2300.77 3231.1 2312.23 961.5 2312.23ZM3225.37 2289.31 3259.75 2306.5 3225.37 2323.69Z"/><text font-family="CMU Serif,CMU Serif_MSFontService,sans-serif" font-weight="500" font-size="128" transform="matrix(1 0 0 1 847.229 2316)">1</text><text font-family="CMU Serif,CMU Serif_MSFontService,sans-serif" font-weight="500" font-size="128" transform="matrix(1 0 0 1 751.377 1675)">1,5</text><text font-family="CMU Serif,CMU Serif_MSFontService,sans-serif" font-weight="500" font-size="128" transform="matrix(1 0 0 1 844.51 1181)">2</text><text font-family="CMU Serif,CMU Serif_MSFontService,sans-serif" font-weight="500" font-size="128" transform="matrix(1 0 0 1 754.839 687)">2,5</text><text font-family="CMU Serif,CMU Serif_MSFontService,sans-serif" font-weight="500" font-size="128" transform="matrix(1 0 0 1 856.525 202)">3</text><path d="M926.5 2278.5 966.997 2278.5" stroke="#000000" stroke-width="11.4583" stroke-miterlimit="8" fill="none" fill-rule="evenodd"/><path d="M926.5 1639.5 966.997 1639.5" stroke="#000000" stroke-width="11.4583" stroke-miterlimit="8" fill="none" fill-rule="evenodd"/><path d="M926.5 1144.5 966.997 1144.5" stroke="#000000" stroke-width="11.4583" stroke-miterlimit="8" fill="none" fill-rule="evenodd"/><path d="M926.5 649.5 966.997 649.5" stroke="#000000" stroke-width="11.4583" stroke-miterlimit="8" fill="none" fill-rule="evenodd"/><path d="M926.5 156.5 966.997 156.5" stroke="#000000" stroke-width="11.4583" stroke-miterlimit="8" fill="none" fill-rule="evenodd"/><text font-family="CMU Serif,CMU Serif_MSFontService,sans-serif" font-weight="500" font-size="92" transform="matrix(1 0 0 1 1252.07 127)">log </text><text font-family="CMU Serif,CMU Serif_MSFontService,sans-serif" font-weight="500" font-size="92" transform="matrix(1 0 0 1 1398.16 127)">log</text><text font-family="CMU Serif,CMU Serif_MSFontService,sans-serif" font-weight="500" font-size="92" transform="matrix(1 0 0 1 1081.34 237)">Zustandsraum</text><text font-family="CMU Serif,CMU Serif_MSFontService,sans-serif" font-weight="500" font-size="92" transform="matrix(1 0 0 1 1654.26 237)">-</text><text font-family="CMU Serif,CMU Serif_MSFontService,sans-serif" font-weight="500" font-size="92" transform="matrix(1 0 0 1 1132.63 347)">Komplexität</text><text font-family="CMU Serif,CMU Serif_MSFontService,sans-serif" font-weight="500" font-size="92" transform="matrix(1 0 0 1 3076.7 2010)">log </text><text font-family="CMU Serif,CMU Serif_MSFontService,sans-serif" font-weight="500" font-size="92" transform="matrix(1 0 0 1 3222.8 2010)">log</text><text font-family="CMU Serif,CMU Serif_MSFontService,sans-serif" font-weight="500" font-size="92" transform="matrix(1 0 0 1 2983.62 2120)">Spielbaum</text><text font-family="CMU Serif,CMU Serif_MSFontService,sans-serif" font-weight="500" font-size="92" transform="matrix(1 0 0 1 3401.27 2120)">-</text><text font-family="CMU Serif,CMU Serif_MSFontService,sans-serif" font-weight="500" font-size="92" transform="matrix(1 0 0 1 2957.26 2230)">Komplexität</text><text font-family="CMU Serif,CMU Serif_MSFontService,sans-serif" font-weight="500" font-size="128" transform="matrix(1 0 0 1 1535.18 2457)">1,5</text><text font-family="CMU Serif,CMU Serif_MSFontService,sans-serif" font-weight="500" font-size="128" transform="matrix(1 0 0 1 2357.44 2457)">2</text><text font-family="CMU Serif,CMU Serif_MSFontService,sans-serif" font-weight="500" font-size="128" transform="matrix(1 0 0 1 3082.92 2457)">2,5</text><path d="M1625.5 2306.5 1625.5 2347" stroke="#000000" stroke-width="11.4583" stroke-miterlimit="8" fill="none" fill-rule="evenodd"/><path d="M2390.5 2306.5 2390.5 2347" stroke="#000000" stroke-width="11.4583" stroke-miterlimit="8" fill="none" fill-rule="evenodd"/><path d="M3156.5 2306.5 3156.5 2347" stroke="#000000" stroke-width="11.4583" stroke-miterlimit="8" fill="none" fill-rule="evenodd"/><text fill="#A25140" font-family="CMU Serif,CMU Serif_MSFontService,sans-serif" font-weight="500" font-size="92" transform="matrix(1 0 0 1 1643.76 1461)">Patchwork</text><g><g><g><path d="M91.2186 23.0781 81.9218 13.7812 52.4999 43.2031 23.0781 13.7812 13.7812 23.0781 43.2031 52.4999 13.7812 81.9218 23.0781 91.2186 52.4999 61.7968 81.9218 91.2186 91.2186 81.9218 61.7968 52.4999Z" fill="#A25140" transform="matrix(1 0 0 1 2074 1387)"/></g></g></g><g><g><g><path d="M91.2186 23.0781 81.9218 13.7812 52.4999 43.2031 23.0781 13.7812 13.7812 23.0781 43.2031 52.4999 13.7812 81.9218 23.0781 91.2186 52.4999 61.7968 81.9218 91.2186 91.2186 81.9218 61.7968 52.4999Z" transform="matrix(1 0 0 1 2238 1494)"/></g></g></g><text font-family="CMU Serif,CMU Serif_MSFontService,sans-serif" font-weight="500" font-size="92" transform="matrix(1 0 0 1 2258.51 1685)">Schach</text><g><g><g><path d="M2438.35 1490.86 2429.14 1481.65 2400 1510.79 2370.86 1481.65 2361.65 1490.86 2390.79 1520 2361.65 1549.14 2370.86 1558.35 2400 1529.21 2429.14 1558.35 2438.35 1549.14 2409.21 1520Z" fill="#FA0000"/></g></g></g><text fill="#FA0000" font-family="CMU Serif,CMU Serif_MSFontService,sans-serif" font-weight="500" font-size="92" transform="matrix(1 0 0 1 2457.81 1544)">Chinesisches Schach</text><g><g><g><path d="M90.3498 22.8583 81.1415 13.65 51.9999 42.7916 22.8583 13.65 13.65 22.8583 42.7916 51.9999 13.65 81.1415 22.8583 90.3498 51.9999 61.2082 81.1415 90.3498 90.3498 81.1415 61.2082 51.9999Z" fill="#2F5597" transform="matrix(1 0 0 1.00962 2115 1408)"/></g></g></g><text fill="#2F5597" font-family="CMU Serif,CMU Serif_MSFontService,sans-serif" font-weight="500" font-size="92" transform="matrix(1 0 0 1 2179.62 1415)">Hex</text><text fill="#548235" font-family="CMU Serif,CMU Serif_MSFontService,sans-serif" font-weight="500" font-size="92" transform="matrix(1 0 0 1 2627.11 1356)">Shogi</text><g><g><g><path d="M2585.35 1294.86 2576.14 1285.65 2547 1314.79 2517.86 1285.65 2508.65 1294.86 2537.79 1324 2508.65 1353.14 2517.86 1362.35 2547 1333.21 2576.14 1362.35 2585.35 1353.14 2556.21 1324Z" fill="#548235"/></g></g></g><g><g><g><path d="M91.2186 23.0781 81.9218 13.7812 52.4999 43.2031 23.0781 13.7812 13.7812 23.0781 43.2031 52.4999 13.7812 81.9218 23.0781 91.2186 52.4999 61.7968 81.9218 91.2186 91.2186 81.9218 61.7968 52.4999Z" fill="#BF9000" transform="matrix(1 0 0 1 2744 832)"/></g></g></g><text fill="#BF9000" font-family="CMU Serif,CMU Serif_MSFontService,sans-serif" font-weight="500" font-size="92" transform="matrix(1 0 0 1 2869.14 908)">Go (19</text><text fill="#BF9000" font-family="Cambria,Cambria_MSFontService,sans-serif" font-weight="400" font-size="92" transform="matrix(1 0 0 1 3143.57 908)">×</text><text fill="#BF9000" font-family="CMU Serif,CMU Serif_MSFontService,sans-serif" font-weight="500" font-size="92" transform="matrix(1 0 0 1 3194.56 908)">19)</text><g><g><g><path d="M91.2186 23.0781 81.9218 13.7812 52.4999 43.2031 23.0781 13.7812 13.7812 23.0781 43.2031 52.4999 13.7812 81.9218 23.0781 91.2186 52.4999 61.7968 81.9218 91.2186 91.2186 81.9218 61.7968 52.4999Z" fill="#7030A0" transform="matrix(1 0 0 1 1905 1077)"/></g></g></g><text fill="#7030A0" font-family="CMU Serif,CMU Serif_MSFontService,sans-serif" font-weight="500" font-size="92" transform="matrix(1 0 0 1 1202.59 1154)">Go</text><text fill="#7030A0" font-family="CMU Serif,CMU Serif_MSFontService,sans-serif" font-weight="500" font-size="92" transform="matrix(1 0 0 1 1320.04 1154)">-</text><text fill="#7030A0" font-family="CMU Serif,CMU Serif_MSFontService,sans-serif" font-weight="500" font-size="92" transform="matrix(1 0 0 1 1350.4 1154)">Moku</text><text fill="#7030A0" font-family="CMU Serif,CMU Serif_MSFontService,sans-serif" font-weight="500" font-size="92" transform="matrix(1 0 0 1 1609.93 1154)">(15</text><text fill="#7030A0" font-family="Cambria,Cambria_MSFontService,sans-serif" font-weight="400" font-size="92" transform="matrix(1 0 0 1 1736.55 1154)">×</text><text fill="#7030A0" font-family="CMU Serif,CMU Serif_MSFontService,sans-serif" font-weight="500" font-size="92" transform="matrix(1 0 0 1 1787.54 1154)">15)</text><g><g><g><path d="M1369.22 2107.08 1359.92 2097.78 1330.5 2127.2 1301.08 2097.78 1291.78 2107.08 1321.2 2136.5 1291.78 2165.92 1301.08 2175.22 1330.5 2145.8 1359.92 2175.22 1369.22 2165.92 1339.8 2136.5Z" fill="#279F46"/></g></g></g><text fill="#548235" font-family="CMU Serif,CMU Serif_MSFontService,sans-serif" font-weight="500" font-size="92" transform="matrix(1 0 0 1 988.242 2046)">Vier gewinnt</text><g><g><g><path d="M1592.22 2201.08 1582.92 2191.78 1553.5 2221.2 1524.08 2191.78 1514.78 2201.08 1544.2 2230.5 1514.78 2259.92 1524.08 2269.22 1553.5 2239.8 1582.92 2269.22 1592.22 2259.92 1562.8 2230.5Z" fill="#0099FF"/></g></g></g><text fill="#0099FF" font-family="CMU Serif,CMU Serif_MSFontService,sans-serif" font-weight="500" font-size="92" transform="matrix(1 0 0 1 1638.11 2218)">Awari</text><g><g><g><path d="M1564.35 1835.86 1555.14 1826.65 1526 1855.79 1496.86 1826.65 1487.65 1835.86 1516.79 1865 1487.65 1894.14 1496.86 1903.35 1526 1874.21 1555.14 1903.35 1564.35 1894.14 1535.21 1865Z" fill="#C00000"/></g></g></g><text fill="#C00000" font-family="CMU Serif,CMU Serif_MSFontService,sans-serif" font-weight="500" font-size="92" transform="matrix(1 0 0 1 1592.52 1920)">Dame</text><text fill="#2F5597" font-family="CMU Serif,CMU Serif_MSFontService,sans-serif" font-weight="500" font-size="92" transform="matrix(1 0 0 1 1496.5 1739)">Othello</text><g><g><g><path d="M91.2186 23.0781 81.9218 13.7812 52.4999 43.2031 23.0781 13.7812 13.7812 23.0781 43.2031 52.4999 13.7812 81.9218 23.0781 91.2186 52.4999 61.7968 81.9218 91.2186 91.2186 81.9218 61.7968 52.4999Z" fill="#2F5597" transform="matrix(1 0 0 1 1808 1756)"/></g></g></g></g></svg>