<svg width="1499" height="1362" xmlns="http://www.w3.org/2000/svg" xmlns:xlink="http://www.w3.org/1999/xlink" xml:space="preserve" overflow="hidden"><g transform="translate(-2513 -446)"><path d="M3533.5 548C3533.5 494.704 3576.7 451.5 3630 451.5 3683.3 451.5 3726.5 494.704 3726.5 548 3726.5 601.295 3683.3 644.5 3630 644.5 3576.7 644.5 3533.5 601.295 3533.5 548Z" stroke="#000000" stroke-width="11.4583" stroke-miterlimit="8" fill="#FFFFFF" fill-rule="evenodd"/><path d="M3147.5 741C3147.5 687.705 3190.7 644.5 3244 644.5 3297.3 644.5 3340.5 687.705 3340.5 741 3340.5 794.295 3297.3 837.5 3244 837.5 3190.7 837.5 3147.5 794.295 3147.5 741Z" stroke="#000000" stroke-width="11.4583" stroke-miterlimit="8" fill="#FFFFFF" fill-rule="evenodd"/><path d="M2761.5 934C2761.5 880.704 2804.7 837.5 2858 837.5 2911.3 837.5 2954.5 880.704 2954.5 934 2954.5 987.296 2911.3 1030.5 2858 1030.5 2804.7 1030.5 2761.5 987.296 2761.5 934Z" stroke="#000000" stroke-width="11.4583" stroke-miterlimit="8" fill="#FFFFFF" fill-rule="evenodd"/><path d="M3533.5 934C3533.5 880.704 3576.7 837.5 3630 837.5 3683.3 837.5 3726.5 880.704 3726.5 934 3726.5 987.296 3683.3 1030.5 3630 1030.5 3576.7 1030.5 3533.5 987.296 3533.5 934Z" stroke="#000000" stroke-width="11.4583" stroke-miterlimit="8" fill="#FFFFFF" fill-rule="evenodd"/><path d="M3147.5 1127C3147.5 1073.7 3190.7 1030.5 3244 1030.5 3297.3 1030.5 3340.5 1073.7 3340.5 1127 3340.5 1180.3 3297.3 1223.5 3244 1223.5 3190.7 1223.5 3147.5 1180.3 3147.5 1127Z" stroke="#000000" stroke-width="11.4583" stroke-miterlimit="8" fill="#FFFFFF" fill-rule="evenodd"/><path d="M2761.5 1320C2761.5 1266.7 2804.7 1223.5 2858 1223.5 2911.3 1223.5 2954.5 1266.7 2954.5 1320 2954.5 1373.3 2911.3 1416.5 2858 1416.5 2804.7 1416.5 2761.5 1373.3 2761.5 1320Z" stroke="#000000" stroke-width="11.4583" stroke-miterlimit="8" fill="#FFFFFF" fill-rule="evenodd"/><path d="M3533.5 1320C3533.5 1266.7 3576.7 1223.5 3630 1223.5 3683.3 1223.5 3726.5 1266.7 3726.5 1320 3726.5 1373.3 3683.3 1416.5 3630 1416.5 3576.7 1416.5 3533.5 1373.3 3533.5 1320Z" stroke="#000000" stroke-width="11.4583" stroke-miterlimit="8" fill="#FFFFFF" fill-rule="evenodd"/><path d="M3147.5 1513C3147.5 1459.7 3190.7 1416.5 3244 1416.5 3297.3 1416.5 3340.5 1459.7 3340.5 1513 3340.5 1566.3 3297.3 1609.5 3244 1609.5 3190.7 1609.5 3147.5 1566.3 3147.5 1513Z" stroke="#000000" stroke-width="11.4583" stroke-miterlimit="8" fill="#FFFFFF" fill-rule="evenodd"/><path d="M3533.5 1706C3533.5 1652.7 3576.7 1609.5 3630 1609.5 3683.3 1609.5 3726.5 1652.7 3726.5 1706 3726.5 1759.3 3683.3 1802.5 3630 1802.5 3576.7 1802.5 3533.5 1759.3 3533.5 1706Z" stroke="#000000" stroke-width="11.4583" stroke-miterlimit="8" fill="#FFFFFF" fill-rule="evenodd"/><path d="M28.6459-5.72913 251.559-5.72881 251.559 5.72953 28.6458 5.72921ZM34.375 17.1875 0 0 34.375-17.1875Z" transform="matrix(-1 0 0 1 2770.06 933.5)"/><path d="M28.6459-5.72913 251.559-5.72881 251.559 5.72953 28.6458 5.72921ZM34.375 17.1875 0 0 34.375-17.1875Z" transform="matrix(-1 0 0 1 2770.06 1320.5)"/><path d="M11.2359 26.9664 198.702 964.296 187.466 966.543 7.50684e-05 29.2136ZM-10.1123 37.0782 0 0 23.5952 30.3367Z" transform="matrix(-1 0 0 1 3533.58 547.5)"/><path d="M3509.28 917.379 3336.45 744.551 3344.55 736.449 3517.38 909.277ZM3521.43 897.124 3533.58 933.584 3497.12 921.43Z"/><path d="M3519.09 1294.39 3335.06 742.312 3345.94 738.688 3529.96 1290.76ZM3539.02 1281.71 3533.58 1319.75 3506.41 1292.58Z"/><path d="M14.4936 25.3637 198.519 577.44 187.649 581.063 3.62331 28.9871ZM-5.43516 38.0462 0 0 27.1758 27.1758Z" transform="matrix(-1 0 0 1 3533.58 547.5)"/><path d="M3509.28 1690.38 3336.45 1517.55 3344.55 1509.45 3517.38 1682.28ZM3521.43 1670.12 3533.58 1706.58 3497.12 1694.43Z"/><path d="M24.3067 16.2044 197.135 189.033 189.033 197.135 16.2044 24.3067ZM12.1534 36.4602 0 0 36.4602 12.1534Z" transform="matrix(-1 0 0 1 3533.58 933.5)"/><path d="M24.3067 16.2044 197.135 189.033 189.033 197.135 16.2044 24.3067ZM12.1534 36.4602 0 0 36.4602 12.1534Z" transform="matrix(-1 0 0 1 3533.58 1320.5)"/><path d="M14.4936 25.3637 198.519 577.44 187.649 581.063 3.62331 28.9871ZM-5.43516 38.0462 0 0 27.1758 27.1758Z" transform="matrix(-1 0 0 1 3147.58 740.5)"/><path d="M3133.09 1487.39 2949.06 935.312 2959.94 931.688 3143.96 1483.76ZM3153.02 1474.71 3147.58 1512.75 3120.41 1485.58Z"/><path d="M24.3067 16.2044 197.135 189.033 189.033 197.135 16.2044 24.3067ZM12.1534 36.4602 0 0 36.4602 12.1534Z" transform="matrix(-1 0 0 1 3147.58 740.5)"/><path d="M3123.28 1497.38 2950.45 1324.55 2958.55 1316.45 3131.38 1489.28ZM3135.43 1477.12 3147.58 1513.58 3111.12 1501.43Z"/><path d="M24.3067 16.2044 197.135 189.033 189.033 197.135 16.2044 24.3067ZM12.1534 36.4602 0 0 36.4602 12.1534Z" transform="matrix(-1 0 0 1 3147.58 1127.5)"/><path d="M3123.28 1110.38 2950.45 937.551 2958.55 929.449 3131.38 1102.28ZM3135.43 1090.12 3147.58 1126.58 3111.12 1114.43Z"/><path d="M28.6459-5.72913 251.559-5.72881 251.559 5.72953 28.6458 5.72921ZM34.375 17.1875 0 0 34.375-17.1875Z" transform="matrix(-1 0 0 1 3978.06 547.5)"/><path d="M28.6459-5.72913 251.559-5.72881 251.559 5.72953 28.6458 5.72921ZM34.375 17.1875 0 0 34.375-17.1875Z" transform="matrix(-1 0 0 1 3978.06 933.5)"/><path d="M28.6459-5.72913 251.559-5.72881 251.559 5.72953 28.6458 5.72921ZM34.375 17.1875 0 0 34.375-17.1875Z" transform="matrix(-1 0 0 1 3978.06 1320.5)"/><path d="M28.6459-5.72913 251.559-5.72881 251.559 5.72953 28.6458 5.72921ZM34.375 17.1875 0 0 34.375-17.1875Z" transform="matrix(-1 0 0 1 3978.06 1706.5)"/></g></svg>