<svg width="3090" height="1451" xmlns="http://www.w3.org/2000/svg" xmlns:xlink="http://www.w3.org/1999/xlink" xml:space="preserve" overflow="hidden"><g transform="translate(-502 -363)"><path d="M977.5 590.004C977.5 466.014 1078.01 365.5 1202 365.5L2942 365.5C3065.99 365.5 3166.5 466.014 3166.5 590.004L3166.5 1488C3166.5 1611.99 3065.99 1712.5 2942 1712.5L1202 1712.5C1078.01 1712.5 977.5 1611.99 977.5 1488Z" stroke="#000000" stroke-width="4.58333" stroke-miterlimit="8" fill="#FFFFFF" fill-rule="evenodd"/><path d="M1157.5 606C1157.5 565.959 1189.96 533.5 1230 533.5 1270.04 533.5 1302.5 565.959 1302.5 606 1302.5 646.041 1270.04 678.5 1230 678.5 1189.96 678.5 1157.5 646.041 1157.5 606Z" stroke="#000000" stroke-width="4.58333" stroke-miterlimit="8" fill="#FFFFFF" fill-rule="evenodd"/><path d="M2066.5 606C2066.5 565.959 2098.96 533.5 2139 533.5 2179.04 533.5 2211.5 565.959 2211.5 606 2211.5 646.041 2179.04 678.5 2139 678.5 2098.96 678.5 2066.5 646.041 2066.5 606Z" stroke="#000000" stroke-width="4.58333" stroke-miterlimit="8" fill="#FFFFFF" fill-rule="evenodd"/><path d="M2064.5 947C2064.5 906.959 2096.96 874.5 2137 874.5 2177.04 874.5 2209.5 906.959 2209.5 947 2209.5 987.041 2177.04 1019.5 2137 1019.5 2096.96 1019.5 2064.5 987.041 2064.5 947Z" stroke="#000000" stroke-width="4.58333" stroke-miterlimit="8" fill="#FFFFFF" fill-rule="evenodd"/><path d="M2889.5 1494C2889.5 1453.96 2921.96 1421.5 2962 1421.5 3002.04 1421.5 3034.5 1453.96 3034.5 1494 3034.5 1534.04 3002.04 1566.5 2962 1566.5 2921.96 1566.5 2889.5 1534.04 2889.5 1494Z" stroke="#000000" stroke-width="4.58333" stroke-miterlimit="8" fill="#FFFFFF" fill-rule="evenodd"/><path d="M1081.5 1136.83C1081.5 1110.14 1103.14 1088.5 1129.83 1088.5L1324.17 1088.5C1350.86 1088.5 1372.5 1110.14 1372.5 1136.83L1372.5 1330.17C1372.5 1356.86 1350.86 1378.5 1324.17 1378.5L1129.83 1378.5C1103.14 1378.5 1081.5 1356.86 1081.5 1330.17Z" stroke="#000000" stroke-width="4.58333" stroke-miterlimit="8" fill="#FFFFFF" fill-rule="evenodd"/><path d="M1537.5 1136.83C1537.5 1110.14 1559.14 1088.5 1585.83 1088.5L1780.17 1088.5C1806.86 1088.5 1828.5 1110.14 1828.5 1136.83L1828.5 1330.17C1828.5 1356.86 1806.86 1378.5 1780.17 1378.5L1585.83 1378.5C1559.14 1378.5 1537.5 1356.86 1537.5 1330.17Z" stroke="#000000" stroke-width="4.58333" stroke-miterlimit="8" fill="#FFFFFF" fill-rule="evenodd"/><path d="M1994.5 1136.83C1994.5 1110.14 2016.14 1088.5 2042.83 1088.5L2237.17 1088.5C2263.86 1088.5 2285.5 1110.14 2285.5 1136.83L2285.5 1330.17C2285.5 1356.86 2263.86 1378.5 2237.17 1378.5L2042.83 1378.5C2016.14 1378.5 1994.5 1356.86 1994.5 1330.17Z" stroke="#000000" stroke-width="4.58333" stroke-miterlimit="8" fill="#FFFFFF" fill-rule="evenodd"/><path d="M2820.5 845.834C2820.5 819.14 2842.14 797.5 2868.83 797.5L3062.17 797.5C3088.86 797.5 3110.5 819.14 3110.5 845.834L3110.5 1040.17C3110.5 1066.86 3088.86 1088.5 3062.17 1088.5L2868.83 1088.5C2842.14 1088.5 2820.5 1066.86 2820.5 1040.17Z" stroke="#000000" stroke-width="4.58333" stroke-miterlimit="8" fill="#FFFFFF" fill-rule="evenodd"/><path d="M2434.5 1397C2434.5 1370.21 2456.21 1348.5 2483 1348.5L2677 1348.5C2703.79 1348.5 2725.5 1370.21 2725.5 1397L2725.5 1591C2725.5 1617.79 2703.79 1639.5 2677 1639.5L2483 1639.5C2456.21 1639.5 2434.5 1617.79 2434.5 1591Z" stroke="#000000" stroke-width="4.58333" stroke-miterlimit="8" fill="#FFFFFF" fill-rule="evenodd"/><path d="M3.43741-0.024884 6.23444 386.351-0.640376 386.401-3.43741 0.024884ZM16.5135 381.693 2.96293 409.292-10.9858 381.892Z" transform="matrix(1 0 0 -1 1226.5 1087.79)"/><path d="M1302.5 603.062 2044.08 603.063 2044.08 609.938 1302.5 609.937ZM2039.5 592.75 2067 606.5 2039.5 620.25Z"/><path d="M2211.5 603.062 3312.42 603.063 3312.42 609.938 2211.5 609.937ZM3307.83 592.75 3335.33 606.5 3307.83 620.25Z"/><path d="M809.5 603.062 1134.92 603.063 1134.92 609.938 809.5 609.937ZM1130.33 592.75 1157.83 606.5 1130.33 620.25Z"/><path d="M809.5 1490.06 2412.08 1490.06 2412.08 1496.94 809.5 1496.94ZM2407.5 1479.75 2435 1493.5 2407.5 1507.25Z"/><path d="M2725.5 1490.06 2867.34 1490.06 2867.34 1496.94 2725.5 1496.94ZM2862.75 1479.75 2890.25 1493.5 2862.75 1507.25Z"/><path d="M3034.5 1490.06 3312.25 1490.06 3312.25 1496.94 3034.5 1496.94ZM3307.67 1479.75 3335.17 1493.5 3307.67 1507.25Z"/><path d="M3.43732-0.0356281 6.65353 310.257-0.221097 310.328-3.43732 0.0356281ZM16.918 305.567 3.45374 333.208-10.5805 305.852Z" transform="matrix(-1 0 0 1 2965.95 1088.5)"/><path d="M2136.6 1087.92 2134.92 1042.53 2141.79 1042.27 2143.47 1087.66ZM2124.78 1047.49 2137.5 1019.5 2152.26 1046.47Z"/><path d="M3.4375-6.32405e-06 3.43782 173.25-3.43718 173.25-3.4375 6.32405e-06ZM13.7503 168.667 0.000360892 196.167-13.7497 168.667Z" transform="matrix(1 0 0 -1 2137.5 874.667)"/><path d="M0 3.4375-3.55968 3.4375-0.12218 0-0.12218 140.708-3.55968 137.271 358.629 137.271 358.629 144.146-6.99718 144.146-6.99718-3.4375 0-3.4375ZM354.046 126.958 381.546 140.708 354.046 154.458Z" transform="matrix(1 0 0 -1 1683.5 1088.21)"/><path d="M2211.5 603.062 2969.14 603.062 2969.14 774.708 2962.27 774.708 2962.27 606.5 2965.7 609.937 2211.5 609.937ZM2979.45 770.125 2965.7 797.625 2951.95 770.125Z"/><path d="M3.4375-1.04506e-05 3.43779 95.7917-3.43721 95.7917-3.4375 1.04506e-05ZM13.7503 91.2083 0.000360892 118.708-13.7497 91.2084Z" transform="matrix(1 0 0 -1 1226.5 1497.21)"/><path d="M3.43725-0.0410827 4.53837 92.0856-2.33614 92.1677-3.43725 0.0410827ZM14.7954 87.3793 1.375 115.042-12.7027 87.708Z" transform="matrix(1 0 0 -1 1681.5 1493.54)"/><path d="M3.43666-0.0757905 5.46847 92.0547-1.40486 92.2063-3.43666 0.0757905ZM15.6774 87.2452 2.53707 115.042-11.8159 87.8515Z" transform="matrix(1 0 0 -1 2137.5 1493.54)"/><path d="M2090 604.478 2131.48 604.478 2131.48 563 2142.52 563 2142.52 604.478 2184 604.478 2184 615.522 2142.52 615.522 2142.52 657 2131.48 657 2131.48 615.522 2090 615.522Z" fill-rule="evenodd"/><path d="M1196.29 568.794 1225.6 598.111 1254.92 568.794 1262.73 576.599 1233.41 605.916 1262.73 635.233 1254.92 643.038 1225.6 613.721 1196.29 643.038 1188.48 635.233 1217.8 605.916 1188.48 576.599Z" fill-rule="evenodd"/><path d="M2107.43 910.063 2136.75 939.38 2166.07 910.063 2173.87 917.868 2144.56 947.185 2173.87 976.501 2166.07 984.307 2136.75 954.99 2107.43 984.307 2099.63 976.501 2128.94 947.185 2099.63 917.868Z" fill-rule="evenodd"/><path d="M2931.78 1456.13 2961.09 1485.44 2990.41 1456.13 2998.22 1463.93 2968.9 1493.25 2998.22 1522.57 2990.41 1530.37 2961.09 1501.05 2931.78 1530.37 2923.97 1522.57 2953.29 1493.25 2923.97 1463.93Z" fill-rule="evenodd"/><text font-family="Cambria Math,Cambria Math_MSFontService,sans-serif" font-weight="400" font-size="165" transform="matrix(1 0 0 1 2531.16 1536)">𝜎</text><text font-family="Cambria Math,Cambria Math_MSFontService,sans-serif" font-weight="400" font-size="165" transform="matrix(1 0 0 1 1177.48 1278)">𝜎</text><text font-family="Cambria Math,Cambria Math_MSFontService,sans-serif" font-weight="400" font-size="165" transform="matrix(1 0 0 1 1636.92 1290)">𝜎</text><text font-family="Cambria Math,Cambria Math_MSFontService,sans-serif" font-weight="400" font-size="165" transform="matrix(1 0 0 1 2088.05 1278)">𝜙</text><text font-family="Cambria Math,Cambria Math_MSFontService,sans-serif" font-weight="400" font-size="165" transform="matrix(1 0 0 1 2912.14 987)">𝜙</text><text font-family="CMU Serif,CMU Serif_MSFontService,sans-serif" font-weight="500" font-size="147" transform="matrix(1 0 0 1 600.417 634)">c</text><text font-family="CMU Serif,CMU Serif_MSFontService,sans-serif" font-weight="500" font-size="98" transform="matrix(1 0 0 1 665.157 670)">t</text><text font-family="CMU Serif,CMU Serif_MSFontService,sans-serif" font-weight="500" font-size="98" transform="matrix(1 0 0 1 702.969 670)">-</text><text font-family="CMU Serif,CMU Serif_MSFontService,sans-serif" font-weight="500" font-size="98" transform="matrix(1 0 0 1 735.626 670)">1</text><text font-family="CMU Serif,CMU Serif_MSFontService,sans-serif" font-weight="500" font-size="147" transform="matrix(1 0 0 1 3360.52 640)">c</text><text font-family="CMU Serif,CMU Serif_MSFontService,sans-serif" font-weight="500" font-size="98" transform="matrix(1 0 0 1 3425.26 676)">t</text><text font-family="CMU Serif,CMU Serif_MSFontService,sans-serif" font-weight="500" font-size="147" transform="matrix(1 0 0 1 590.391 1508)">h</text><text font-family="CMU Serif,CMU Serif_MSFontService,sans-serif" font-weight="500" font-size="98" transform="matrix(1 0 0 1 671.745 1544)">t</text><text font-family="CMU Serif,CMU Serif_MSFontService,sans-serif" font-weight="500" font-size="98" transform="matrix(1 0 0 1 709.557 1544)">-</text><text font-family="CMU Serif,CMU Serif_MSFontService,sans-serif" font-weight="500" font-size="98" transform="matrix(1 0 0 1 742.214 1544)">1</text><text font-family="CMU Serif,CMU Serif_MSFontService,sans-serif" font-weight="500" font-size="147" transform="matrix(1 0 0 1 3350.07 1529)">h</text><text font-family="CMU Serif,CMU Serif_MSFontService,sans-serif" font-weight="500" font-size="98" transform="matrix(1 0 0 1 3431.43 1565)">t</text><path d="M881.062 1607.28 881.062 1489.45 1226.97 1489.45 1223.53 1492.89 1223.53 1401.42 1230.4 1401.42 1230.4 1496.33 884.5 1496.33 887.937 1492.89 887.937 1607.28ZM1213.22 1406 1226.97 1378.5 1240.72 1406Z"/><text font-family="CMU Serif,CMU Serif_MSFontService,sans-serif" font-weight="500" font-size="147" transform="matrix(1 0 0 1 822.25 1689)">x</text><text font-family="CMU Serif,CMU Serif_MSFontService,sans-serif" font-weight="500" font-size="98" transform="matrix(1 0 0 1 899.594 1725)">t</text></g></svg>