<svg width="4262" height="2279" xmlns="http://www.w3.org/2000/svg" xmlns:xlink="http://www.w3.org/1999/xlink" xml:space="preserve" overflow="hidden"><g transform="translate(-56 -72)"><path d="M597.5 302.5C597.5 248.928 640.705 205.5 694 205.5 747.296 205.5 790.5 248.928 790.5 302.5 790.5 356.072 747.296 399.5 694 399.5 640.705 399.5 597.5 356.072 597.5 302.5Z" stroke="#000000" stroke-width="11.4583" stroke-miterlimit="8" fill="#FFFFFF" fill-rule="evenodd"/><path d="M329.5 651C329.5 597.705 372.705 554.5 426 554.5 479.296 554.5 522.5 597.705 522.5 651 522.5 704.296 479.296 747.5 426 747.5 372.705 747.5 329.5 704.296 329.5 651Z" stroke="#000000" stroke-width="11.4583" stroke-miterlimit="8" fill="#FFFFFF" fill-rule="evenodd"/><path d="M597.5 651C597.5 597.705 640.705 554.5 694 554.5 747.296 554.5 790.5 597.705 790.5 651 790.5 704.296 747.296 747.5 694 747.5 640.705 747.5 597.5 704.296 597.5 651Z" stroke="#000000" stroke-width="11.4583" stroke-miterlimit="8" fill="#FFFFFF" fill-rule="evenodd"/><path d="M865.5 651C865.5 597.705 908.705 554.5 962 554.5 1015.3 554.5 1058.5 597.705 1058.5 651 1058.5 704.296 1015.3 747.5 962 747.5 908.705 747.5 865.5 704.296 865.5 651Z" stroke="#000000" stroke-width="11.4583" stroke-miterlimit="8" fill="#FFFFFF" fill-rule="evenodd"/><path d="M61.5 1000C61.5 946.704 104.705 903.5 158 903.5 211.295 903.5 254.5 946.704 254.5 1000 254.5 1053.3 211.295 1096.5 158 1096.5 104.705 1096.5 61.5 1053.3 61.5 1000Z" stroke="#000000" stroke-width="11.4583" stroke-miterlimit="8" fill="#FFFFFF" fill-rule="evenodd"/><path d="M329.5 1000C329.5 946.704 372.705 903.5 426 903.5 479.296 903.5 522.5 946.704 522.5 1000 522.5 1053.3 479.296 1096.5 426 1096.5 372.705 1096.5 329.5 1053.3 329.5 1000Z" stroke="#000000" stroke-width="11.4583" stroke-miterlimit="8" fill="#FFFFFF" fill-rule="evenodd"/><path d="M865.5 1000C865.5 946.704 908.705 903.5 962 903.5 1015.3 903.5 1058.5 946.704 1058.5 1000 1058.5 1053.3 1015.3 1096.5 962 1096.5 908.705 1096.5 865.5 1053.3 865.5 1000Z" stroke="#000000" stroke-width="11.4583" stroke-miterlimit="8" fill="#FFFFFF" fill-rule="evenodd"/><path d="M1133.5 1000C1133.5 946.704 1176.7 903.5 1230 903.5 1283.3 903.5 1326.5 946.704 1326.5 1000 1326.5 1053.3 1283.3 1096.5 1230 1096.5 1176.7 1096.5 1133.5 1053.3 1133.5 1000Z" stroke="#000000" stroke-width="11.4583" stroke-miterlimit="8" fill="#FFFFFF" fill-rule="evenodd"/><path d="M597.5 1349C597.5 1295.7 640.705 1252.5 694 1252.5 747.296 1252.5 790.5 1295.7 790.5 1349 790.5 1402.3 747.296 1445.5 694 1445.5 640.705 1445.5 597.5 1402.3 597.5 1349Z" stroke="#000000" stroke-width="11.4583" stroke-miterlimit="8" fill="#FFFFFF" fill-rule="evenodd"/><path d="M865.5 1349C865.5 1295.7 908.705 1252.5 962 1252.5 1015.3 1252.5 1058.5 1295.7 1058.5 1349 1058.5 1402.3 1015.3 1445.5 962 1445.5 908.705 1445.5 865.5 1402.3 865.5 1349Z" stroke="#000000" stroke-width="11.4583" stroke-miterlimit="8" fill="#FFFFFF" fill-rule="evenodd"/><path d="M1133.5 1349C1133.5 1295.7 1176.7 1252.5 1230 1252.5 1283.3 1252.5 1326.5 1295.7 1326.5 1349 1326.5 1402.3 1283.3 1445.5 1230 1445.5 1176.7 1445.5 1133.5 1402.3 1133.5 1349Z" stroke="#000000" stroke-width="11.4583" stroke-miterlimit="8" fill="#FFFFFF" fill-rule="evenodd"/><path d="M0 0 268.125 155.638" stroke="#000000" stroke-width="11.4583" stroke-miterlimit="8" fill="none" fill-rule="evenodd" transform="matrix(1 0 0 -1 425.5 555.138)"/><path d="M0 0 0.000360892 155.606" stroke="#000000" stroke-width="11.4583" stroke-miterlimit="8" fill="none" fill-rule="evenodd" transform="matrix(1 0 0 -1 425.5 903.106)"/><path d="M0 0 268.125 155.606" stroke="#000000" stroke-width="11.4583" stroke-miterlimit="8" fill="none" fill-rule="evenodd" transform="matrix(1 0 0 -1 157.5 903.106)"/><path d="M0 0 0.000360892 155.638" stroke="#000000" stroke-width="11.4583" stroke-miterlimit="8" fill="none" fill-rule="evenodd" transform="matrix(1 0 0 -1 694.5 555.138)"/><path d="M694.5 399.5 962.625 555.138" stroke="#000000" stroke-width="11.4583" stroke-miterlimit="8" fill="none" fill-rule="evenodd"/><path d="M962.5 747.5 962.5 903.106" stroke="#000000" stroke-width="11.4583" stroke-miterlimit="8" fill="none" fill-rule="evenodd"/><path d="M962.5 747.5 1230.62 903.106" stroke="#000000" stroke-width="11.4583" stroke-miterlimit="8" fill="none" fill-rule="evenodd"/><path d="M0 0 268.125 155.638" stroke="#000000" stroke-width="11.4583" stroke-miterlimit="8" fill="none" fill-rule="evenodd" transform="matrix(-1 0 0 1 962.625 1096.5)"/><path d="M962.5 1096.5 962.5 1252.14" stroke="#000000" stroke-width="11.4583" stroke-miterlimit="8" fill="none" fill-rule="evenodd"/><path d="M962.5 1096.5 1230.62 1252.14" stroke="#000000" stroke-width="11.4583" stroke-miterlimit="8" fill="none" fill-rule="evenodd"/><path d="M0 0 294.061 143.13" stroke="#000000" stroke-width="11.4583" stroke-linecap="round" stroke-miterlimit="8" stroke-dasharray="34.375 45.8333" fill="none" fill-rule="evenodd" transform="matrix(-1 0 0 1 694.56 1445.5)"/><path d="M0 0 98.0195 143.13" stroke="#000000" stroke-width="11.4583" stroke-linecap="round" stroke-miterlimit="8" stroke-dasharray="34.375 45.8333" fill="none" fill-rule="evenodd" transform="matrix(-1 0 0 1 694.519 1445.5)"/><path d="M694.5 1445.5 791.393 1588.63" stroke="#000000" stroke-width="11.4583" stroke-linecap="round" stroke-miterlimit="8" stroke-dasharray="34.375 45.8333" fill="none" fill-rule="evenodd"/><path d="M694.5 1445.5 982.929 1588.63" stroke="#000000" stroke-width="11.4583" stroke-linecap="round" stroke-miterlimit="8" stroke-dasharray="34.375 45.8333" fill="none" fill-rule="evenodd"/><path d="M362 1944.5 374.064 1944.5 374.064 1891 424.936 1891 424.936 1944.5 437 1944.5 399.5 1982Z" fill-rule="evenodd"/><path d="M0 0 0.000360892 309.557" stroke="#000000" stroke-width="11.4583" stroke-linecap="round" stroke-miterlimit="8" stroke-dasharray="34.375 45.8333" fill="none" fill-rule="evenodd" transform="matrix(1 0 0 -1 400.5 1898.06)"/><path d="M0 0 0.000360892 309.557" stroke="#000000" stroke-width="11.4583" stroke-linecap="round" stroke-miterlimit="8" stroke-dasharray="34.375 45.8333" fill="none" fill-rule="evenodd" transform="matrix(1 0 0 -1 596.5 1898.06)"/><path d="M0 0 0.000360892 309.557" stroke="#000000" stroke-width="11.4583" stroke-linecap="round" stroke-miterlimit="8" stroke-dasharray="34.375 45.8333" fill="none" fill-rule="evenodd" transform="matrix(1 0 0 -1 790.5 1898.06)"/><path d="M0 0 0.000360892 309.557" stroke="#000000" stroke-width="11.4583" stroke-linecap="round" stroke-miterlimit="8" stroke-dasharray="34.375 45.8333" fill="none" fill-rule="evenodd" transform="matrix(1 0 0 -1 982.5 1898.06)"/><path d="M562 1950.5 574.064 1950.5 574.064 1897 624.936 1897 624.936 1950.5 637 1950.5 599.5 1988Z" fill-rule="evenodd"/><path d="M752 1950 764.225 1950 764.225 1897 815.775 1897 815.775 1950 828 1950 790 1988Z" fill-rule="evenodd"/><path d="M943 1950.5 955.064 1950.5 955.064 1897 1005.94 1897 1005.94 1950.5 1018 1950.5 980.5 1988Z" fill-rule="evenodd"/><path d="M1468.5 116.5 1468.5 2281.35" stroke="#000000" stroke-width="11.4583" stroke-miterlimit="8" fill="none" fill-rule="evenodd"/><path d="M2934.5 116.5 2934.5 2281.35" stroke="#000000" stroke-width="11.4583" stroke-miterlimit="8" fill="none" fill-rule="evenodd"/><text font-family="CMU Serif,CMU Serif_MSFontService,sans-serif" font-weight="500" font-size="119" transform="matrix(1 0 0 1 161.332 2231)">Leaf </text><text font-family="CMU Serif,CMU Serif_MSFontService,sans-serif" font-weight="500" font-size="119" transform="matrix(1 0 0 1 424.301 2231)">Parallelisierung</text><text font-family="CMU Serif,CMU Serif_MSFontService,sans-serif" font-weight="500" font-size="119" transform="matrix(1 0 0 1 1653.55 2231)">Root </text><text font-family="CMU Serif,CMU Serif_MSFontService,sans-serif" font-weight="500" font-size="119" transform="matrix(1 0 0 1 1946.31 2231)">Parallelisierung</text><text font-family="CMU Serif,CMU Serif_MSFontService,sans-serif" font-weight="500" font-size="119" transform="matrix(1 0 0 1 3167.03 2238)">Tree </text><text font-family="CMU Serif,CMU Serif_MSFontService,sans-serif" font-weight="500" font-size="119" transform="matrix(1 0 0 1 3444.32 2238)">Parallelisierung</text><path d="M3573.5 304.5C3573.5 250.928 3616.7 207.5 3670 207.5 3723.3 207.5 3766.5 250.928 3766.5 304.5 3766.5 358.072 3723.3 401.5 3670 401.5 3616.7 401.5 3573.5 358.072 3573.5 304.5Z" stroke="#000000" stroke-width="11.4583" stroke-miterlimit="8" fill="#FFFFFF" fill-rule="evenodd"/><path d="M3305.5 653C3305.5 599.705 3348.7 556.5 3402 556.5 3455.3 556.5 3498.5 599.705 3498.5 653 3498.5 706.295 3455.3 749.5 3402 749.5 3348.7 749.5 3305.5 706.295 3305.5 653Z" stroke="#000000" stroke-width="11.4583" stroke-miterlimit="8" fill="#FFFFFF" fill-rule="evenodd"/><path d="M3573.5 653C3573.5 599.705 3616.7 556.5 3670 556.5 3723.3 556.5 3766.5 599.705 3766.5 653 3766.5 706.295 3723.3 749.5 3670 749.5 3616.7 749.5 3573.5 706.295 3573.5 653Z" stroke="#000000" stroke-width="11.4583" stroke-miterlimit="8" fill="#FFFFFF" fill-rule="evenodd"/><path d="M3841.5 653C3841.5 599.705 3884.7 556.5 3938 556.5 3991.3 556.5 4034.5 599.705 4034.5 653 4034.5 706.295 3991.3 749.5 3938 749.5 3884.7 749.5 3841.5 706.295 3841.5 653Z" stroke="#000000" stroke-width="11.4583" stroke-miterlimit="8" fill="#FFFFFF" fill-rule="evenodd"/><path d="M3036.5 1002C3036.5 948.705 3079.7 905.5 3133 905.5 3186.3 905.5 3229.5 948.705 3229.5 1002 3229.5 1055.3 3186.3 1098.5 3133 1098.5 3079.7 1098.5 3036.5 1055.3 3036.5 1002Z" stroke="#000000" stroke-width="11.4583" stroke-miterlimit="8" fill="#FFFFFF" fill-rule="evenodd"/><path d="M3305.5 1002C3305.5 948.705 3348.7 905.5 3402 905.5 3455.3 905.5 3498.5 948.705 3498.5 1002 3498.5 1055.3 3455.3 1098.5 3402 1098.5 3348.7 1098.5 3305.5 1055.3 3305.5 1002Z" stroke="#000000" stroke-width="11.4583" stroke-miterlimit="8" fill="#FFFFFF" fill-rule="evenodd"/><path d="M3841.5 1002C3841.5 948.705 3884.7 905.5 3938 905.5 3991.3 905.5 4034.5 948.705 4034.5 1002 4034.5 1055.3 3991.3 1098.5 3938 1098.5 3884.7 1098.5 3841.5 1055.3 3841.5 1002Z" stroke="#000000" stroke-width="11.4583" stroke-miterlimit="8" fill="#FFFFFF" fill-rule="evenodd"/><path d="M4109.5 1002C4109.5 948.705 4152.7 905.5 4206 905.5 4259.3 905.5 4302.5 948.705 4302.5 1002 4302.5 1055.3 4259.3 1098.5 4206 1098.5 4152.7 1098.5 4109.5 1055.3 4109.5 1002Z" stroke="#000000" stroke-width="11.4583" stroke-miterlimit="8" fill="#FFFFFF" fill-rule="evenodd"/><path d="M3573.5 1351C3573.5 1297.7 3616.7 1254.5 3670 1254.5 3723.3 1254.5 3766.5 1297.7 3766.5 1351 3766.5 1404.3 3723.3 1447.5 3670 1447.5 3616.7 1447.5 3573.5 1404.3 3573.5 1351Z" stroke="#000000" stroke-width="11.4583" stroke-miterlimit="8" fill="#FFFFFF" fill-rule="evenodd"/><path d="M3841.5 1351C3841.5 1297.7 3884.7 1254.5 3938 1254.5 3991.3 1254.5 4034.5 1297.7 4034.5 1351 4034.5 1404.3 3991.3 1447.5 3938 1447.5 3884.7 1447.5 3841.5 1404.3 3841.5 1351Z" stroke="#000000" stroke-width="11.4583" stroke-miterlimit="8" fill="#FFFFFF" fill-rule="evenodd"/><path d="M4109.5 1351C4109.5 1297.7 4152.7 1254.5 4206 1254.5 4259.3 1254.5 4302.5 1297.7 4302.5 1351 4302.5 1404.3 4259.3 1447.5 4206 1447.5 4152.7 1447.5 4109.5 1404.3 4109.5 1351Z" stroke="#000000" stroke-width="11.4583" stroke-miterlimit="8" fill="#FFFFFF" fill-rule="evenodd"/><path d="M0 0 268.125 155.638" stroke="#000000" stroke-width="11.4583" stroke-miterlimit="8" fill="none" fill-rule="evenodd" transform="matrix(1 0 0 -1 3401.5 557.138)"/><path d="M0 0 0.000360892 155.606" stroke="#000000" stroke-width="11.4583" stroke-miterlimit="8" fill="none" fill-rule="evenodd" transform="matrix(1 0 0 -1 3401.5 905.106)"/><path d="M0 0 268.125 155.606" stroke="#000000" stroke-width="11.4583" stroke-miterlimit="8" fill="none" fill-rule="evenodd" transform="matrix(1 0 0 -1 3133.5 905.106)"/><path d="M0 0 0.000360892 155.638" stroke="#000000" stroke-width="11.4583" stroke-miterlimit="8" fill="none" fill-rule="evenodd" transform="matrix(1 0 0 -1 3669.5 557.138)"/><path d="M3669.5 401.5 3937.62 557.138" stroke="#000000" stroke-width="11.4583" stroke-miterlimit="8" fill="none" fill-rule="evenodd"/><path d="M3937.5 749.5 3937.5 905.106" stroke="#000000" stroke-width="11.4583" stroke-miterlimit="8" fill="none" fill-rule="evenodd"/><path d="M3937.5 749.5 4205.62 905.106" stroke="#000000" stroke-width="11.4583" stroke-miterlimit="8" fill="none" fill-rule="evenodd"/><path d="M0 0 268.125 155.638" stroke="#000000" stroke-width="11.4583" stroke-miterlimit="8" fill="none" fill-rule="evenodd" transform="matrix(-1 0 0 1 3937.62 1098.5)"/><path d="M3937.5 1098.5 3937.5 1254.14" stroke="#000000" stroke-width="11.4583" stroke-miterlimit="8" fill="none" fill-rule="evenodd"/><path d="M3937.5 1098.5 4205.62 1254.14" stroke="#000000" stroke-width="11.4583" stroke-miterlimit="8" fill="none" fill-rule="evenodd"/><path d="M3092 1423.5 3104.06 1423.5 3104.06 1371 3154.94 1371 3154.94 1423.5 3167 1423.5 3129.5 1461Z" fill-rule="evenodd"/><path d="M0 0 3.12533 279.067" stroke="#000000" stroke-width="11.4583" stroke-linecap="round" stroke-miterlimit="8" stroke-dasharray="34.375 45.8333" fill="none" fill-rule="evenodd" transform="matrix(1 0 0 -1 3130.5 1377.57)"/><path d="M0 0 0.000360892 279.925" stroke="#000000" stroke-width="11.4583" stroke-linecap="round" stroke-miterlimit="8" stroke-dasharray="34.375 45.8333" fill="none" fill-rule="evenodd" transform="matrix(1 0 0 -1 3669.5 1727.43)"/><path d="M3636 1779.5 3648.06 1779.5 3648.06 1727 3698.94 1727 3698.94 1779.5 3711 1779.5 3673.5 1817Z" fill-rule="evenodd"/><path d="M3900 1011.5 3912.06 1011.5 3912.06 959 3962.94 959 3962.94 1011.5 3975 1011.5 3937.5 1049Z" fill-rule="evenodd"/><path d="M3363 662 3375.22 662 3375.22 610 3426.77 610 3426.77 662 3439 662 3401 700Z" fill-rule="evenodd"/><rect x="3278.5" y="533.5" width="246" height="238" stroke="#000000" stroke-width="11.4583" stroke-linecap="round" stroke-miterlimit="8" stroke-dasharray="34.375 45.8333" stroke-opacity="0.501961" fill="none"/><rect x="3815.5" y="885.5" width="245" height="237" stroke="#000000" stroke-width="11.4583" stroke-linecap="round" stroke-miterlimit="8" stroke-dasharray="34.375 45.8333" stroke-opacity="0.501961" fill="none"/><rect x="3257" y="488" width="71.9998" height="71.9998" fill="#FFFFFF"/><rect x="3795" y="849" width="72.9998" height="71.9998" fill="#FFFFFF"/><g><g><g><path d="M78.1249 108.125 78.1249 116.406 71.8749 116.406 71.8749 108.125C68.2812 106.875 65.6249 103.437 65.6249 99.2187 65.6249 94.0624 69.8437 89.8437 74.9999 89.8437 80.1562 89.8437 84.3749 94.0624 84.3749 99.2187 84.3749 103.281 81.7187 106.719 78.1249 108.125ZM51.5625 50.7812C51.5625 37.8125 62.0312 27.3437 74.9999 27.3437 87.9687 27.3437 98.4374 37.8125 98.4374 50.7812L98.4374 68.1249 74.9999 66.4062 51.5625 68.1249 51.5625 50.7812ZM107.812 68.7499 107.812 50.7812C107.812 32.6562 93.1249 17.9687 74.9999 17.9687 56.875 17.9687 42.1875 32.6562 42.1875 50.7812L42.1875 68.7499 31.25 69.5312 31.25 128.906 74.9999 132.031 118.75 128.906 118.75 69.5312 107.812 68.7499Z" transform="matrix(1 0 0 1 3218 433)"/></g></g></g><g><g><g><path d="M3825.12 895.125 3825.12 903.406 3818.87 903.406 3818.87 895.125C3815.28 893.875 3812.62 890.438 3812.62 886.219 3812.62 881.062 3816.84 876.844 3822 876.844 3827.16 876.844 3831.38 881.062 3831.38 886.219 3831.38 890.281 3828.72 893.719 3825.12 895.125ZM3798.56 837.781C3798.56 824.812 3809.03 814.344 3822 814.344 3834.97 814.344 3845.44 824.812 3845.44 837.781L3845.44 855.125 3822 853.406 3798.56 855.125 3798.56 837.781ZM3854.81 855.75 3854.81 837.781C3854.81 819.656 3840.12 804.969 3822 804.969 3803.87 804.969 3789.19 819.656 3789.19 837.781L3789.19 855.75 3778.25 856.531 3778.25 915.906 3822 919.031 3865.75 915.906 3865.75 856.531 3854.81 855.75Z"/></g></g></g><g><g><g><path d="M63.1561 50.427 69.5207 56.7916 75.8853 50.427 82.2499 56.7916 90.0832 46.9999 82.2499 37.2083 42.5937 37.2083C39.0687 30.7458 32.3124 26.4375 24.4791 26.4375 13.1208 26.4375 3.91666 35.6416 3.91666 46.9999 3.91666 58.3582 13.1208 67.5624 24.4791 67.5624 32.3124 67.5624 39.0687 63.2541 42.5937 56.7916L48.9582 56.7916 52.8749 52.8749 56.7916 56.7916 63.1561 50.427ZM15.6666 52.8749C12.4354 52.8749 9.79165 50.2312 9.79165 46.9999 9.79165 43.7687 12.4354 41.1249 15.6666 41.1249 18.8979 41.1249 21.5416 43.7687 21.5416 46.9999 21.5416 50.2312 18.8979 52.8749 15.6666 52.8749Z" transform="matrix(1 0 0 1 3161 1341)"/></g></g></g><g><g><g><path d="M63.1561 50.427 69.5207 56.7916 75.8853 50.427 82.2499 56.7916 90.0832 46.9999 82.2499 37.2083 42.5937 37.2083C39.0687 30.7458 32.3124 26.4375 24.4791 26.4375 13.1208 26.4375 3.91666 35.6416 3.91666 46.9999 3.91666 58.3582 13.1208 67.5624 24.4791 67.5624 32.3124 67.5624 39.0687 63.2541 42.5937 56.7916L48.9582 56.7916 52.8749 52.8749 56.7916 56.7916 63.1561 50.427ZM15.6666 52.8749C12.4354 52.8749 9.79165 50.2312 9.79165 46.9999 9.79165 43.7687 12.4354 41.1249 15.6666 41.1249 18.8979 41.1249 21.5416 43.7687 21.5416 46.9999 21.5416 50.2312 18.8979 52.8749 15.6666 52.8749Z" transform="matrix(1 0 0 1 3705 1698)"/></g></g></g><path d="M1791.5 134C1791.5 105.005 1815.01 81.5 1844 81.5 1872.99 81.5 1896.5 105.005 1896.5 134 1896.5 162.995 1872.99 186.5 1844 186.5 1815.01 186.5 1791.5 162.995 1791.5 134Z" stroke="#000000" stroke-width="11.4583" stroke-miterlimit="8" fill="#FFFFFF" fill-rule="evenodd"/><path d="M1644.5 324.5C1644.5 295.229 1668.23 271.5 1697.5 271.5 1726.77 271.5 1750.5 295.229 1750.5 324.5 1750.5 353.771 1726.77 377.5 1697.5 377.5 1668.23 377.5 1644.5 353.771 1644.5 324.5Z" stroke="#000000" stroke-width="11.4583" stroke-miterlimit="8" fill="#FFFFFF" fill-rule="evenodd"/><path d="M1791.5 324.5C1791.5 295.229 1815.01 271.5 1844 271.5 1872.99 271.5 1896.5 295.229 1896.5 324.5 1896.5 353.771 1872.99 377.5 1844 377.5 1815.01 377.5 1791.5 353.771 1791.5 324.5Z" stroke="#000000" stroke-width="11.4583" stroke-miterlimit="8" fill="#FFFFFF" fill-rule="evenodd"/><path d="M1937.5 324.5C1937.5 295.229 1961.23 271.5 1990.5 271.5 2019.77 271.5 2043.5 295.229 2043.5 324.5 2043.5 353.771 2019.77 377.5 1990.5 377.5 1961.23 377.5 1937.5 353.771 1937.5 324.5Z" stroke="#000000" stroke-width="11.4583" stroke-miterlimit="8" fill="#FFFFFF" fill-rule="evenodd"/><path d="M1498.5 515C1498.5 486.005 1522.01 462.5 1551 462.5 1579.99 462.5 1603.5 486.005 1603.5 515 1603.5 543.995 1579.99 567.5 1551 567.5 1522.01 567.5 1498.5 543.995 1498.5 515Z" stroke="#000000" stroke-width="11.4583" stroke-miterlimit="8" fill="#FFFFFF" fill-rule="evenodd"/><path d="M1644.5 515C1644.5 486.005 1668.23 462.5 1697.5 462.5 1726.77 462.5 1750.5 486.005 1750.5 515 1750.5 543.995 1726.77 567.5 1697.5 567.5 1668.23 567.5 1644.5 543.995 1644.5 515Z" stroke="#000000" stroke-width="11.4583" stroke-miterlimit="8" fill="#FFFFFF" fill-rule="evenodd"/><path d="M1937.5 515C1937.5 486.005 1961.23 462.5 1990.5 462.5 2019.77 462.5 2043.5 486.005 2043.5 515 2043.5 543.995 2019.77 567.5 1990.5 567.5 1961.23 567.5 1937.5 543.995 1937.5 515Z" stroke="#000000" stroke-width="11.4583" stroke-miterlimit="8" fill="#FFFFFF" fill-rule="evenodd"/><path d="M2084.5 515C2084.5 486.005 2108.01 462.5 2137 462.5 2165.99 462.5 2189.5 486.005 2189.5 515 2189.5 543.995 2165.99 567.5 2137 567.5 2108.01 567.5 2084.5 543.995 2084.5 515Z" stroke="#000000" stroke-width="11.4583" stroke-miterlimit="8" fill="#FFFFFF" fill-rule="evenodd"/><path d="M1791.5 705.5C1791.5 676.229 1815.01 652.5 1844 652.5 1872.99 652.5 1896.5 676.229 1896.5 705.5 1896.5 734.771 1872.99 758.5 1844 758.5 1815.01 758.5 1791.5 734.771 1791.5 705.5Z" stroke="#000000" stroke-width="11.4583" stroke-miterlimit="8" fill="#FFFFFF" fill-rule="evenodd"/><path d="M1937.5 705.5C1937.5 676.229 1961.23 652.5 1990.5 652.5 2019.77 652.5 2043.5 676.229 2043.5 705.5 2043.5 734.771 2019.77 758.5 1990.5 758.5 1961.23 758.5 1937.5 734.771 1937.5 705.5Z" stroke="#000000" stroke-width="11.4583" stroke-miterlimit="8" fill="#FFFFFF" fill-rule="evenodd"/><path d="M0 0 146.427 84.9963" stroke="#000000" stroke-width="11.4583" stroke-miterlimit="8" fill="none" fill-rule="evenodd" transform="matrix(1 0 0 -1 1697.5 271.496)"/><path d="M0 0 0.000360892 84.9786" stroke="#000000" stroke-width="11.4583" stroke-miterlimit="8" fill="none" fill-rule="evenodd" transform="matrix(1 0 0 -1 1697.5 462.479)"/><path d="M0 0 146.427 84.9786" stroke="#000000" stroke-width="11.4583" stroke-miterlimit="8" fill="none" fill-rule="evenodd" transform="matrix(1 0 0 -1 1551.5 462.479)"/><path d="M0 0 0.000360892 84.9963" stroke="#000000" stroke-width="11.4583" stroke-miterlimit="8" fill="none" fill-rule="evenodd" transform="matrix(1 0 0 -1 1844.5 271.496)"/><path d="M1844.5 186.5 1990.93 271.496" stroke="#000000" stroke-width="11.4583" stroke-miterlimit="8" fill="none" fill-rule="evenodd"/><path d="M1990.5 377.5 1990.5 462.479" stroke="#000000" stroke-width="11.4583" stroke-miterlimit="8" fill="none" fill-rule="evenodd"/><path d="M1990.5 377.5 2136.93 462.479" stroke="#000000" stroke-width="11.4583" stroke-miterlimit="8" fill="none" fill-rule="evenodd"/><path d="M0 0 146.427 84.9963" stroke="#000000" stroke-width="11.4583" stroke-miterlimit="8" fill="none" fill-rule="evenodd" transform="matrix(-1 0 0 1 1990.93 567.5)"/><path d="M1990.5 567.5 1990.5 652.496" stroke="#000000" stroke-width="11.4583" stroke-miterlimit="8" fill="none" fill-rule="evenodd"/><path d="M1528 745 1534.76 745 1534.76 716 1563.24 716 1563.24 745 1570 745 1549 766Z" fill-rule="evenodd"/><path d="M0 0 1.70666 152.403" stroke="#000000" stroke-width="11.4583" stroke-linecap="round" stroke-miterlimit="8" stroke-dasharray="34.375 45.8333" fill="none" fill-rule="evenodd" transform="matrix(1 0 0 -1 1549.5 719.903)"/><path d="M1792.5 515C1792.5 486.005 1816.01 462.5 1845 462.5 1873.99 462.5 1897.5 486.005 1897.5 515 1897.5 543.995 1873.99 567.5 1845 567.5 1816.01 567.5 1792.5 543.995 1792.5 515Z" stroke="#000000" stroke-width="11.4583" stroke-miterlimit="8" fill="#FFFFFF" fill-rule="evenodd"/><path d="M1844.99 462.478 1697.5 377.5" stroke="#000000" stroke-width="11.4583" stroke-miterlimit="8" fill="none" fill-rule="evenodd"/><path d="M2514.5 130.5C2514.5 101.229 2538.01 77.4998 2567 77.4998 2595.99 77.4998 2619.5 101.229 2619.5 130.5 2619.5 159.771 2595.99 183.5 2567 183.5 2538.01 183.5 2514.5 159.771 2514.5 130.5Z" stroke="#000000" stroke-width="11.4583" stroke-miterlimit="8" fill="#FFFFFF" fill-rule="evenodd"/><path d="M2367.5 321C2367.5 292.005 2391.23 268.5 2420.5 268.5 2449.77 268.5 2473.5 292.005 2473.5 321 2473.5 349.995 2449.77 373.5 2420.5 373.5 2391.23 373.5 2367.5 349.995 2367.5 321Z" stroke="#000000" stroke-width="11.4583" stroke-miterlimit="8" fill="#FFFFFF" fill-rule="evenodd"/><path d="M2514.5 321C2514.5 292.005 2538.01 268.5 2567 268.5 2595.99 268.5 2619.5 292.005 2619.5 321 2619.5 349.995 2595.99 373.5 2567 373.5 2538.01 373.5 2514.5 349.995 2514.5 321Z" stroke="#000000" stroke-width="11.4583" stroke-miterlimit="8" fill="#FFFFFF" fill-rule="evenodd"/><path d="M2660.5 321C2660.5 292.005 2684.23 268.5 2713.5 268.5 2742.77 268.5 2766.5 292.005 2766.5 321 2766.5 349.995 2742.77 373.5 2713.5 373.5 2684.23 373.5 2660.5 349.995 2660.5 321Z" stroke="#000000" stroke-width="11.4583" stroke-miterlimit="8" fill="#FFFFFF" fill-rule="evenodd"/><path d="M2221.5 511.5C2221.5 482.229 2245.01 458.5 2274 458.5 2303 458.5 2326.5 482.229 2326.5 511.5 2326.5 540.771 2303 564.5 2274 564.5 2245.01 564.5 2221.5 540.771 2221.5 511.5Z" stroke="#000000" stroke-width="11.4583" stroke-miterlimit="8" fill="#FFFFFF" fill-rule="evenodd"/><path d="M2367.5 511.5C2367.5 482.229 2391.23 458.5 2420.5 458.5 2449.77 458.5 2473.5 482.229 2473.5 511.5 2473.5 540.771 2449.77 564.5 2420.5 564.5 2391.23 564.5 2367.5 540.771 2367.5 511.5Z" stroke="#000000" stroke-width="11.4583" stroke-miterlimit="8" fill="#FFFFFF" fill-rule="evenodd"/><path d="M2660.5 511.5C2660.5 482.229 2684.23 458.5 2713.5 458.5 2742.77 458.5 2766.5 482.229 2766.5 511.5 2766.5 540.771 2742.77 564.5 2713.5 564.5 2684.23 564.5 2660.5 540.771 2660.5 511.5Z" stroke="#000000" stroke-width="11.4583" stroke-miterlimit="8" fill="#FFFFFF" fill-rule="evenodd"/><path d="M2807.5 511.5C2807.5 482.229 2831.01 458.5 2860 458.5 2889 458.5 2912.5 482.229 2912.5 511.5 2912.5 540.771 2889 564.5 2860 564.5 2831.01 564.5 2807.5 540.771 2807.5 511.5Z" stroke="#000000" stroke-width="11.4583" stroke-miterlimit="8" fill="#FFFFFF" fill-rule="evenodd"/><path d="M2514.5 702C2514.5 673.005 2538.01 649.5 2567 649.5 2595.99 649.5 2619.5 673.005 2619.5 702 2619.5 730.995 2595.99 754.5 2567 754.5 2538.01 754.5 2514.5 730.995 2514.5 702Z" stroke="#000000" stroke-width="11.4583" stroke-miterlimit="8" fill="#FFFFFF" fill-rule="evenodd"/><path d="M2660.5 702C2660.5 673.005 2684.23 649.5 2713.5 649.5 2742.77 649.5 2766.5 673.005 2766.5 702 2766.5 730.995 2742.77 754.5 2713.5 754.5 2684.23 754.5 2660.5 730.995 2660.5 702Z" stroke="#000000" stroke-width="11.4583" stroke-miterlimit="8" fill="#FFFFFF" fill-rule="evenodd"/><path d="M2807.5 702C2807.5 673.005 2831.01 649.5 2860 649.5 2889 649.5 2912.5 673.005 2912.5 702 2912.5 730.995 2889 754.5 2860 754.5 2831.01 754.5 2807.5 730.995 2807.5 702Z" stroke="#000000" stroke-width="11.4583" stroke-miterlimit="8" fill="#FFFFFF" fill-rule="evenodd"/><path d="M0 0 146.427 84.9963" stroke="#000000" stroke-width="11.4583" stroke-miterlimit="8" fill="none" fill-rule="evenodd" transform="matrix(1 0 0 -1 2420.5 268.496)"/><path d="M0 0 0.000360892 84.9786" stroke="#000000" stroke-width="11.4583" stroke-miterlimit="8" fill="none" fill-rule="evenodd" transform="matrix(1 0 0 -1 2420.5 458.479)"/><path d="M0 0 146.427 84.9786" stroke="#000000" stroke-width="11.4583" stroke-miterlimit="8" fill="none" fill-rule="evenodd" transform="matrix(1 0 0 -1 2274.5 458.479)"/><path d="M0 0 0.000360892 84.9963" stroke="#000000" stroke-width="11.4583" stroke-miterlimit="8" fill="none" fill-rule="evenodd" transform="matrix(1 0 0 -1 2567.5 268.496)"/><path d="M2567.5 183.5 2713.93 268.496" stroke="#000000" stroke-width="11.4583" stroke-miterlimit="8" fill="none" fill-rule="evenodd"/><path d="M2713.5 373.5 2713.5 458.479" stroke="#000000" stroke-width="11.4583" stroke-miterlimit="8" fill="none" fill-rule="evenodd"/><path d="M2713.5 373.5 2859.93 458.479" stroke="#000000" stroke-width="11.4583" stroke-miterlimit="8" fill="none" fill-rule="evenodd"/><path d="M0 0 146.427 84.9963" stroke="#000000" stroke-width="11.4583" stroke-miterlimit="8" fill="none" fill-rule="evenodd" transform="matrix(-1 0 0 1 2713.93 564.5)"/><path d="M2713.5 564.5 2713.5 649.496" stroke="#000000" stroke-width="11.4583" stroke-miterlimit="8" fill="none" fill-rule="evenodd"/><path d="M2713.5 564.5 2859.93 649.496" stroke="#000000" stroke-width="11.4583" stroke-miterlimit="8" fill="none" fill-rule="evenodd"/><path d="M2715.63 907.372 2713.5 754.5" stroke="#000000" stroke-width="11.4583" stroke-linecap="round" stroke-miterlimit="8" stroke-dasharray="34.375 45.8333" fill="none" fill-rule="evenodd"/><path d="M2695 935.5 2701.59 935.5 2701.59 907 2729.4 907 2729.4 935.5 2736 935.5 2715.5 956Z" fill-rule="evenodd"/><path d="M1789.5 969.5C1789.5 940.229 1813.23 916.5 1842.5 916.5 1871.77 916.5 1895.5 940.229 1895.5 969.5 1895.5 998.771 1871.77 1022.5 1842.5 1022.5 1813.23 1022.5 1789.5 998.771 1789.5 969.5Z" stroke="#000000" stroke-width="11.4583" stroke-miterlimit="8" fill="#FFFFFF" fill-rule="evenodd"/><path d="M1643.5 1160C1643.5 1131.01 1667.01 1107.5 1696 1107.5 1725 1107.5 1748.5 1131.01 1748.5 1160 1748.5 1188.99 1725 1212.5 1696 1212.5 1667.01 1212.5 1643.5 1188.99 1643.5 1160Z" stroke="#000000" stroke-width="11.4583" stroke-miterlimit="8" fill="#FFFFFF" fill-rule="evenodd"/><path d="M1789.5 1160C1789.5 1131.01 1813.23 1107.5 1842.5 1107.5 1871.77 1107.5 1895.5 1131.01 1895.5 1160 1895.5 1188.99 1871.77 1212.5 1842.5 1212.5 1813.23 1212.5 1789.5 1188.99 1789.5 1160Z" stroke="#000000" stroke-width="11.4583" stroke-miterlimit="8" fill="#FFFFFF" fill-rule="evenodd"/><path d="M1936.5 1160C1936.5 1131.01 1960.01 1107.5 1989 1107.5 2017.99 1107.5 2041.5 1131.01 2041.5 1160 2041.5 1188.99 2017.99 1212.5 1989 1212.5 1960.01 1212.5 1936.5 1188.99 1936.5 1160Z" stroke="#000000" stroke-width="11.4583" stroke-miterlimit="8" fill="#FFFFFF" fill-rule="evenodd"/><path d="M1496.5 1350C1496.5 1321.01 1520.23 1297.5 1549.5 1297.5 1578.77 1297.5 1602.5 1321.01 1602.5 1350 1602.5 1378.99 1578.77 1402.5 1549.5 1402.5 1520.23 1402.5 1496.5 1378.99 1496.5 1350Z" stroke="#000000" stroke-width="11.4583" stroke-miterlimit="8" fill="#FFFFFF" fill-rule="evenodd"/><path d="M1643.5 1350C1643.5 1321.01 1667.01 1297.5 1696 1297.5 1725 1297.5 1748.5 1321.01 1748.5 1350 1748.5 1378.99 1725 1402.5 1696 1402.5 1667.01 1402.5 1643.5 1378.99 1643.5 1350Z" stroke="#000000" stroke-width="11.4583" stroke-miterlimit="8" fill="#FFFFFF" fill-rule="evenodd"/><path d="M1936.5 1350C1936.5 1321.01 1960.01 1297.5 1989 1297.5 2017.99 1297.5 2041.5 1321.01 2041.5 1350 2041.5 1378.99 2017.99 1402.5 1989 1402.5 1960.01 1402.5 1936.5 1378.99 1936.5 1350Z" stroke="#000000" stroke-width="11.4583" stroke-miterlimit="8" fill="#FFFFFF" fill-rule="evenodd"/><path d="M1789.5 1540.5C1789.5 1511.23 1813.23 1487.5 1842.5 1487.5 1871.77 1487.5 1895.5 1511.23 1895.5 1540.5 1895.5 1569.77 1871.77 1593.5 1842.5 1593.5 1813.23 1593.5 1789.5 1569.77 1789.5 1540.5Z" stroke="#000000" stroke-width="11.4583" stroke-miterlimit="8" fill="#FFFFFF" fill-rule="evenodd"/><path d="M1936.5 1540.5C1936.5 1511.23 1960.01 1487.5 1989 1487.5 2017.99 1487.5 2041.5 1511.23 2041.5 1540.5 2041.5 1569.77 2017.99 1593.5 1989 1593.5 1960.01 1593.5 1936.5 1569.77 1936.5 1540.5Z" stroke="#000000" stroke-width="11.4583" stroke-miterlimit="8" fill="#FFFFFF" fill-rule="evenodd"/><path d="M2082.5 1540.5C2082.5 1511.23 2106.01 1487.5 2135 1487.5 2164 1487.5 2187.5 1511.23 2187.5 1540.5 2187.5 1569.77 2164 1593.5 2135 1593.5 2106.01 1593.5 2082.5 1569.77 2082.5 1540.5Z" stroke="#000000" stroke-width="11.4583" stroke-miterlimit="8" fill="#FFFFFF" fill-rule="evenodd"/><path d="M0 0 146.427 84.9963" stroke="#000000" stroke-width="11.4583" stroke-miterlimit="8" fill="none" fill-rule="evenodd" transform="matrix(1 0 0 -1 1695.5 1107.5)"/><path d="M0 0 0.000360892 84.9786" stroke="#000000" stroke-width="11.4583" stroke-miterlimit="8" fill="none" fill-rule="evenodd" transform="matrix(1 0 0 -1 1695.5 1297.48)"/><path d="M0 0 146.427 84.9786" stroke="#000000" stroke-width="11.4583" stroke-miterlimit="8" fill="none" fill-rule="evenodd" transform="matrix(1 0 0 -1 1549.5 1297.48)"/><path d="M0 0 0.000360892 84.9963" stroke="#000000" stroke-width="11.4583" stroke-miterlimit="8" fill="none" fill-rule="evenodd" transform="matrix(1 0 0 -1 1842.5 1107.5)"/><path d="M1842.5 1022.5 1988.93 1107.5" stroke="#000000" stroke-width="11.4583" stroke-miterlimit="8" fill="none" fill-rule="evenodd"/><path d="M1988.5 1212.5 1988.5 1297.48" stroke="#000000" stroke-width="11.4583" stroke-miterlimit="8" fill="none" fill-rule="evenodd"/><path d="M0 0 146.427 84.9963" stroke="#000000" stroke-width="11.4583" stroke-miterlimit="8" fill="none" fill-rule="evenodd" transform="matrix(-1 0 0 1 1988.93 1402.5)"/><path d="M1988.5 1402.5 1988.5 1487.5" stroke="#000000" stroke-width="11.4583" stroke-miterlimit="8" fill="none" fill-rule="evenodd"/><path d="M1988.5 1402.5 2134.93 1487.5" stroke="#000000" stroke-width="11.4583" stroke-miterlimit="8" fill="none" fill-rule="evenodd"/><path d="M0 0 0.000360892 152.871" stroke="#000000" stroke-width="11.4583" stroke-linecap="round" stroke-miterlimit="8" stroke-dasharray="34.375 45.8333" fill="none" fill-rule="evenodd" transform="matrix(1 0 0 -1 1842.5 1746.37)"/><path d="M1823 1774 1829.76 1774 1829.76 1746 1858.24 1746 1858.24 1774 1865 1774 1844 1795Z" fill-rule="evenodd"/><path d="M1790.5 1350.5C1790.5 1321.23 1814.23 1297.5 1843.5 1297.5 1872.77 1297.5 1896.5 1321.23 1896.5 1350.5 1896.5 1379.77 1872.77 1403.5 1843.5 1403.5 1814.23 1403.5 1790.5 1379.77 1790.5 1350.5Z" stroke="#000000" stroke-width="11.4583" stroke-miterlimit="8" fill="#FFFFFF" fill-rule="evenodd"/><path d="M1842.91 1297.68 1695.5 1212.5" stroke="#000000" stroke-width="11.4583" stroke-miterlimit="8" fill="none" fill-rule="evenodd"/><path d="M2512.5 966C2512.5 937.005 2536.23 913.5 2565.5 913.5 2594.77 913.5 2618.5 937.005 2618.5 966 2618.5 994.995 2594.77 1018.5 2565.5 1018.5 2536.23 1018.5 2512.5 994.995 2512.5 966Z" stroke="#000000" stroke-width="11.4583" stroke-miterlimit="8" fill="#FFFFFF" fill-rule="evenodd"/><path d="M2366.5 1156C2366.5 1127.01 2390 1103.5 2419 1103.5 2447.99 1103.5 2471.5 1127.01 2471.5 1156 2471.5 1184.99 2447.99 1208.5 2419 1208.5 2390 1208.5 2366.5 1184.99 2366.5 1156Z" stroke="#000000" stroke-width="11.4583" stroke-miterlimit="8" fill="#FFFFFF" fill-rule="evenodd"/><path d="M2512.5 1156C2512.5 1127.01 2536.23 1103.5 2565.5 1103.5 2594.77 1103.5 2618.5 1127.01 2618.5 1156 2618.5 1184.99 2594.77 1208.5 2565.5 1208.5 2536.23 1208.5 2512.5 1184.99 2512.5 1156Z" stroke="#000000" stroke-width="11.4583" stroke-miterlimit="8" fill="#FFFFFF" fill-rule="evenodd"/><path d="M2659.5 1156C2659.5 1127.01 2683.01 1103.5 2712 1103.5 2740.99 1103.5 2764.5 1127.01 2764.5 1156 2764.5 1184.99 2740.99 1208.5 2712 1208.5 2683.01 1208.5 2659.5 1184.99 2659.5 1156Z" stroke="#000000" stroke-width="11.4583" stroke-miterlimit="8" fill="#FFFFFF" fill-rule="evenodd"/><path d="M2219.5 1346.5C2219.5 1317.23 2243.23 1293.5 2272.5 1293.5 2301.77 1293.5 2325.5 1317.23 2325.5 1346.5 2325.5 1375.77 2301.77 1399.5 2272.5 1399.5 2243.23 1399.5 2219.5 1375.77 2219.5 1346.5Z" stroke="#000000" stroke-width="11.4583" stroke-miterlimit="8" fill="#FFFFFF" fill-rule="evenodd"/><path d="M2366.5 1346.5C2366.5 1317.23 2390 1293.5 2419 1293.5 2447.99 1293.5 2471.5 1317.23 2471.5 1346.5 2471.5 1375.77 2447.99 1399.5 2419 1399.5 2390 1399.5 2366.5 1375.77 2366.5 1346.5Z" stroke="#000000" stroke-width="11.4583" stroke-miterlimit="8" fill="#FFFFFF" fill-rule="evenodd"/><path d="M2659.5 1346.5C2659.5 1317.23 2683.01 1293.5 2712 1293.5 2740.99 1293.5 2764.5 1317.23 2764.5 1346.5 2764.5 1375.77 2740.99 1399.5 2712 1399.5 2683.01 1399.5 2659.5 1375.77 2659.5 1346.5Z" stroke="#000000" stroke-width="11.4583" stroke-miterlimit="8" fill="#FFFFFF" fill-rule="evenodd"/><path d="M2805.5 1346.5C2805.5 1317.23 2829 1293.5 2858 1293.5 2886.99 1293.5 2910.5 1317.23 2910.5 1346.5 2910.5 1375.77 2886.99 1399.5 2858 1399.5 2829 1399.5 2805.5 1375.77 2805.5 1346.5Z" stroke="#000000" stroke-width="11.4583" stroke-miterlimit="8" fill="#FFFFFF" fill-rule="evenodd"/><path d="M2659.5 1537C2659.5 1508.01 2683.01 1484.5 2712 1484.5 2740.99 1484.5 2764.5 1508.01 2764.5 1537 2764.5 1565.99 2740.99 1589.5 2712 1589.5 2683.01 1589.5 2659.5 1565.99 2659.5 1537Z" stroke="#000000" stroke-width="11.4583" stroke-miterlimit="8" fill="#FFFFFF" fill-rule="evenodd"/><path d="M2805.5 1537C2805.5 1508.01 2829 1484.5 2858 1484.5 2886.99 1484.5 2910.5 1508.01 2910.5 1537 2910.5 1565.99 2886.99 1589.5 2858 1589.5 2829 1589.5 2805.5 1565.99 2805.5 1537Z" stroke="#000000" stroke-width="11.4583" stroke-miterlimit="8" fill="#FFFFFF" fill-rule="evenodd"/><path d="M0 0 146.427 84.9963" stroke="#000000" stroke-width="11.4583" stroke-miterlimit="8" fill="none" fill-rule="evenodd" transform="matrix(1 0 0 -1 2418.5 1103.5)"/><path d="M0 0 0.000360892 84.9786" stroke="#000000" stroke-width="11.4583" stroke-miterlimit="8" fill="none" fill-rule="evenodd" transform="matrix(1 0 0 -1 2418.5 1293.48)"/><path d="M0 0 146.427 84.9786" stroke="#000000" stroke-width="11.4583" stroke-miterlimit="8" fill="none" fill-rule="evenodd" transform="matrix(1 0 0 -1 2272.5 1293.48)"/><path d="M0 0 0.000360892 84.9963" stroke="#000000" stroke-width="11.4583" stroke-miterlimit="8" fill="none" fill-rule="evenodd" transform="matrix(1 0 0 -1 2565.5 1103.5)"/><path d="M2565.5 1018.5 2711.93 1103.5" stroke="#000000" stroke-width="11.4583" stroke-miterlimit="8" fill="none" fill-rule="evenodd"/><path d="M2711.5 1208.5 2711.5 1293.48" stroke="#000000" stroke-width="11.4583" stroke-miterlimit="8" fill="none" fill-rule="evenodd"/><path d="M2711.5 1208.5 2857.93 1293.48" stroke="#000000" stroke-width="11.4583" stroke-miterlimit="8" fill="none" fill-rule="evenodd"/><path d="M0 0 146.427 84.9967" stroke="#000000" stroke-width="11.4583" stroke-miterlimit="8" fill="none" fill-rule="evenodd" transform="matrix(-1 0 0 1 2857.93 1399.5)"/><path d="M2858.5 1399.5 2858.5 1484.5" stroke="#000000" stroke-width="11.4583" stroke-miterlimit="8" fill="none" fill-rule="evenodd"/><path d="M2544 1352.5 2550.59 1352.5 2550.59 1323 2578.4 1323 2578.4 1352.5 2585 1352.5 2564.5 1373Z" fill-rule="evenodd"/><path d="M0 0 1.70666 152.403" stroke="#000000" stroke-width="11.4583" stroke-linecap="round" stroke-miterlimit="8" stroke-dasharray="34.375 45.8333" fill="none" fill-rule="evenodd" transform="matrix(1 0 0 -1 2564.5 1326.9)"/></g></svg>