<svg width="3497" height="1173" xmlns="http://www.w3.org/2000/svg" xmlns:xlink="http://www.w3.org/1999/xlink" xml:space="preserve" overflow="hidden"><g transform="translate(-499 -103)"><path d="M1004.5 489C1004.5 471.603 1018.6 457.5 1036 457.5 1053.4 457.5 1067.5 471.603 1067.5 489 1067.5 506.397 1053.4 520.5 1036 520.5 1018.6 520.5 1004.5 506.397 1004.5 489Z" stroke="#3E70A1" stroke-width="11.4583" stroke-miterlimit="8" fill="#FFFFFF" fill-rule="evenodd"/><path d="M1140.5 664C1140.5 646.603 1154.6 632.5 1172 632.5 1189.4 632.5 1203.5 646.603 1203.5 664 1203.5 681.397 1189.4 695.5 1172 695.5 1154.6 695.5 1140.5 681.397 1140.5 664Z" stroke="#000000" stroke-width="11.4583" stroke-miterlimit="8" fill="#FFFFFF" fill-rule="evenodd"/><path d="M1004.5 664C1004.5 646.603 1018.6 632.5 1036 632.5 1053.4 632.5 1067.5 646.603 1067.5 664 1067.5 681.397 1053.4 695.5 1036 695.5 1018.6 695.5 1004.5 681.397 1004.5 664Z" stroke="#000000" stroke-width="11.4583" stroke-miterlimit="8" fill="#FFFFFF" fill-rule="evenodd"/><path d="M868.5 664C868.5 646.603 882.603 632.5 900 632.5 917.397 632.5 931.5 646.603 931.5 664 931.5 681.397 917.397 695.5 900 695.5 882.603 695.5 868.5 681.397 868.5 664Z" stroke="#3E70A1" stroke-width="11.4583" stroke-miterlimit="8" fill="#FFFFFF" fill-rule="evenodd"/><path d="M5.72926 28.6458 5.72953 112.72-5.72881 112.72-5.72907 28.6458ZM-17.1874 34.3751 0 0 17.1876 34.3749Z" transform="matrix(1 0 0 -1 1036.5 633.22)"/><path d="M1148.82 615.414 1054.32 514.414 1062.68 506.586 1157.19 607.585ZM1161.64 595.572 1172.58 632.416 1136.54 619.059Z"/><path d="M23.7556 17.0022 118.263 118.001 109.896 125.83 15.3889 24.8312ZM10.9367 36.8434 0 0 36.0368 13.3567Z" fill="#3E70A1" transform="matrix(1 0 0 -1 899.5 632.416)"/><path d="M935.5 825C935.5 807.603 949.603 793.5 967 793.5 984.397 793.5 998.5 807.603 998.5 825 998.5 842.397 984.397 856.5 967 856.5 949.603 856.5 935.5 842.397 935.5 825Z" stroke="#3E70A1" stroke-width="11.4583" stroke-miterlimit="8" fill="#FFFFFF" fill-rule="evenodd"/><path d="M799.5 825C799.5 807.603 813.379 793.5 830.5 793.5 847.621 793.5 861.5 807.603 861.5 825 861.5 842.397 847.621 856.5 830.5 856.5 813.379 856.5 799.5 842.397 799.5 825Z" stroke="#000000" stroke-width="11.4583" stroke-miterlimit="8" fill="#FFFFFF" fill-rule="evenodd"/><path d="M950.963 769.677 917.212 688.704 927.788 684.296 961.539 765.269ZM969.911 755.573 967.272 793.914 938.182 768.798Z" fill="#3E70A1"/><path d="M16.7519 23.9328 52.3544 105.113 41.8609 109.715 6.25837 28.5349ZM-1.93415 38.3837 0 0 29.5465 24.5775Z" transform="matrix(1 0 0 -1 830.5 793.914)"/><path d="M1141.5 827C1141.5 809.603 1155.6 795.5 1173 795.5 1190.4 795.5 1204.5 809.603 1204.5 827 1204.5 844.397 1190.4 858.5 1173 858.5 1155.6 858.5 1141.5 844.397 1141.5 827Z" stroke="#000000" stroke-width="11.4583" stroke-miterlimit="8" fill="#FFFFFF" fill-rule="evenodd"/><path d="M1167.5 767.086 1166.77 695.558 1178.23 695.442 1178.96 766.969ZM1190.36 761.123 1173.52 795.672 1155.98 761.474Z"/><path d="M1862.5 489C1862.5 471.603 1876.6 457.5 1894 457.5 1911.4 457.5 1925.5 471.603 1925.5 489 1925.5 506.397 1911.4 520.5 1894 520.5 1876.6 520.5 1862.5 506.397 1862.5 489Z" stroke="#000000" stroke-width="11.4583" stroke-miterlimit="8" fill="#FFFFFF" fill-rule="evenodd"/><path d="M1999.5 664C1999.5 646.603 2013.38 632.5 2030.5 632.5 2047.62 632.5 2061.5 646.603 2061.5 664 2061.5 681.397 2047.62 695.5 2030.5 695.5 2013.38 695.5 1999.5 681.397 1999.5 664Z" stroke="#000000" stroke-width="11.4583" stroke-miterlimit="8" fill="#FFFFFF" fill-rule="evenodd"/><path d="M1862.5 664C1862.5 646.603 1876.6 632.5 1894 632.5 1911.4 632.5 1925.5 646.603 1925.5 664 1925.5 681.397 1911.4 695.5 1894 695.5 1876.6 695.5 1862.5 681.397 1862.5 664Z" stroke="#000000" stroke-width="11.4583" stroke-miterlimit="8" fill="#FFFFFF" fill-rule="evenodd"/><path d="M1726.5 664C1726.5 646.603 1740.6 632.5 1758 632.5 1775.4 632.5 1789.5 646.603 1789.5 664 1789.5 681.397 1775.4 695.5 1758 695.5 1740.6 695.5 1726.5 681.397 1726.5 664Z" stroke="#000000" stroke-width="11.4583" stroke-miterlimit="8" fill="#FFFFFF" fill-rule="evenodd"/><path d="M5.72926 28.6458 5.72953 112.72-5.72881 112.72-5.72907 28.6458ZM-17.1874 34.3751 0 0 17.1876 34.3749Z" transform="matrix(1 0 0 -1 1894.5 633.22)"/><path d="M2006.82 615.414 1912.32 514.414 1920.68 506.586 2015.19 607.585ZM2019.64 595.572 2030.58 632.416 1994.54 619.059Z"/><path d="M23.7556 17.0022 118.263 118.001 109.896 125.83 15.3889 24.8312ZM10.9367 36.8434 0 0 36.0368 13.3567Z" transform="matrix(1 0 0 -1 1757.5 632.416)"/><path d="M1793.5 825C1793.5 807.603 1807.6 793.5 1825 793.5 1842.4 793.5 1856.5 807.603 1856.5 825 1856.5 842.397 1842.4 856.5 1825 856.5 1807.6 856.5 1793.5 842.397 1793.5 825Z" stroke="#000000" stroke-width="11.4583" stroke-miterlimit="8" fill="#FFFFFF" fill-rule="evenodd"/><path d="M1657.5 825C1657.5 807.603 1671.6 793.5 1689 793.5 1706.4 793.5 1720.5 807.603 1720.5 825 1720.5 842.397 1706.4 856.5 1689 856.5 1671.6 856.5 1657.5 842.397 1657.5 825Z" stroke="#000000" stroke-width="11.4583" stroke-miterlimit="8" fill="#FFFFFF" fill-rule="evenodd"/><path d="M1808.96 769.677 1775.21 688.704 1785.79 684.296 1819.54 765.269ZM1827.91 755.573 1825.27 793.914 1796.18 768.798Z"/><path d="M16.7519 23.9328 52.3544 105.113 41.8609 109.715 6.25837 28.5349ZM-1.93415 38.3837 0 0 29.5465 24.5775Z" transform="matrix(1 0 0 -1 1688.5 793.914)"/><path d="M2000.5 827C2000.5 809.603 2014.38 795.5 2031.5 795.5 2048.62 795.5 2062.5 809.603 2062.5 827 2062.5 844.397 2048.62 858.5 2031.5 858.5 2014.38 858.5 2000.5 844.397 2000.5 827Z" stroke="#000000" stroke-width="11.4583" stroke-miterlimit="8" fill="#FFFFFF" fill-rule="evenodd"/><path d="M2025.5 767.086 2024.77 695.558 2036.23 695.442 2036.96 766.969ZM2048.36 761.123 2031.52 795.672 2013.98 761.474Z"/><path d="M1794.5 988C1794.5 970.603 1808.6 956.5 1826 956.5 1843.4 956.5 1857.5 970.603 1857.5 988 1857.5 1005.4 1843.4 1019.5 1826 1019.5 1808.6 1019.5 1794.5 1005.4 1794.5 988Z" stroke="#3E70A1" stroke-width="11.4583" stroke-miterlimit="8" fill="#FFFFFF" fill-rule="evenodd"/><path d="M1819.57 928.092 1818.77 856.564 1830.23 856.436 1831.03 927.964ZM1842.42 922.106 1825.62 956.672 1808.05 922.492Z" fill="#3E70A1"/><path d="M2709.5 489C2709.5 471.603 2723.6 457.5 2741 457.5 2758.4 457.5 2772.5 471.603 2772.5 489 2772.5 506.397 2758.4 520.5 2741 520.5 2723.6 520.5 2709.5 506.397 2709.5 489Z" stroke="#000000" stroke-width="11.4583" stroke-miterlimit="8" fill="#FFFFFF" fill-rule="evenodd"/><path d="M2845.5 664C2845.5 646.603 2859.6 632.5 2877 632.5 2894.4 632.5 2908.5 646.603 2908.5 664 2908.5 681.397 2894.4 695.5 2877 695.5 2859.6 695.5 2845.5 681.397 2845.5 664Z" stroke="#000000" stroke-width="11.4583" stroke-miterlimit="8" fill="#FFFFFF" fill-rule="evenodd"/><path d="M2709.5 664C2709.5 646.603 2723.6 632.5 2741 632.5 2758.4 632.5 2772.5 646.603 2772.5 664 2772.5 681.397 2758.4 695.5 2741 695.5 2723.6 695.5 2709.5 681.397 2709.5 664Z" stroke="#000000" stroke-width="11.4583" stroke-miterlimit="8" fill="#FFFFFF" fill-rule="evenodd"/><path d="M2573.5 664C2573.5 646.603 2587.38 632.5 2604.5 632.5 2621.62 632.5 2635.5 646.603 2635.5 664 2635.5 681.397 2621.62 695.5 2604.5 695.5 2587.38 695.5 2573.5 681.397 2573.5 664Z" stroke="#000000" stroke-width="11.4583" stroke-miterlimit="8" fill="#FFFFFF" fill-rule="evenodd"/><path d="M5.72926 28.6458 5.72953 112.72-5.72881 112.72-5.72907 28.6458ZM-17.1874 34.3751 0 0 17.1876 34.3749Z" transform="matrix(1 0 0 -1 2740.5 633.22)"/><path d="M2853.82 615.414 2759.32 514.414 2767.68 506.586 2862.19 607.585ZM2866.64 595.572 2877.58 632.416 2841.54 619.059Z"/><path d="M23.7556 17.0022 118.263 118.001 109.896 125.83 15.3889 24.8312ZM10.9367 36.8434 0 0 36.0368 13.3567Z" transform="matrix(1 0 0 -1 2604.5 632.416)"/><path d="M2640.5 825C2640.5 807.603 2654.38 793.5 2671.5 793.5 2688.62 793.5 2702.5 807.603 2702.5 825 2702.5 842.397 2688.62 856.5 2671.5 856.5 2654.38 856.5 2640.5 842.397 2640.5 825Z" stroke="#000000" stroke-width="11.4583" stroke-miterlimit="8" fill="#FFFFFF" fill-rule="evenodd"/><path d="M2503.5 825C2503.5 807.603 2517.6 793.5 2535 793.5 2552.4 793.5 2566.5 807.603 2566.5 825 2566.5 842.397 2552.4 856.5 2535 856.5 2517.6 856.5 2503.5 842.397 2503.5 825Z" stroke="#000000" stroke-width="11.4583" stroke-miterlimit="8" fill="#FFFFFF" fill-rule="evenodd"/><path d="M2654.96 769.677 2621.21 688.704 2631.79 684.296 2665.54 765.269ZM2673.91 755.573 2671.27 793.914 2642.18 768.798Z"/><path d="M16.7519 23.9328 52.3544 105.113 41.8609 109.715 6.25837 28.5349ZM-1.93415 38.3837 0 0 29.5465 24.5775Z" transform="matrix(1 0 0 -1 2535.5 793.914)"/><path d="M2846.5 827C2846.5 809.603 2860.6 795.5 2878 795.5 2895.4 795.5 2909.5 809.603 2909.5 827 2909.5 844.397 2895.4 858.5 2878 858.5 2860.6 858.5 2846.5 844.397 2846.5 827Z" stroke="#000000" stroke-width="11.4583" stroke-miterlimit="8" fill="#FFFFFF" fill-rule="evenodd"/><path d="M2872.5 767.086 2871.77 695.558 2883.23 695.442 2883.96 766.969ZM2895.36 761.123 2878.52 795.672 2860.98 761.474Z"/><path d="M2641.5 988C2641.5 970.603 2655.6 956.5 2673 956.5 2690.4 956.5 2704.5 970.603 2704.5 988 2704.5 1005.4 2690.4 1019.5 2673 1019.5 2655.6 1019.5 2641.5 1005.4 2641.5 988Z" stroke="#000000" stroke-width="11.4583" stroke-miterlimit="8" fill="#FFFFFF" fill-rule="evenodd"/><path d="M2666.57 928.092 2665.77 856.564 2677.23 856.436 2678.03 927.964ZM2689.43 922.106 2672.62 956.672 2655.05 922.492Z"/><path d="M2642.5 1239C2642.5 1221.6 2656.6 1207.5 2674 1207.5 2691.4 1207.5 2705.5 1221.6 2705.5 1239 2705.5 1256.4 2691.4 1270.5 2674 1270.5 2656.6 1270.5 2642.5 1256.4 2642.5 1239Z" stroke="#3E70A1" stroke-width="11.4583" stroke-miterlimit="8" fill="#FFFFFF" fill-rule="evenodd"/><path d="M2667.21 1180.87 2667.08 1135.04 2678.54 1135.01 2678.67 1180.84ZM2666.99 1100.66 2666.87 1054.83 2678.32 1054.8 2678.45 1100.63ZM2666.77 1020.46 2666.77 1019.52 2678.23 1019.48 2678.23 1020.42ZM2690.11 1175.08 2673.01 1209.5 2655.73 1175.17Z" fill="#3E70A1"/><path d="M2658.53 1223.05 2672.45 1236.96 2686.36 1223.05 2689.15 1225.84 2675.24 1239.75 2689.15 1253.66 2686.54 1256.27 2672.63 1242.36 2658.72 1256.27 2655.93 1253.48 2669.84 1239.57 2655.93 1225.65Z" fill="#3E70A1" fill-rule="evenodd"/><path d="M3663.5 664C3663.5 646.603 3677.6 632.5 3695 632.5 3712.4 632.5 3726.5 646.603 3726.5 664 3726.5 681.397 3712.4 695.5 3695 695.5 3677.6 695.5 3663.5 681.397 3663.5 664Z" stroke="#000000" stroke-width="11.4583" stroke-miterlimit="8" fill="#FFFFFF" fill-rule="evenodd"/><path d="M3527.5 664C3527.5 646.603 3541.6 632.5 3559 632.5 3576.4 632.5 3590.5 646.603 3590.5 664 3590.5 681.397 3576.4 695.5 3559 695.5 3541.6 695.5 3527.5 681.397 3527.5 664Z" stroke="#000000" stroke-width="11.4583" stroke-miterlimit="8" fill="#FFFFFF" fill-rule="evenodd"/><path d="M5.72926 28.6458 5.72953 112.72-5.72881 112.72-5.72907 28.6458ZM-17.1874 34.3751 0 0 17.1876 34.3749Z" transform="matrix(1 0 0 -1 3558.5 633.22)"/><path d="M3671.82 615.414 3577.32 514.414 3585.68 506.586 3680.19 607.585ZM3684.64 595.572 3695.58 632.416 3659.54 619.059Z"/><path d="M23.7556 17.0022 118.263 118.001 109.896 125.83 15.3889 24.8312ZM10.9367 36.8434 0 0 36.0368 13.3567Z" transform="matrix(1 0 0 -1 3422.5 632.416)"/><path d="M3321.5 825C3321.5 807.603 3335.6 793.5 3353 793.5 3370.4 793.5 3384.5 807.603 3384.5 825 3384.5 842.397 3370.4 856.5 3353 856.5 3335.6 856.5 3321.5 842.397 3321.5 825Z" stroke="#000000" stroke-width="11.4583" stroke-miterlimit="8" fill="#FFFFFF" fill-rule="evenodd"/><path d="M3472.96 769.677 3439.21 688.704 3449.79 684.296 3483.54 765.269ZM3491.91 755.573 3489.27 793.914 3460.18 768.798Z"/><path d="M16.7519 23.9328 52.3544 105.113 41.8609 109.715 6.25837 28.5349ZM-1.93415 38.3837 0 0 29.5465 24.5775Z" transform="matrix(1 0 0 -1 3353.5 793.914)"/><path d="M3664.5 827C3664.5 809.603 3678.6 795.5 3696 795.5 3713.4 795.5 3727.5 809.603 3727.5 827 3727.5 844.397 3713.4 858.5 3696 858.5 3678.6 858.5 3664.5 844.397 3664.5 827Z" stroke="#000000" stroke-width="11.4583" stroke-miterlimit="8" fill="#FFFFFF" fill-rule="evenodd"/><path d="M3690.5 767.086 3689.77 695.558 3701.23 695.442 3701.96 766.969ZM3713.36 761.123 3696.52 795.672 3678.98 761.474Z"/><path d="M3484.57 928.092 3483.77 856.564 3495.23 856.436 3496.03 927.964ZM3507.42 922.106 3490.62 956.672 3473.05 922.492Z"/><path d="M3523.13 1234.95 3530.85 1234.23 3530.07 1234.37 3537.73 1232.27 3537.07 1232.51 3544.61 1229.13 3544.06 1229.42 3551.43 1224.84 3550.99 1225.15 3558.11 1219.46 3557.76 1219.77 3564.57 1213.08 3564.29 1213.38 3570.74 1205.77 3570.51 1206.07 3576.54 1197.63 3576.35 1197.92 3581.9 1188.74 3581.74 1189.03 3586.74 1179.21 3586.61 1179.5 3591.01 1169.13 3590.9 1169.43 3594.63 1158.6 3594.54 1158.9 3597.55 1147.7 3597.48 1148.02 3599.7 1136.54 3599.65 1136.88 3601.03 1125.22 3601 1125.57 3601.47 1113.82 3601.47 1114.19 3601 1102.44 3601.02 1102.8 3599.63 1091.14 3599.68 1091.48 3597.43 1080.01 3597.5 1080.33 3594.45 1069.13 3594.55 1069.43 3590.76 1058.6 3590.88 1058.9 3586.42 1048.53 3586.56 1048.82 3581.49 1039 3581.65 1039.29 3576.03 1030.11 3576.23 1030.41 3570.12 1021.97 3570.36 1022.27 3563.82 1014.65 3564.11 1014.96 3557.2 1008.26 3557.55 1008.57 3550.34 1002.89 3551.26 1003.45 3542.48 999.4 3546.32 991.076 3555.59 995.351 3563.41 1001.52 3570.64 1008.52 3577.44 1016.44 3583.76 1025.18 3589.56 1034.65 3594.78 1044.76 3599.36 1055.43 3603.25 1066.56 3606.39 1078.08 3608.71 1089.88 3610.15 1101.89 3610.64 1114.01 3610.15 1126.12 3608.73 1138.12 3606.44 1149.92 3603.35 1161.44 3599.51 1172.57 3594.98 1183.23 3589.83 1193.34 3584.1 1202.81 3577.86 1211.55 3571.15 1219.47 3564.01 1226.48 3556.5 1232.48 3548.64 1237.36 3540.5 1241.02 3532.1 1243.32 3523.98 1244.08ZM3544.74 1009.73 3522.5 988.5 3552.83 983.443Z" fill="#FF0000"/><path d="M3460.5 1239C3460.5 1221.6 3474.6 1207.5 3492 1207.5 3509.4 1207.5 3523.5 1221.6 3523.5 1239 3523.5 1256.4 3509.4 1270.5 3492 1270.5 3474.6 1270.5 3460.5 1256.4 3460.5 1239Z" stroke="#000000" stroke-width="11.4583" stroke-linecap="square" stroke-miterlimit="8" stroke-dasharray="34.375 11.4583" fill="#FFFFFF" fill-rule="evenodd"/><path d="M3476.59 1223.05 3490.5 1236.96 3504.41 1223.05 3507.2 1225.84 3493.29 1239.75 3507.2 1253.66 3504.59 1256.27 3490.68 1242.36 3476.77 1256.27 3473.98 1253.48 3487.89 1239.57 3473.98 1225.65Z" fill-rule="evenodd"/><path d="M3459.15 993.022 3454.2 992.509 3448.94 990.905 3443.9 988.39 3439.11 985.072 3434.57 981.04 3430.29 976.367 3426.29 971.113 3422.58 965.336 3419.18 959.094 3416.13 952.44 3413.46 945.43 3411.19 938.119 3409.37 930.563 3408.02 922.816 3407.18 914.936 3406.89 906.983 3407.17 899.034 3407.99 891.161 3409.31 883.421 3411.09 875.871 3413.3 868.565 3415.91 861.559 3418.89 854.908 3422.2 848.667 3425.82 842.892 3430.05 837.213 3435.94 833.072 3441.21 840.569 3435.93 844.287 3436.97 843.276 3433.29 848.219 3433.49 847.918 3430.05 853.399 3430.22 853.112 3427.06 859.07 3427.19 858.793 3424.34 865.168 3424.45 864.896 3421.94 871.63 3422.03 871.359 3419.9 878.391 3419.98 878.115 3418.26 885.386 3418.32 885.103 3417.05 892.553 3417.09 892.257 3416.31 899.826 3416.33 899.514 3416.06 907.143 3416.06 906.816 3416.33 914.445 3416.31 914.126 3417.12 921.695 3417.07 921.393 3418.37 928.842 3418.31 928.553 3420.07 935.824 3419.99 935.543 3422.17 942.575 3422.08 942.299 3424.65 949.033 3424.53 948.758 3427.45 955.133 3427.31 954.854 3430.55 960.811 3430.38 960.523 3433.9 966.004 3433.69 965.703 3437.46 970.646 3437.19 970.329 3441.17 974.676 3440.83 974.344 3444.99 978.034 3444.55 977.692 3448.85 980.666 3448.29 980.334 3452.69 982.533 3451.98 982.249 3456.45 983.611 3455.59 983.437 3460.1 983.904ZM3427.8 827.129 3458.5 825.5 3441.38 851.04Z" fill="#FF0000"/><path d="M3520.39 821.057 3522.28 820.595 3520.7 821.321 3522.58 819.975 3521.76 820.729 3523.61 818.557 3523.2 819.13 3525 816.191 3524.77 816.611 3526.52 812.965 3526.38 813.282 3528.06 808.987 3527.97 809.237 3529.55 804.353 3529.49 804.558 3530.97 799.144 3530.93 799.319 3532.29 793.433 3532.26 793.589 3533.48 787.289 3533.45 787.501 3535.45 773.9 3535.41 774.162 3536.7 759.618 3536.68 759.883 3537.14 744.866 3537.15 745.309 3536.65 737.771 3536.72 738.345 3535.26 730.866 3535.4 731.385 3533.04 724.024 3533.22 724.485 3530.03 717.302 3530.24 717.71 3526.29 710.762 3526.52 711.123 3521.87 704.47 3522.11 704.792 3516.82 698.492 3517.08 698.78 3511.22 692.893 3511.5 693.152 3505.12 687.737 3505.42 687.97 3498.59 683.086 3498.92 683.296 3491.71 679.002 3492.06 679.189 3484.53 675.543 3485.26 675.824 3475.77 673.101 3478.29 664.289 3488.17 667.121 3496.23 671.026 3503.77 675.52 3510.91 680.626 3517.58 686.287 3523.71 692.447 3529.26 699.051 3534.15 706.045 3538.32 713.378 3541.7 720.997 3544.21 728.849 3545.77 736.875 3546.31 744.923 3545.84 760.293 3544.53 775.101 3542.5 788.939 3541.24 795.421 3539.84 801.474 3538.3 807.08 3536.65 812.192 3534.86 816.771 3532.94 820.789 3530.82 824.233 3528.37 827.102 3525.31 829.292 3522.56 829.963ZM3479.02 683.052 3454.5 664.5 3484.05 656.016Z" fill="#FF0000"/><path d="M0.897096 4.49468-1.62548 4.99817-0.204212 4.45723-2.70706 5.92483-1.84951 5.2757-4.31289 7.64314-3.82319 7.08993-6.22737 10.2929-5.93699 9.85607-8.26224 13.8304-8.07922 13.4845-10.3058 18.1658-10.1834 17.8846-12.2916 23.2086-12.2054 22.9723-14.1755 28.8748-14.1122 28.6694-15.9244 35.0862-15.8765 34.9019-17.511 41.7685-17.4739 41.5981-18.9111 48.8504-18.8821 48.6885-20.1022 56.2621-20.0703 56.0247-21.7805 71.879-21.7572 71.5568-22.3624 87.9254-22.3668 87.4928-22.1302 91.605-22.1879 91.0978-21.488 95.202-21.5935 94.7332-20.4454 98.8213-20.5867 98.3984-19.0052 102.462-19.1705 102.088-17.1706 106.12-17.35 105.792-14.9466 109.784-15.1324 109.5-12.3405 113.443-12.5272 113.198-9.36166 117.085-9.63566 116.778-2.24362 124.351-2.5903 124.031 6.11676 131.283 5.79516 131.039 15.6977 137.905 15.3988 137.715 26.3772 144.131 26.0963 143.98 38.0311 149.882 37.7628 149.76 50.5345 155.084 50.2737 154.985 63.7626 159.666 63.5045 159.585 77.5911 163.559 77.331 163.494 91.8959 166.697 91.6296 166.647 106.553 169.014 106.179 168.971 113.75 169.541 113.062 178.682 105.303 178.097 90.0595 175.679 75.2312 172.418 60.8851 168.371 47.1363 163.599 34.0996 158.165 21.8895 152.126 10.62 145.539 0.40552 138.456-8.63854 130.923-16.3396 123.033-19.7327 118.866-22.712 114.658-25.2995 110.361-27.4735 105.978-29.2102 101.515-30.4838 96.9801-31.2671 92.3867-31.5308 87.8031-30.9117 71.0566-29.1713 54.9224-27.9189 47.1492-26.4487 39.7306-24.7719 32.6865-22.9046 26.0747-20.8607 19.9508-18.6497 14.3671-16.2731 9.37034-13.7163 5.00024-10.9319 1.29071-7.81091-1.70876-4.17581-3.84028-0.897096-4.49468ZM109.672 160.107 136.28 175.512 107.991 187.555Z" fill="#FF0000" transform="matrix(1 -1.22465e-16 -1.22465e-16 -1 3391.5 664.012)"/><path d="M3527.5 489C3527.5 471.603 3541.6 457.5 3559 457.5 3576.4 457.5 3590.5 471.603 3590.5 489 3590.5 506.397 3576.4 520.5 3559 520.5 3541.6 520.5 3527.5 506.397 3527.5 489Z" stroke="#000000" stroke-width="11.4583" stroke-miterlimit="8" fill="#FFFFFF" fill-rule="evenodd"/><path d="M3391.5 664C3391.5 646.603 3405.6 632.5 3423 632.5 3440.4 632.5 3454.5 646.603 3454.5 664 3454.5 681.397 3440.4 695.5 3423 695.5 3405.6 695.5 3391.5 681.397 3391.5 664Z" stroke="#000000" stroke-width="11.4583" stroke-miterlimit="8" fill="#FFFFFF" fill-rule="evenodd"/><path d="M3458.5 825C3458.5 807.603 3472.6 793.5 3490 793.5 3507.4 793.5 3521.5 807.603 3521.5 825 3521.5 842.397 3507.4 856.5 3490 856.5 3472.6 856.5 3458.5 842.397 3458.5 825Z" stroke="#000000" stroke-width="11.4583" stroke-miterlimit="8" fill="#FFFFFF" fill-rule="evenodd"/><path d="M3459.5 988C3459.5 970.603 3473.6 956.5 3491 956.5 3508.4 956.5 3522.5 970.603 3522.5 988 3522.5 1005.4 3508.4 1019.5 3491 1019.5 3473.6 1019.5 3459.5 1005.4 3459.5 988Z" stroke="#000000" stroke-width="11.4583" stroke-miterlimit="8" fill="#FFFFFF" fill-rule="evenodd"/><text font-family="CMU Serif,CMU Serif_MSFontService,sans-serif" font-weight="500" font-size="82" transform="matrix(1 0 0 1 848.285 345)">Selektion</text><text font-family="CMU Serif,CMU Serif_MSFontService,sans-serif" font-weight="500" font-size="82" transform="matrix(1 0 0 1 1651.08 345)">Expansion</text><text font-family="CMU Serif,CMU Serif_MSFontService,sans-serif" font-weight="500" font-size="82" transform="matrix(1 0 0 1 2470.77 345)">Simulation</text><text font-family="CMU Serif,CMU Serif_MSFontService,sans-serif" font-weight="500" font-size="82" transform="matrix(1 0 0 1 3278.28 345)">Backpropagation</text><path d="M28.6458-5.72914 364.384-5.72881 364.384 5.72953 28.6458 5.7292ZM34.375 17.1875 0 0 34.375-17.1875Z" transform="matrix(-1 0 0 1 1607.88 324.5)"/><path d="M28.6458-5.72914 364.384-5.72881 364.384 5.72953 28.6458 5.7292ZM34.375 17.1875 0 0 34.375-17.1875Z" transform="matrix(-1 0 0 1 2434.88 324.5)"/><path d="M28.6456-5.72914 364.384-5.72881 364.384 5.72953 28.6456 5.7292ZM34.375 17.1875 0 0 34.375-17.1875Z" transform="matrix(-1 0 0 1 3261.88 324.5)"/><path d="M1608.5 133.834C1608.5 121.499 1618.5 111.5 1630.83 111.5L2855.17 111.5C2867.5 111.5 2877.5 121.499 2877.5 133.834L2877.5 223.166C2877.5 235.501 2867.5 245.5 2855.17 245.5L1630.83 245.5C1618.5 245.5 1608.5 235.501 1608.5 223.166Z" stroke="#000000" stroke-width="4.58333" stroke-miterlimit="8" fill="#FFFFFF" fill-rule="evenodd"/><text font-family="CMU Serif,CMU Serif_MSFontService,sans-serif" font-weight="500" font-size="82" transform="matrix(1 0 0 1 1665.27 199)">Bis Entscheidungszeit vorbei ist</text><path d="M0-5.72917 1109.31-5.72917 1109.31 152.251 855.502 152.251 855.502 140.793 1103.58 140.793 1097.85 146.522 1097.85 0 1103.58 5.72917 0 5.72917ZM861.231 163.709 826.856 146.522 861.231 129.334Z" transform="matrix(-1 1.22465e-16 1.22465e-16 1 1608.36 178.5)"/><path d="M3907.25 319.293 3989.76 319.293 3984.03 325.022 3984.03 178.5 3989.76 184.229 2906.15 184.229 2906.15 172.771 3995.49 172.771 3995.49 330.751 3907.25 330.751ZM2911.88 195.687 2877.5 178.5 2911.88 161.312Z"/></g></svg>