<svg width="3295" height="2009" xmlns="http://www.w3.org/2000/svg" xmlns:xlink="http://www.w3.org/1999/xlink" xml:space="preserve" overflow="hidden"><g transform="translate(-288 -132)"><path d="M1667.86 1764.61 1460.04 1521.96 1473.96 1510.04 1681.78 1752.68ZM1689.74 1733.79 1704.64 1793.45 1647.97 1769.57Z"/><path d="M1961.5 275C1961.5 199.061 2023.06 137.5 2099 137.5 2174.94 137.5 2236.5 199.061 2236.5 275 2236.5 350.939 2174.94 412.5 2099 412.5 2023.06 412.5 1961.5 350.939 1961.5 275Z" stroke="#000000" stroke-width="11.4583" stroke-miterlimit="8" fill="#DCF0C6" fill-rule="evenodd"/><text font-family="Calibri,Calibri_MSFontService,sans-serif" font-weight="400" font-size="83" transform="matrix(1 0 0 1 2053.83 302)">PV</text><path d="M1961.5 847C1961.5 771.061 2023.06 709.5 2099 709.5 2174.94 709.5 2236.5 771.061 2236.5 847 2236.5 922.939 2174.94 984.5 2099 984.5 2023.06 984.5 1961.5 922.939 1961.5 847Z" stroke="#000000" stroke-width="11.4583" stroke-miterlimit="8" fill="#F7CDCC" fill-rule="evenodd"/><text font-family="Calibri,Calibri_MSFontService,sans-serif" font-weight="400" font-size="83" transform="matrix(1 0 0 1 2029.85 874)">CUT</text><path d="M1961.5 1419C1961.5 1343.06 2023.06 1281.5 2099 1281.5 2174.94 1281.5 2236.5 1343.06 2236.5 1419 2236.5 1494.94 2174.94 1556.5 2099 1556.5 2023.06 1556.5 1961.5 1494.94 1961.5 1419Z" stroke="#000000" stroke-width="11.4583" stroke-miterlimit="8" fill="#97D0FF" fill-rule="evenodd"/><text font-family="Calibri,Calibri_MSFontService,sans-serif" font-weight="400" font-size="83" transform="matrix(1 0 0 1 2039.59 1446)">ALL</text><path d="M1750.5 1991C1750.5 1915.06 1812.06 1853.5 1888 1853.5 1963.94 1853.5 2025.5 1915.06 2025.5 1991 2025.5 2066.94 1963.94 2128.5 1888 2128.5 1812.06 2128.5 1750.5 2066.94 1750.5 1991Z" stroke="#000000" stroke-width="11.4583" stroke-miterlimit="8" fill="#F7CDCC" fill-rule="evenodd"/><text font-family="Calibri,Calibri_MSFontService,sans-serif" font-weight="400" font-size="83" transform="matrix(1 0 0 1 1819.07 2018)">CUT</text><path d="M2172.5 1998C2172.5 1922.06 2234.06 1860.5 2310 1860.5 2385.94 1860.5 2447.5 1922.06 2447.5 1998 2447.5 2073.94 2385.94 2135.5 2310 2135.5 2234.06 2135.5 2172.5 2073.94 2172.5 1998Z" stroke="#000000" stroke-width="11.4583" stroke-miterlimit="8" fill="#F7CDCC" fill-rule="evenodd"/><text font-family="Calibri,Calibri_MSFontService,sans-serif" font-weight="400" font-size="83" transform="matrix(1 0 0 1 2240.62 2025)">CUT</text><path d="M868.5 847C868.5 771.061 930.061 709.5 1006 709.5 1081.94 709.5 1143.5 771.061 1143.5 847 1143.5 922.939 1081.94 984.5 1006 984.5 930.061 984.5 868.5 922.939 868.5 847Z" stroke="#000000" stroke-width="11.4583" stroke-miterlimit="8" fill="#DCF0C6" fill-rule="evenodd"/><text font-family="Calibri,Calibri_MSFontService,sans-serif" font-weight="400" font-size="83" transform="matrix(1 0 0 1 961.15 874)">PV</text><path d="M1232.5 1991C1232.5 1915.06 1294.06 1853.5 1370 1853.5 1445.94 1853.5 1507.5 1915.06 1507.5 1991 1507.5 2066.94 1445.94 2128.5 1370 2128.5 1294.06 2128.5 1232.5 2066.94 1232.5 1991Z" stroke="#000000" stroke-width="11.4583" stroke-miterlimit="8" fill="#97D0FF" fill-rule="evenodd"/><text font-family="Calibri,Calibri_MSFontService,sans-serif" font-weight="400" font-size="83" transform="matrix(1 0 0 1 1311.13 2018)">ALL</text><path d="M1232.5 1419C1232.5 1343.06 1294.06 1281.5 1370 1281.5 1445.94 1281.5 1507.5 1343.06 1507.5 1419 1507.5 1494.94 1445.94 1556.5 1370 1556.5 1294.06 1556.5 1232.5 1494.94 1232.5 1419Z" stroke="#000000" stroke-width="11.4583" stroke-miterlimit="8" fill="#F7CDCC" fill-rule="evenodd"/><text font-family="Calibri,Calibri_MSFontService,sans-serif" font-weight="400" font-size="83" transform="matrix(1 0 0 1 1301.39 1446)">CUT</text><path d="M504.5 1419C504.5 1343.06 566.061 1281.5 642 1281.5 717.939 1281.5 779.5 1343.06 779.5 1419 779.5 1494.94 717.939 1556.5 642 1556.5 566.061 1556.5 504.5 1494.94 504.5 1419Z" stroke="#000000" stroke-width="11.4583" stroke-miterlimit="8" fill="#DCF0C6" fill-rule="evenodd"/><text font-family="Calibri,Calibri_MSFontService,sans-serif" font-weight="400" font-size="83" transform="matrix(1 0 0 1 596.923 1446)">PV</text><path d="M293.5 1991C293.5 1915.06 355.061 1853.5 431 1853.5 506.939 1853.5 568.5 1915.06 568.5 1991 568.5 2066.94 506.939 2128.5 431 2128.5 355.061 2128.5 293.5 2066.94 293.5 1991Z" stroke="#000000" stroke-width="11.4583" stroke-miterlimit="8" fill="#DCF0C6" fill-rule="evenodd"/><text font-family="Calibri,Calibri_MSFontService,sans-serif" font-weight="400" font-size="83" transform="matrix(1 0 0 1 386.152 2018)">PV</text><path d="M715.5 1998C715.5 1922.06 777.061 1860.5 853 1860.5 928.939 1860.5 990.5 1922.06 990.5 1998 990.5 2073.94 928.939 2135.5 853 2135.5 777.061 2135.5 715.5 2073.94 715.5 1998Z" stroke="#000000" stroke-width="11.4583" stroke-miterlimit="8" fill="#F7CDCC" fill-rule="evenodd"/><text font-family="Calibri,Calibri_MSFontService,sans-serif" font-weight="400" font-size="83" transform="matrix(1 0 0 1 783.713 2025)">CUT</text><path d="M46.6332 3.17579 1095.08 288.147 1090.27 305.839 41.8246 20.8673ZM45.8616 40.963 0 0 60.2873-12.1115Z" transform="matrix(1 0 0 -1 1006 708.993)"/><path d="M9.16672 45.8333 9.16703 296.993-9.16631 296.993-9.16661 45.8333ZM-27.4999 55 0 0 27.5001 55Z" transform="matrix(1 0 0 -1 2098 708.993)"/><path d="M9.16672 45.8333 9.16703 296.993-9.16631 296.993-9.16661 45.8333ZM-27.4999 55 0 0 27.5001 55Z" transform="matrix(1 0 0 -1 2098 1280.99)"/><path d="M34.0017 32.0721 218.247 291.687 203.296 302.298 19.0508 42.6826ZM9.40503 60.7684 0 0 54.2577 28.937Z" transform="matrix(1 0 0 -1 1888 1852.99)"/><path d="M2275.12 1827.43 2090.47 1561.22 2105.53 1550.78 2290.18 1816.99ZM2300.02 1799 2308.77 1859.87 2254.83 1830.35Z"/><path d="M1328.91 1259.13 1000.21 991.104 1011.79 976.896 1340.5 1244.92ZM1344.98 1224.92 1370.23 1280.99 1310.22 1267.55Z"/><path d="M40.8203 22.7688 354.152 290.018 342.254 303.967 28.9231 36.7175ZM24.0002 56.6148 0 0 59.692 14.7687Z" transform="matrix(1 0 0 -1 641 1280.99)"/><path d="M34.0017 32.0721 218.247 291.687 203.296 302.298 19.0508 42.6826ZM9.40503 60.7684 0 0 54.2577 28.937Z" transform="matrix(1 0 0 -1 431 1852.99)"/><path d="M818.117 1827.43 633.468 1561.22 648.532 1550.78 833.182 1816.99ZM843.021 1799 851.772 1859.87 797.829 1830.35Z"/><path d="M3054.5 847C3054.5 771.061 3115.84 709.5 3191.5 709.5 3267.16 709.5 3328.5 771.061 3328.5 847 3328.5 922.939 3267.16 984.5 3191.5 984.5 3115.84 984.5 3054.5 922.939 3054.5 847Z" stroke="#000000" stroke-width="11.4583" stroke-miterlimit="8" fill="#F7CDCC" fill-rule="evenodd"/><text font-family="Calibri,Calibri_MSFontService,sans-serif" font-weight="400" font-size="83" transform="matrix(1 0 0 1 3122.52 874)">CUT</text><path d="M3144.05 705.817 2095.6 420.846 2100.4 403.154 3148.85 688.126ZM3144.82 668.03 3190.68 708.993 3130.39 721.104Z"/><path d="M3051.5 1418C3051.5 1342.06 3113.06 1280.5 3189 1280.5 3264.94 1280.5 3326.5 1342.06 3326.5 1418 3326.5 1493.94 3264.94 1555.5 3189 1555.5 3113.06 1555.5 3051.5 1493.94 3051.5 1418Z" stroke="#000000" stroke-width="11.4583" stroke-miterlimit="8" fill="#97D0FF" fill-rule="evenodd"/><text font-family="Calibri,Calibri_MSFontService,sans-serif" font-weight="400" font-size="83" transform="matrix(1 0 0 1 3129.72 1445)">ALL</text><path d="M2840.5 1989.5C2840.5 1913.84 2902.06 1852.5 2978 1852.5 3053.94 1852.5 3115.5 1913.84 3115.5 1989.5 3115.5 2065.16 3053.94 2126.5 2978 2126.5 2902.06 2126.5 2840.5 2065.16 2840.5 1989.5Z" stroke="#000000" stroke-width="11.4583" stroke-miterlimit="8" fill="#F7CDCC" fill-rule="evenodd"/><text font-family="Calibri,Calibri_MSFontService,sans-serif" font-weight="400" font-size="83" transform="matrix(1 0 0 1 2909.21 2016)">CUT</text><path d="M3262.5 1996C3262.5 1920.06 3324.06 1858.5 3400 1858.5 3475.94 1858.5 3537.5 1920.06 3537.5 1996 3537.5 2071.94 3475.94 2133.5 3400 2133.5 3324.06 2133.5 3262.5 2071.94 3262.5 1996Z" stroke="#000000" stroke-width="11.4583" stroke-miterlimit="8" fill="#F7CDCC" fill-rule="evenodd"/><text font-family="Calibri,Calibri_MSFontService,sans-serif" font-weight="400" font-size="83" transform="matrix(1 0 0 1 3330.76 2023)">CUT</text><path d="M9.55998 45.753 11.7048 295.476-6.62781 295.633-8.77268 45.9104ZM-27.0266 55.2342 0 0 27.9714 54.7618Z" transform="matrix(1 0 0 -1 3188 1279.55)"/><path d="M34.0017 32.0721 218.247 291.687 203.296 302.298 19.0508 42.6826ZM9.40503 60.7684 0 0 54.2577 28.937Z" transform="matrix(1 0 0 -1 2978 1851.99)"/><path d="M3365.12 1826.43 3180.47 1560.22 3195.53 1549.78 3380.18 1815.99ZM3390.02 1798 3398.77 1858.87 3344.83 1829.35Z"/><path d="M9.16672 45.8333 9.16703 296.993-9.16631 296.993-9.16661 45.8333ZM-27.4999 55 0 0 27.5001 55Z" transform="matrix(1 0 0 -1 1370 1852.99)"/><path d="M0 0 2.40138 137.561" stroke="#C00000" stroke-width="18.3333" stroke-linecap="round" stroke-miterlimit="8" fill="none" fill-rule="evenodd" transform="matrix(-0.981224 -0.19287 -0.19287 0.981224 1589.04 1574.09)"/><path d="M1641.85 1655.79 1507.33 1626.9" stroke="#C00000" stroke-width="18.3333" stroke-linecap="round" stroke-miterlimit="8" fill="none" fill-rule="evenodd"/><path d="M2392.86 1191.05 2188.01 949.935 2201.99 938.065 2406.84 1179.17ZM2414.87 1160.32 2429.53 1220.04 2372.96 1195.93Z"/><path d="M0 0 2.40138 137.561" stroke="#C00000" stroke-width="18.3333" stroke-linecap="round" stroke-miterlimit="8" fill="none" fill-rule="evenodd" transform="matrix(-0.981224 -0.19287 -0.19287 0.981224 2314.38 1000.82)"/><path d="M2367.19 1082.52 2232.68 1053.63" stroke="#C00000" stroke-width="18.3333" stroke-linecap="round" stroke-miterlimit="8" fill="none" fill-rule="evenodd"/><path d="M3491.03 1190.74 3281.09 950.025 3294.91 937.975 3504.85 1178.69ZM3512.64 1159.73 3528.06 1219.25 3471.19 1195.88Z"/><path d="M0 0 2.40138 137.561" stroke="#C00000" stroke-width="18.3333" stroke-linecap="round" stroke-miterlimit="8" fill="none" fill-rule="evenodd" transform="matrix(-0.981224 -0.19287 -0.19287 0.981224 3412.6 1000.03)"/><path d="M3465.41 1081.73 3330.89 1052.85" stroke="#C00000" stroke-width="18.3333" stroke-linecap="round" stroke-miterlimit="8" fill="none" fill-rule="evenodd"/></g></svg>