<svg width="3020" height="1962" xmlns="http://www.w3.org/2000/svg" xmlns:xlink="http://www.w3.org/1999/xlink" xml:space="preserve" overflow="hidden"><g transform="translate(-437 -324)"><path d="M466.5 1970C466.5 1916.7 509.928 1873.5 563.5 1873.5 617.071 1873.5 660.5 1916.7 660.5 1970 660.5 2023.3 617.071 2066.5 563.5 2066.5 509.928 2066.5 466.5 2023.3 466.5 1970Z" stroke="#FF0000" stroke-width="11.4583" stroke-miterlimit="8" fill="#FFFFFF" fill-rule="evenodd"/><text font-family="CMU Serif,CMU Serif_MSFontService,sans-serif" font-weight="500" font-size="128" transform="matrix(1 0 0 1 514.913 2002)">H</text><path d="M734.5 1970C734.5 1916.7 777.928 1873.5 831.5 1873.5 885.072 1873.5 928.5 1916.7 928.5 1970 928.5 2023.3 885.072 2066.5 831.5 2066.5 777.928 2066.5 734.5 2023.3 734.5 1970Z" stroke="#FF0000" stroke-width="11.4583" stroke-miterlimit="8" fill="#FFFFFF" fill-rule="evenodd"/><text font-family="CMU Serif,CMU Serif_MSFontService,sans-serif" font-weight="500" font-size="128" transform="matrix(1 0 0 1 807.76 2002)">I</text><path d="M1003.5 1970C1003.5 1916.7 1046.7 1873.5 1100 1873.5 1153.3 1873.5 1196.5 1916.7 1196.5 1970 1196.5 2023.3 1153.3 2066.5 1100 2066.5 1046.7 2066.5 1003.5 2023.3 1003.5 1970Z" stroke="#FF0000" stroke-width="11.4583" stroke-miterlimit="8" fill="#FFFFFF" fill-rule="evenodd"/><text font-family="CMU Serif,CMU Serif_MSFontService,sans-serif" font-weight="500" font-size="128" transform="matrix(1 0 0 1 1066.72 2002)">J</text><path d="M1271.5 1970C1271.5 1916.7 1314.7 1873.5 1368 1873.5 1421.3 1873.5 1464.5 1916.7 1464.5 1970 1464.5 2023.3 1421.3 2066.5 1368 2066.5 1314.7 2066.5 1271.5 2023.3 1271.5 1970Z" stroke="#7F7F7F" stroke-width="11.4583" stroke-miterlimit="8" fill="#FFFFFF" fill-rule="evenodd"/><text font-family="CMU Serif,CMU Serif_MSFontService,sans-serif" font-weight="500" font-size="128" transform="matrix(1 0 0 1 1317.37 2002)">K</text><path d="M1539.5 1970C1539.5 1916.7 1582.7 1873.5 1636 1873.5 1689.3 1873.5 1732.5 1916.7 1732.5 1970 1732.5 2023.3 1689.3 2066.5 1636 2066.5 1582.7 2066.5 1539.5 2023.3 1539.5 1970Z" stroke="#FF0000" stroke-width="11.4583" stroke-miterlimit="8" fill="#FFFFFF" fill-rule="evenodd"/><text font-family="CMU Serif,CMU Serif_MSFontService,sans-serif" font-weight="500" font-size="128" transform="matrix(1 0 0 1 1595.23 2002)">L</text><path d="M1807.5 1970C1807.5 1916.7 1850.7 1873.5 1904 1873.5 1957.3 1873.5 2000.5 1916.7 2000.5 1970 2000.5 2023.3 1957.3 2066.5 1904 2066.5 1850.7 2066.5 1807.5 2023.3 1807.5 1970Z" stroke="#FF0000" stroke-width="11.4583" stroke-miterlimit="8" fill="#FFFFFF" fill-rule="evenodd"/><text font-family="CMU Serif,CMU Serif_MSFontService,sans-serif" font-weight="500" font-size="128" transform="matrix(1 0 0 1 1844.74 2002)">M</text><path d="M2075.5 1970C2075.5 1916.7 2118.7 1873.5 2172 1873.5 2225.3 1873.5 2268.5 1916.7 2268.5 1970 2268.5 2023.3 2225.3 2066.5 2172 2066.5 2118.7 2066.5 2075.5 2023.3 2075.5 1970Z" stroke="#7F7F7F" stroke-width="11.4583" stroke-miterlimit="8" fill="#FFFFFF" fill-rule="evenodd"/><text font-family="CMU Serif,CMU Serif_MSFontService,sans-serif" font-weight="500" font-size="128" transform="matrix(1 0 0 1 2123.46 2002)">N</text><path d="M2343.5 1970C2343.5 1916.7 2386.7 1873.5 2440 1873.5 2493.3 1873.5 2536.5 1916.7 2536.5 1970 2536.5 2023.3 2493.3 2066.5 2440 2066.5 2386.7 2066.5 2343.5 2023.3 2343.5 1970Z" stroke="#7F7F7F" stroke-width="11.4583" stroke-miterlimit="8" fill="#FFFFFF" fill-rule="evenodd"/><text font-family="CMU Serif,CMU Serif_MSFontService,sans-serif" font-weight="500" font-size="128" transform="matrix(1 0 0 1 2389.87 2002)">O</text><path d="M10.9733 27.0738 71.2258 344.334 59.9687 346.471-0.28382 29.2117ZM-10.472 36.9782 0 0 23.2994 30.5645Z" transform="matrix(1 0 0 -1 563.5 1872.9)"/><path d="M820.309 1845.84 759.872 1528.57 771.128 1526.43 831.565 1843.69ZM841.749 1835.92 831.297 1872.9 807.981 1842.35Z"/><path d="M10.9884 27.0676 71.4251 344.33 60.1692 346.475-0.267517 29.2118ZM-10.4513 36.9841 0 0 23.3165 30.5515Z" transform="matrix(1 0 0 -1 1099.5 1872.9)"/><path d="M1356.31 1845.84 1295.87 1528.57 1307.13 1526.43 1367.56 1843.69ZM1377.75 1835.92 1367.3 1872.9 1343.98 1842.35Z" fill="#7F7F7F"/><path d="M1893.31 1845.84 1832.87 1528.57 1844.13 1526.43 1904.56 1843.69ZM1914.75 1835.92 1904.3 1872.9 1880.98 1842.35Z"/><path d="M10.9884 27.0676 71.4251 344.33 60.1692 346.475-0.267517 29.2118ZM-10.4513 36.9841 0 0 23.3165 30.5515Z" transform="matrix(1 0 0 -1 1635.5 1872.9)"/><path d="M2429.31 1845.84 2368.87 1528.57 2380.13 1526.43 2440.56 1843.69ZM2450.75 1835.92 2440.3 1872.9 2416.98 1842.35Z" fill="#7F7F7F"/><path d="M10.9884 27.0676 71.4251 344.33 60.1692 346.475-0.267517 29.2118ZM-10.4513 36.9841 0 0 23.3165 30.5515Z" fill="#7F7F7F" transform="matrix(1 0 0 -1 2172.5 1872.9)"/><path d="M1137.5 1459C1137.5 1405.7 1180.7 1362.5 1234 1362.5 1287.3 1362.5 1330.5 1405.7 1330.5 1459 1330.5 1512.3 1287.3 1555.5 1234 1555.5 1180.7 1555.5 1137.5 1512.3 1137.5 1459Z" stroke="#70AD47" stroke-width="11.4583" stroke-miterlimit="8" fill="#FFFFFF" fill-rule="evenodd"/><path d="M1673.5 1459C1673.5 1405.7 1716.7 1362.5 1770 1362.5 1823.3 1362.5 1866.5 1405.7 1866.5 1459 1866.5 1512.3 1823.3 1555.5 1770 1555.5 1716.7 1555.5 1673.5 1512.3 1673.5 1459Z" stroke="#70AD47" stroke-width="11.4583" stroke-miterlimit="8" fill="#FFFFFF" fill-rule="evenodd"/><path d="M2209.5 1459C2209.5 1405.7 2252.7 1362.5 2306 1362.5 2359.3 1362.5 2402.5 1405.7 2402.5 1459 2402.5 1512.3 2359.3 1555.5 2306 1555.5 2252.7 1555.5 2209.5 1512.3 2209.5 1459Z" stroke="#7F7F7F" stroke-width="11.4583" stroke-miterlimit="8" fill="#FFFFFF" fill-rule="evenodd"/><path d="M2209.5 1459C2209.5 1405.7 2252.7 1362.5 2306 1362.5 2359.3 1362.5 2402.5 1405.7 2402.5 1459 2402.5 1512.3 2359.3 1555.5 2306 1555.5 2252.7 1555.5 2209.5 1512.3 2209.5 1459Z" stroke="#7F7F7F" stroke-width="11.4583" stroke-miterlimit="8" fill="#FFFFFF" fill-rule="evenodd"/><text font-family="CMU Serif,CMU Serif_MSFontService,sans-serif" font-weight="500" font-size="128" transform="matrix(1 0 0 1 2255.23 1492)">G</text><path d="M1673.5 1459C1673.5 1405.7 1716.7 1362.5 1770 1362.5 1823.3 1362.5 1866.5 1405.7 1866.5 1459 1866.5 1512.3 1823.3 1555.5 1770 1555.5 1716.7 1555.5 1673.5 1512.3 1673.5 1459Z" stroke="#70AD47" stroke-width="11.4583" stroke-miterlimit="8" fill="#FFFFFF" fill-rule="evenodd"/><text font-family="CMU Serif,CMU Serif_MSFontService,sans-serif" font-weight="500" font-size="128" transform="matrix(1 0 0 1 1727.58 1492)">F</text><path d="M1137.5 1459C1137.5 1405.7 1180.7 1362.5 1234 1362.5 1287.3 1362.5 1330.5 1405.7 1330.5 1459 1330.5 1512.3 1287.3 1555.5 1234 1555.5 1180.7 1555.5 1137.5 1512.3 1137.5 1459Z" stroke="#70AD47" stroke-width="11.4583" stroke-miterlimit="8" fill="#FFFFFF" fill-rule="evenodd"/><text font-family="CMU Serif,CMU Serif_MSFontService,sans-serif" font-weight="500" font-size="128" transform="matrix(1 0 0 1 1189.61 1492)">E</text><path d="M600.5 1459C600.5 1405.7 643.705 1362.5 697 1362.5 750.295 1362.5 793.5 1405.7 793.5 1459 793.5 1512.3 750.295 1555.5 697 1555.5 643.705 1555.5 600.5 1512.3 600.5 1459Z" stroke="#70AD47" stroke-width="11.4583" stroke-miterlimit="8" fill="#FFFFFF" fill-rule="evenodd"/><text font-family="CMU Serif,CMU Serif_MSFontService,sans-serif" font-weight="500" font-size="128" transform="matrix(1 0 0 1 647.916 1492)">D</text><path d="M1214.05 1340.98 1028.54 1020.37 1038.46 1014.63 1223.97 1335.24ZM1231.02 1324.54 1233.36 1362.9 1201.27 1341.76Z"/><path d="M19.3055 21.9249 204.819 342.533 194.901 348.272 9.38781 27.6636ZM2.33945 38.3611 0 0 32.0926 21.1451Z" transform="matrix(1 0 0 -1 697.5 1362.9)"/><path d="M19.3055 21.9249 204.819 342.533 194.901 348.272 9.38781 27.6636ZM2.33945 38.3611 0 0 32.0926 21.1451Z" transform="matrix(1 0 0 -1 1769.5 1362.9)"/><path d="M2287.05 1340.98 2101.54 1020.37 2111.46 1014.63 2296.97 1335.24ZM2304.02 1324.54 2306.36 1362.9 2274.27 1341.76Z" fill="#7F7F7F"/><path d="M1941.5 949C1941.5 895.704 1984.7 852.5 2038 852.5 2091.3 852.5 2134.5 895.704 2134.5 949 2134.5 1002.3 2091.3 1045.5 2038 1045.5 1984.7 1045.5 1941.5 1002.3 1941.5 949Z" stroke="#FF0000" stroke-width="11.4583" stroke-miterlimit="8" fill="#FFFFFF" fill-rule="evenodd"/><text font-family="CMU Serif,CMU Serif_MSFontService,sans-serif" font-weight="500" font-size="128" transform="matrix(1 0 0 1 1991.41 982)">C</text><path d="M868.5 949C868.5 895.704 911.929 852.5 965.5 852.5 1019.07 852.5 1062.5 895.704 1062.5 949 1062.5 1002.3 1019.07 1045.5 965.5 1045.5 911.929 1045.5 868.5 1002.3 868.5 949Z" stroke="#FF0000" stroke-width="11.4583" stroke-miterlimit="8" fill="#FFFFFF" fill-rule="evenodd"/><text font-family="CMU Serif,CMU Serif_MSFontService,sans-serif" font-weight="500" font-size="128" transform="matrix(1 0 0 1 919.765 982)">B</text><path d="M26.4816 12.334 471.375 338.951 464.594 348.187 19.7007 21.5705ZM17.5381 34.1975 0 0 37.8808 6.48804Z" transform="matrix(1 0 0 -1 965.5 853.069)"/><path d="M2012 840.735 1567.11 514.118 1573.89 504.882 2018.78 831.499ZM2020.95 818.872 2038.48 853.069 2000.6 846.581Z"/><path d="M1405.5 441C1405.5 387.704 1448.7 344.5 1502 344.5 1555.3 344.5 1598.5 387.704 1598.5 441 1598.5 494.296 1555.3 537.5 1502 537.5 1448.7 537.5 1405.5 494.296 1405.5 441Z" stroke="#70AD47" stroke-width="11.4583" stroke-miterlimit="8" fill="#FFFFFF" fill-rule="evenodd"/><text font-family="CMU Serif,CMU Serif_MSFontService,sans-serif" font-weight="500" font-size="128" transform="matrix(1 0 0 1 1453.15 473)">A</text><path d="M2688 1918.1C2688 1893.19 2708.19 1873 2733.1 1873L3406.9 1873C3431.81 1873 3452 1893.19 3452 1918.1L3452 2020.9C3452 2045.81 3431.81 2066 3406.9 2066L2733.1 2066C2708.19 2066 2688 2045.81 2688 2020.9Z" stroke="#AFABAB" stroke-width="10.3125" stroke-miterlimit="8" fill="#FFFFFF" fill-rule="evenodd"/><text font-family="Calibri,Calibri_MSFontService,sans-serif" font-weight="400" font-size="83" transform="matrix(1 0 0 1 2855.94 1997)">Endzustände</text><path d="M2688 1407.1C2688 1382.19 2708.19 1362 2733.1 1362L3406.9 1362C3431.81 1362 3452 1382.19 3452 1407.1L3452 1509.9C3452 1534.81 3431.81 1555 3406.9 1555L2733.1 1555C2708.19 1555 2688 1534.81 2688 1509.9Z" stroke="#70AD47" stroke-width="10.3125" stroke-miterlimit="8" fill="#FFFFFF" fill-rule="evenodd"/><text font-family="Calibri,Calibri_MSFontService,sans-serif" font-weight="400" font-size="83" transform="matrix(1 0 0 1 2847.99 1486)">Maximierung</text><path d="M2688 897.103C2688 872.193 2708.19 852 2733.1 852L3406.9 852C3431.81 852 3452 872.193 3452 897.103L3452 999.898C3452 1024.81 3431.81 1045 3406.9 1045L2733.1 1045C2708.19 1045 2688 1024.81 2688 999.898Z" stroke="#FF0000" stroke-width="10.3125" stroke-miterlimit="8" fill="#FFFFFF" fill-rule="evenodd"/><text font-family="Calibri,Calibri_MSFontService,sans-serif" font-weight="400" font-size="83" transform="matrix(1 0 0 1 2853.91 976)">Minimierung</text><path d="M2688 387.102C2688 362.193 2708.19 342 2733.1 342L3406.9 342C3431.81 342 3452 362.193 3452 387.102L3452 489.898C3452 514.807 3431.81 535 3406.9 535L2733.1 535C2708.19 535 2688 514.807 2688 489.898Z" stroke="#AFABAB" stroke-width="10.3125" stroke-miterlimit="8" fill="#FFFFFF" fill-rule="evenodd"/><text font-family="Calibri,Calibri_MSFontService,sans-serif" font-weight="400" font-size="83" transform="matrix(1 0 0 1 2860.17 466)">Startzustand</text><text fill="#595959" font-family="CMU Serif,CMU Serif_MSFontService,sans-serif" font-weight="500" font-size="110" transform="matrix(1 0 0 1 517.491 2182)">-</text><text fill="#595959" font-family="CMU Serif,CMU Serif_MSFontService,sans-serif" font-weight="500" font-size="110" transform="matrix(1 0 0 1 554.158 2182)">1</text><text fill="#595959" font-family="CMU Serif,CMU Serif_MSFontService,sans-serif" font-weight="500" font-size="110" transform="matrix(1 0 0 1 804.036 2182)">3</text><text fill="#595959" font-family="CMU Serif,CMU Serif_MSFontService,sans-serif" font-weight="500" font-size="110" transform="matrix(1 0 0 1 1071.39 2182)">6</text><text fill="#595959" font-family="CMU Serif,CMU Serif_MSFontService,sans-serif" font-weight="500" font-size="110" transform="matrix(1 0 0 1 1590.08 2182)">-</text><text fill="#595959" font-family="CMU Serif,CMU Serif_MSFontService,sans-serif" font-weight="500" font-size="110" transform="matrix(1 0 0 1 1626.74 2182)">3</text><text fill="#595959" font-family="CMU Serif,CMU Serif_MSFontService,sans-serif" font-weight="500" font-size="110" transform="matrix(1 0 0 1 1857.92 2176)">-</text><text fill="#595959" font-family="CMU Serif,CMU Serif_MSFontService,sans-serif" font-weight="500" font-size="110" transform="matrix(1 0 0 1 1894.58 2176)">2</text><text fill="#595959" font-family="CMU Serif,CMU Serif_MSFontService,sans-serif" font-weight="500" font-size="110" transform="matrix(1 0 0 1 861.429 1486)">3</text><text fill="#595959" font-family="CMU Serif,CMU Serif_MSFontService,sans-serif" font-weight="500" font-size="110" transform="matrix(1 0 0 1 1402.5 1486)">6</text><text fill="#595959" font-family="CMU Serif,CMU Serif_MSFontService,sans-serif" font-weight="500" font-size="110" transform="matrix(1 0 0 1 1915.73 1486)">-</text><text fill="#595959" font-family="CMU Serif,CMU Serif_MSFontService,sans-serif" font-weight="500" font-size="110" transform="matrix(1 0 0 1 1952.4 1486)">2</text><text fill="#595959" font-family="CMU Serif,CMU Serif_MSFontService,sans-serif" font-weight="500" font-size="110" transform="matrix(1 0 0 1 2183.31 974)">-</text><text fill="#595959" font-family="CMU Serif,CMU Serif_MSFontService,sans-serif" font-weight="500" font-size="110" transform="matrix(1 0 0 1 2219.98 974)">2</text><text fill="#595959" font-family="CMU Serif,CMU Serif_MSFontService,sans-serif" font-weight="500" font-size="110" transform="matrix(1 0 0 1 1131.18 974)">3</text><text fill="#595959" font-family="CMU Serif,CMU Serif_MSFontService,sans-serif" font-weight="500" font-size="110" transform="matrix(1 0 0 1 1665.34 457)">3</text><path d="M0 0 2.72113 155.882" stroke="#000000" stroke-width="11.4583" stroke-miterlimit="8" fill="none" fill-rule="evenodd" transform="matrix(-0.965926 -0.258819 -0.258819 0.965926 2222.63 1108.61)"/><path d="M2276.08 1205.03 2126.21 1162.06" stroke="#000000" stroke-width="11.4583" stroke-miterlimit="8" fill="none" fill-rule="evenodd"/><path d="M0 0 2.72113 155.882" stroke="#000000" stroke-width="11.4583" stroke-miterlimit="8" fill="none" fill-rule="evenodd" transform="matrix(-0.829038 -0.559193 -0.559193 0.829038 2449.38 1623.43)"/><path d="M2468.53 1731.99 2340.82 1642.57" stroke="#000000" stroke-width="11.4583" stroke-miterlimit="8" fill="none" fill-rule="evenodd"/><path d="M0 0 2.72113 155.882" stroke="#000000" stroke-width="11.4583" stroke-miterlimit="8" fill="none" fill-rule="evenodd" transform="matrix(-0.544639 -0.838671 -0.838671 0.544639 2271.56 1651.13)"/><path d="M2246.76 1758.55 2164.14 1626.33" stroke="#000000" stroke-width="11.4583" stroke-miterlimit="8" fill="none" fill-rule="evenodd"/><path d="M0 0 2.72113 155.882" stroke="#000000" stroke-width="11.4583" stroke-miterlimit="8" fill="none" fill-rule="evenodd" transform="matrix(-0.829038 -0.559193 -0.559193 0.829038 1376.11 1618.93)"/><path d="M1395.25 1727.5 1267.54 1638.07" stroke="#000000" stroke-width="11.4583" stroke-miterlimit="8" fill="none" fill-rule="evenodd"/></g></svg>