<svg width="791" height="1622" xmlns="http://www.w3.org/2000/svg" xmlns:xlink="http://www.w3.org/1999/xlink" xml:space="preserve" overflow="hidden"><g transform="translate(-178 -159)"><text font-family="CMU Serif,CMU Serif_MSFontService,sans-serif" font-weight="500" font-size="82" transform="matrix(1 0 0 1 485.029 273)">x</text><path d="M180.5 561.1C180.5 555.246 185.246 550.5 191.1 550.5L955.9 550.5C961.754 550.5 966.5 555.246 966.5 561.1L966.5 698.9C966.5 704.754 961.754 709.5 955.9 709.5L191.1 709.5C185.246 709.5 180.5 704.754 180.5 698.9Z" stroke="#000000" stroke-width="4.58333" stroke-miterlimit="8" fill="#FFFFFF" fill-rule="evenodd"/><text font-family="CMU Serif,CMU Serif_MSFontService,sans-serif" font-weight="500" font-size="83" transform="matrix(1 0 0 1 349.474 658)">B</text><text font-family="CMU Serif,CMU Serif_MSFontService,sans-serif" font-weight="500" font-size="83" transform="matrix(1 0 0 1 407.911 658)">atch</text><text font-family="CMU Serif,CMU Serif_MSFontService,sans-serif" font-weight="500" font-size="83" transform="matrix(1 0 0 1 591.245 658)">Nor</text><text font-family="CMU Serif,CMU Serif_MSFontService,sans-serif" font-weight="500" font-size="83" transform="matrix(1 0 0 1 727.026 658)">m</text><path d="M180.5 778.101C180.5 772.246 185.246 767.5 191.1 767.5L955.9 767.5C961.754 767.5 966.5 772.246 966.5 778.101L966.5 915.9C966.5 921.754 961.754 926.5 955.9 926.5L191.1 926.5C185.246 926.5 180.5 921.754 180.5 915.9Z" stroke="#000000" stroke-width="4.58333" stroke-miterlimit="8" fill="#FFFFFF" fill-rule="evenodd"/><text font-family="CMU Serif,CMU Serif_MSFontService,sans-serif" font-weight="500" font-size="83" transform="matrix(1 0 0 1 467.208 875)">ReLU</text><path d="M3.4375-2.13014e-05 3.43772 35.322-3.43728 35.322-3.4375 2.13014e-05ZM13.7502 30.7386 0.000360892 58.2386-13.7498 30.7387Z" transform="matrix(-1 0 0 1 573.5 709.5)"/><path d="M834.5 872.5 876.725 872.5" stroke="#7F7F7F" stroke-width="6.875" stroke-miterlimit="8" fill="none" fill-rule="evenodd"/><path d="M0 0 58.2217 58.2217" stroke="#7F7F7F" stroke-width="6.875" stroke-miterlimit="8" fill="none" fill-rule="evenodd" transform="matrix(-1 0 0 1 933.722 814.5)"/><path d="M180.5 343.1C180.5 337.246 185.246 332.5 191.1 332.5L955.9 332.5C961.754 332.5 966.5 337.246 966.5 343.1L966.5 480.9C966.5 486.754 961.754 491.5 955.9 491.5L191.1 491.5C185.246 491.5 180.5 486.754 180.5 480.9Z" stroke="#000000" stroke-width="4.58333" stroke-miterlimit="8" fill="#FFFFFF" fill-rule="evenodd"/><text font-family="CMU Serif,CMU Serif_MSFontService,sans-serif" font-weight="500" font-size="83" transform="matrix(1 0 0 1 317.39 440)">Conv2d Layer</text><path d="M576.937 491.5 576.938 527.364 570.063 527.364 570.062 491.5ZM587.25 522.78 573.5 550.28 559.75 522.781Z"/><path d="M576.937 159.5 576.938 309.845 570.063 309.845 570.062 159.5ZM587.25 305.262 573.5 332.762 559.75 305.262Z"/><path d="M180.5 996.1C180.5 990.246 185.246 985.5 191.1 985.5L955.9 985.5C961.754 985.5 966.5 990.246 966.5 996.1L966.5 1133.9C966.5 1139.75 961.754 1144.5 955.9 1144.5L191.1 1144.5C185.246 1144.5 180.5 1139.75 180.5 1133.9Z" stroke="#000000" stroke-width="4.58333" stroke-miterlimit="8" fill="#FFFFFF" fill-rule="evenodd"/><text font-family="CMU Serif,CMU Serif_MSFontService,sans-serif" font-weight="500" font-size="83" transform="matrix(1 0 0 1 440.281 1093)">Flatten</text><path d="M180.5 1214.1C180.5 1208.25 185.246 1203.5 191.1 1203.5L955.9 1203.5C961.754 1203.5 966.5 1208.25 966.5 1214.1L966.5 1351.9C966.5 1357.75 961.754 1362.5 955.9 1362.5L191.1 1362.5C185.246 1362.5 180.5 1357.75 180.5 1351.9Z" stroke="#000000" stroke-width="4.58333" stroke-miterlimit="8" fill="#FFFFFF" fill-rule="evenodd"/><text font-family="CMU Serif,CMU Serif_MSFontService,sans-serif" font-weight="500" font-size="83" transform="matrix(1 0 0 1 285.593 1311)">Fully</text><text font-family="CMU Serif,CMU Serif_MSFontService,sans-serif" font-weight="500" font-size="83" transform="matrix(1 0 0 1 474.655 1311)">-</text><text font-family="CMU Serif,CMU Serif_MSFontService,sans-serif" font-weight="500" font-size="83" transform="matrix(1 0 0 1 502.155 1311)">connected</text><path d="M3.4375-2.13014e-05 3.43772 35.322-3.43728 35.322-3.4375 2.13014e-05ZM13.7502 30.7386 0.000360892 58.2386-13.7498 30.7387Z" transform="matrix(-1 0 0 1 573.5 1144.5)"/><path d="M576.937 926.5 576.938 962.364 570.063 962.364 570.062 926.5ZM587.25 957.78 573.5 985.28 559.75 957.78Z"/><path d="M410.199 1653.43 443.071 1653.43 441.91 1658.71 432.38 1658.71 427.856 1678.77C427.269 1681.39 426.975 1683.36 426.975 1684.7 426.975 1685.77 427.148 1686.54 427.495 1687.02 427.842 1687.5 428.39 1687.74 429.137 1687.74 430.739 1687.74 432.62 1686.46 434.783 1683.9L437.105 1686.06C435.076 1688.27 433.228 1689.88 431.559 1690.86 429.891 1691.85 428.109 1692.34 426.214 1692.34 424.399 1692.34 422.971 1691.72 421.93 1690.48 420.889 1689.24 420.368 1687.61 420.368 1685.58 420.368 1683.79 420.742 1681.2 421.49 1677.81L422.37 1673.77C422.824 1671.63 423.472 1669.06 424.312 1666.04 425.153 1663.02 425.881 1660.7 426.494 1659.07L426.294 1658.71 414.523 1658.71 409.598 1681.49C409.198 1683.28 408.73 1685.21 408.197 1687.28 407.663 1689.35 407.249 1690.82 406.955 1691.7L398.467 1691.7 398.868 1689.74C401.697 1686.94 404.313 1680.37 406.715 1670.04L409.358 1658.71 408.077 1658.71C406.181 1658.71 404.58 1659.03 403.272 1659.67 401.964 1660.31 400.536 1661.59 398.988 1663.52L396.465 1661.39C397.853 1659.71 398.988 1658.43 399.868 1657.55 400.749 1656.67 401.677 1655.92 402.651 1655.31 403.625 1654.69 404.72 1654.23 405.934 1653.91 407.149 1653.59 408.57 1653.43 410.199 1653.43Z" fill-rule="evenodd"/><text fill="#000000" fill-opacity="0" font-family="Arial,Arial_MSFontService,sans-serif" font-size="38.918" x="396.465" y="1687.48">ğœ‹</text><text font-family="CMU Serif,CMU Serif_MSFontService,sans-serif" font-weight="500" font-size="82" transform="matrix(1 0 0 1 445.526 1692)">(</text><text font-family="CMU Serif,CMU Serif_MSFontService,sans-serif" font-weight="500" font-size="82" transform="matrix(1 0 0 1 477.61 1692)">x</text><text font-family="CMU Serif,CMU Serif_MSFontService,sans-serif" font-weight="500" font-size="82" transform="matrix(1 0 0 1 521.151 1692)">)</text><path d="M180.5 1431.1C180.5 1425.25 185.246 1420.5 191.1 1420.5L955.9 1420.5C961.754 1420.5 966.5 1425.25 966.5 1431.1L966.5 1568.9C966.5 1574.75 961.754 1579.5 955.9 1579.5L191.1 1579.5C185.246 1579.5 180.5 1574.75 180.5 1568.9Z" stroke="#000000" stroke-width="4.58333" stroke-miterlimit="8" fill="#FFFFFF" fill-rule="evenodd"/><text font-family="CMU Serif,CMU Serif_MSFontService,sans-serif" font-weight="500" font-size="83" transform="matrix(1 0 0 1 330.464 1528)">Softmax </text><text font-family="CMU Serif,CMU Serif_MSFontService,sans-serif" font-weight="500" font-size="83" transform="matrix(1 0 0 1 656.453 1528)">Ïƒ(</text><path d="M752.097 1488.74C752.934 1488.74 753.671 1488.83 754.306 1489.02 754.941 1489.21 755.501 1489.5 755.987 1489.89 756.474 1490.29 756.906 1490.79 757.284 1491.41 757.663 1492.04 758.027 1492.88 758.379 1493.95 758.73 1495.01 759.061 1496.34 759.372 1497.92 759.682 1499.5 759.959 1501.14 760.202 1502.84L760.608 1502.84C763.201 1499.2 765.167 1496.53 766.504 1494.84 767.842 1493.15 768.97 1491.89 769.888 1491.07 770.807 1490.25 771.692 1489.67 772.543 1489.33 773.394 1488.99 774.522 1488.82 775.927 1488.82 777.197 1488.82 778.237 1488.98 779.048 1489.31L777.426 1496.64 774.59 1496.64C774.427 1495.51 773.955 1494.94 773.171 1494.94 772.928 1494.94 772.671 1494.98 772.401 1495.06 772.131 1495.14 771.8 1495.32 771.408 1495.59 771.016 1495.86 770.442 1496.39 769.686 1497.17 768.929 1497.95 768.078 1498.91 767.133 1500.05 766.187 1501.18 765.214 1502.37 764.215 1503.61L761.459 1507.06C761.945 1509.65 762.404 1511.89 762.837 1513.79 763.269 1515.68 763.654 1517.25 763.992 1518.51 764.329 1519.76 764.627 1520.76 764.883 1521.49 765.14 1522.22 765.417 1522.76 765.714 1523.13 766.011 1523.49 766.315 1523.75 766.626 1523.9 766.937 1524.05 767.295 1524.12 767.7 1524.12 768.429 1524.12 769.139 1523.84 769.828 1523.27 770.517 1522.7 771.509 1521.42 772.806 1519.42L775.441 1521.16C773.549 1523.97 771.84 1525.95 770.314 1527.1 768.787 1528.25 766.97 1528.82 764.863 1528.82 763.701 1528.82 762.715 1528.61 761.904 1528.19 761.094 1527.77 760.391 1527.11 759.797 1526.19 759.203 1525.27 758.676 1523.84 758.216 1521.89 757.379 1518.43 756.866 1515.78 756.676 1513.95L756.271 1513.95C753.407 1517.97 751.28 1520.86 749.888 1522.62 748.497 1524.38 747.348 1525.67 746.443 1526.51 745.538 1527.35 744.66 1527.94 743.809 1528.27 742.958 1528.61 741.83 1528.78 740.425 1528.78 739.155 1528.78 738.115 1528.62 737.304 1528.29L738.925 1520.96 741.762 1520.96C741.924 1522.09 742.397 1522.66 743.181 1522.66 743.559 1522.66 743.958 1522.56 744.376 1522.36 744.795 1522.15 745.396 1521.67 746.18 1520.9 746.963 1520.13 748.044 1518.92 749.422 1517.27 750.8 1515.62 752.799 1513.15 755.42 1509.85 755.015 1507.72 754.596 1505.67 754.164 1503.69 753.731 1501.72 753.286 1499.88 752.826 1498.18 752.367 1496.48 751.989 1495.37 751.692 1494.84 751.394 1494.31 751.077 1493.95 750.739 1493.74 750.401 1493.54 749.976 1493.44 749.463 1493.44 748.895 1493.44 748.382 1493.57 747.923 1493.83 747.463 1494.08 746.963 1494.53 746.423 1495.16 745.883 1495.8 745.167 1496.79 744.275 1498.14L741.641 1496.4C743.343 1493.83 744.978 1491.91 746.545 1490.64 748.112 1489.37 749.962 1488.74 752.097 1488.74Z" fill-rule="evenodd"/><text fill="#000000" fill-opacity="0" font-family="Arial,Arial_MSFontService,sans-serif" font-size="40.0815" x="737.304" y="1523.81">ğ‘¥</text><path d="M769.513 1462.84 779.686 1471.64 779.686 1473.99 769.513 1482.78 767.365 1480.35 773.85 1474.72 749.128 1474.72 749.128 1470.91 773.85 1470.91 767.365 1465.27Z" fill-rule="evenodd"/><text fill="#000000" fill-opacity="0" font-family="Arial,Arial_MSFontService,sans-serif" font-size="19.9395" x="749.128" y="1480.29">Ô¦</text><text font-family="CMU Serif,CMU Serif_MSFontService,sans-serif" font-weight="500" font-size="83" transform="matrix(1 0 0 1 782.701 1528)">)</text><path d="M576.937 1362.5 576.938 1397.82 570.063 1397.82 570.062 1362.5ZM587.25 1393.24 573.5 1420.74 559.75 1393.24Z"/><path d="M576.937 1579.5 576.938 1729.84 570.063 1729.84 570.062 1579.5ZM587.25 1725.26 573.5 1752.76 559.75 1725.26Z"/></g></svg>