<svg width="1251" height="2163" xmlns="http://www.w3.org/2000/svg" xmlns:xlink="http://www.w3.org/1999/xlink" xml:space="preserve" overflow="hidden"><g transform="translate(-4 -134)"><text font-family="CMU Serif,CMU Serif_MSFontService,sans-serif" font-weight="500" font-size="82" transform="matrix(1 0 0 1 644.574 272)">x</text><path d="M342.5 619.1C342.5 613.246 347.246 608.5 353.1 608.5L1117.9 608.5C1123.75 608.5 1128.5 613.246 1128.5 619.1L1128.5 756.9C1128.5 762.754 1123.75 767.5 1117.9 767.5L353.1 767.5C347.246 767.5 342.5 762.754 342.5 756.9Z" stroke="#000000" stroke-width="4.58333" stroke-miterlimit="8" fill="#FFFFFF" fill-rule="evenodd"/><text font-family="CMU Serif,CMU Serif_MSFontService,sans-serif" font-weight="500" font-size="83" transform="matrix(1 0 0 1 512.325 716)">B</text><text font-family="CMU Serif,CMU Serif_MSFontService,sans-serif" font-weight="500" font-size="83" transform="matrix(1 0 0 1 570.763 716)">atch</text><text font-family="CMU Serif,CMU Serif_MSFontService,sans-serif" font-weight="500" font-size="83" transform="matrix(1 0 0 1 726.596 716)"> </text><text font-family="CMU Serif,CMU Serif_MSFontService,sans-serif" font-weight="500" font-size="83" transform="matrix(1 0 0 1 754.096 716)">Nor</text><text font-family="CMU Serif,CMU Serif_MSFontService,sans-serif" font-weight="500" font-size="83" transform="matrix(1 0 0 1 889.877 716)">m</text><path d="M342.5 836.167C342.5 830.276 347.276 825.5 353.167 825.5L1117.83 825.5C1123.72 825.5 1128.5 830.276 1128.5 836.167L1128.5 974.833C1128.5 980.724 1123.72 985.5 1117.83 985.5L353.167 985.5C347.276 985.5 342.5 980.724 342.5 974.833Z" stroke="#000000" stroke-width="4.58333" stroke-miterlimit="8" fill="#FFFFFF" fill-rule="evenodd"/><text font-family="CMU Serif,CMU Serif_MSFontService,sans-serif" font-weight="500" font-size="83" transform="matrix(1 0 0 1 630.059 934)">ReLU</text><path d="M3.4375-2.13014e-05 3.43772 35.322-3.43728 35.322-3.4375 2.13014e-05ZM13.7502 30.7386 0.000360892 58.2386-13.7498 30.7387Z" transform="matrix(-1 0 0 1 735.5 767.5)"/><path d="M738.938 985.5 738.938 1020.81 732.063 1020.81 732.063 985.5ZM749.25 1016.23 735.5 1043.73 721.75 1016.23Z"/><path d="M736.5 247.063 1254.6 247.063 1254.6 1775.32 850.579 1775.32 850.579 1768.45 1251.16 1768.45 1247.72 1771.89 1247.72 250.5 1251.16 253.938 736.5 253.938ZM855.163 1785.64 827.663 1771.89 855.163 1758.14Z"/><path d="M997.5 931.5 1039.72 931.5" stroke="#7F7F7F" stroke-width="6.875" stroke-miterlimit="8" fill="none" fill-rule="evenodd"/><path d="M0 0 58.2217 58.2217" stroke="#7F7F7F" stroke-width="6.875" stroke-miterlimit="8" fill="none" fill-rule="evenodd" transform="matrix(-1 0 0 1 1096.72 872.5)"/><path d="M656.5 1777C656.5 1732.54 692.541 1696.5 737 1696.5 781.459 1696.5 817.5 1732.54 817.5 1777 817.5 1821.46 781.459 1857.5 737 1857.5 692.541 1857.5 656.5 1821.46 656.5 1777Z" stroke="#000000" stroke-width="4.58333" stroke-miterlimit="8" fill="#FFFFFF" fill-rule="evenodd"/><path d="M3.43723-0.0433754 4.08674 51.4264-2.78771 51.5131-3.43723 0.0433754ZM14.3406 46.7133 0.938681 74.3846-13.1572 47.0603Z" transform="matrix(-1 0 0 1 736.439 1857.5)"/><path d="M732.47 1742.94 740.097 1742.94 740.097 1773.87 769.369 1773.87 769.369 1781.02 740.097 1781.02 740.097 1811.95 732.47 1811.95 732.47 1781.02 703.197 1781.02 703.197 1773.87 732.47 1773.87Z" fill-rule="evenodd"/><text fill="#000000" fill-opacity="0" font-family="Arial,Arial_MSFontService,sans-serif" font-size="69.0186" x="703.197" y="1803.33">+</text><path d="M342.5 401.1C342.5 395.246 347.246 390.5 353.1 390.5L1117.9 390.5C1123.75 390.5 1128.5 395.246 1128.5 401.1L1128.5 538.9C1128.5 544.754 1123.75 549.5 1117.9 549.5L353.1 549.5C347.246 549.5 342.5 544.754 342.5 538.9Z" stroke="#000000" stroke-width="4.58333" stroke-miterlimit="8" fill="#FFFFFF" fill-rule="evenodd"/><text font-family="CMU Serif,CMU Serif_MSFontService,sans-serif" font-weight="500" font-size="83" transform="matrix(1 0 0 1 480.242 498)">Conv</text><text font-family="CMU Serif,CMU Serif_MSFontService,sans-serif" font-weight="500" font-size="83" transform="matrix(1 0 0 1 670.45 498)">2</text><text font-family="CMU Serif,CMU Serif_MSFontService,sans-serif" font-weight="500" font-size="83" transform="matrix(1 0 0 1 711.7 498)">d Layer</text><path d="M738.938 549.5 738.938 585.364 732.063 585.364 732.063 549.5ZM749.25 580.78 735.5 608.281 721.75 580.781Z"/><path d="M342.5 1272.1C342.5 1266.25 347.246 1261.5 353.1 1261.5L1117.9 1261.5C1123.75 1261.5 1128.5 1266.25 1128.5 1272.1L1128.5 1409.9C1128.5 1415.75 1123.75 1420.5 1117.9 1420.5L353.1 1420.5C347.246 1420.5 342.5 1415.75 342.5 1409.9Z" stroke="#000000" stroke-width="4.58333" stroke-miterlimit="8" fill="#FFFFFF" fill-rule="evenodd"/><text font-family="CMU Serif,CMU Serif_MSFontService,sans-serif" font-weight="500" font-size="83" transform="matrix(1 0 0 1 512.325 1369)">B</text><text font-family="CMU Serif,CMU Serif_MSFontService,sans-serif" font-weight="500" font-size="83" transform="matrix(1 0 0 1 570.763 1369)">atch</text><text font-family="CMU Serif,CMU Serif_MSFontService,sans-serif" font-weight="500" font-size="83" transform="matrix(1 0 0 1 754.096 1369)">Nor</text><text font-family="CMU Serif,CMU Serif_MSFontService,sans-serif" font-weight="500" font-size="83" transform="matrix(1 0 0 1 889.877 1369)">m</text><path d="M342.5 1489.1C342.5 1483.25 347.246 1478.5 353.1 1478.5L1117.9 1478.5C1123.75 1478.5 1128.5 1483.25 1128.5 1489.1L1128.5 1626.9C1128.5 1632.75 1123.75 1637.5 1117.9 1637.5L353.1 1637.5C347.246 1637.5 342.5 1632.75 342.5 1626.9Z" stroke="#000000" stroke-width="4.58333" stroke-miterlimit="8" fill="#FFFFFF" fill-rule="evenodd"/><text font-family="CMU Serif,CMU Serif_MSFontService,sans-serif" font-weight="500" font-size="83" transform="matrix(1 0 0 1 393.158 1586)">Squeeze</text><text font-family="CMU Serif,CMU Serif_MSFontService,sans-serif" font-weight="500" font-size="83" transform="matrix(1 0 0 1 675.606 1586)">-</text><text font-family="CMU Serif,CMU Serif_MSFontService,sans-serif" font-weight="500" font-size="83" transform="matrix(1 0 0 1 703.106 1586)">Excitation</text><path d="M3.4375-2.13014e-05 3.43772 35.322-3.43728 35.322-3.4375 2.13014e-05ZM13.7502 30.7386 0.000360892 58.2386-13.7498 30.7387Z" transform="matrix(-1 0 0 1 735.5 1420.5)"/><path d="M738.937 1637.44 739.507 1672.77 732.632 1672.88 732.063 1637.56ZM749.744 1668.02 736.439 1695.73 722.247 1668.46Z"/><path d="M342.5 1054.1C342.5 1048.25 347.246 1043.5 353.1 1043.5L1117.9 1043.5C1123.75 1043.5 1128.5 1048.25 1128.5 1054.1L1128.5 1191.9C1128.5 1197.75 1123.75 1202.5 1117.9 1202.5L353.1 1202.5C347.246 1202.5 342.5 1197.75 342.5 1191.9Z" stroke="#000000" stroke-width="4.58333" stroke-miterlimit="8" fill="#FFFFFF" fill-rule="evenodd"/><text font-family="CMU Serif,CMU Serif_MSFontService,sans-serif" font-weight="500" font-size="83" transform="matrix(1 0 0 1 480.242 1151)">Conv</text><text font-family="CMU Serif,CMU Serif_MSFontService,sans-serif" font-weight="500" font-size="83" transform="matrix(1 0 0 1 670.45 1151)">2</text><text font-family="CMU Serif,CMU Serif_MSFontService,sans-serif" font-weight="500" font-size="83" transform="matrix(1 0 0 1 711.7 1151)">d Layer</text><path d="M738.938 1202.5 738.938 1238.36 732.063 1238.36 732.063 1202.5ZM749.25 1233.78 735.5 1261.28 721.75 1233.78Z"/><text font-family="Cambria Math,Cambria Math_MSFontService,sans-serif" font-weight="400" font-size="82" transform="matrix(1 0 0 1 53.8484 1054)">ℱ</text><text font-family="CMU Serif,CMU Serif_MSFontService,sans-serif" font-weight="500" font-size="82" transform="matrix(1 0 0 1 111.14 1054)">(</text><text font-family="CMU Serif,CMU Serif_MSFontService,sans-serif" font-weight="500" font-size="82" transform="matrix(1 0 0 1 143.223 1054)">x</text><text font-family="CMU Serif,CMU Serif_MSFontService,sans-serif" font-weight="500" font-size="82" transform="matrix(1 0 0 1 186.765 1054)">)</text><text font-family="Cambria Math,Cambria Math_MSFontService,sans-serif" font-weight="400" font-size="82" transform="matrix(1 0 0 1 366.697 2213)">ℱ</text><text font-family="CMU Serif,CMU Serif_MSFontService,sans-serif" font-weight="500" font-size="82" transform="matrix(1 0 0 1 423.989 2213)">(</text><text font-family="CMU Serif,CMU Serif_MSFontService,sans-serif" font-weight="500" font-size="82" transform="matrix(1 0 0 1 456.072 2213)">x</text><text font-family="CMU Serif,CMU Serif_MSFontService,sans-serif" font-weight="500" font-size="82" transform="matrix(1 0 0 1 499.614 2213)">)+x</text><path d="M342.5 1942.17C342.5 1936.28 347.276 1931.5 353.167 1931.5L1117.83 1931.5C1123.72 1931.5 1128.5 1936.28 1128.5 1942.17L1128.5 2080.83C1128.5 2086.72 1123.72 2091.5 1117.83 2091.5L353.167 2091.5C347.276 2091.5 342.5 2086.72 342.5 2080.83Z" stroke="#000000" stroke-width="4.58333" stroke-miterlimit="8" fill="#FFFFFF" fill-rule="evenodd"/><text font-family="CMU Serif,CMU Serif_MSFontService,sans-serif" font-weight="500" font-size="83" transform="matrix(1 0 0 1 630.059 2039)">ReLU</text><path d="M738.938 2091.5 738.938 2245.56 732.063 2245.56 732.063 2091.5ZM749.25 2240.98 735.5 2268.48 721.75 2240.98Z"/><path d="M997.5 2036.5 1039.72 2036.5" stroke="#7F7F7F" stroke-width="6.875" stroke-miterlimit="8" fill="none" fill-rule="evenodd"/><path d="M0 0 58.2217 58.2217" stroke="#7F7F7F" stroke-width="6.875" stroke-miterlimit="8" fill="none" fill-rule="evenodd" transform="matrix(-1 0 0 1 1096.72 1978.5)"/><path d="M313.5 1652.5C297.207 1652.5 283.999 1609.66 283.999 1556.82L284.001 1120.68C284.001 1067.84 270.793 1025 254.5 1025 270.793 1025 284.001 982.161 284.001 929.317L284.001 493.183C284.001 440.339 297.209 397.5 313.501 397.5" stroke="#000000" stroke-width="6.875" stroke-miterlimit="8" fill="none" fill-rule="evenodd"/><path d="M738.938 134.5 738.938 367.657 732.063 367.657 732.063 134.5ZM749.25 363.074 735.5 390.574 721.75 363.074Z"/></g></svg>