<svg width="1261" height="2162" xmlns="http://www.w3.org/2000/svg" xmlns:xlink="http://www.w3.org/1999/xlink" xml:space="preserve" overflow="hidden"><g transform="translate(-1241 -140)"><text font-family="CMU Serif,CMU Serif_MSFontService,sans-serif" font-weight="500" font-size="82" transform="matrix(1 0 0 1 1891.05 285)">X</text><path d="M1589.5 625.101C1589.5 619.246 1594.25 614.5 1600.1 614.5L2364.9 614.5C2370.75 614.5 2375.5 619.246 2375.5 625.101L2375.5 762.9C2375.5 768.754 2370.75 773.5 2364.9 773.5L1600.1 773.5C1594.25 773.5 1589.5 768.754 1589.5 762.9Z" stroke="#000000" stroke-width="4.58333" stroke-miterlimit="8" fill="#FFFFFF" fill-rule="evenodd"/><text font-family="CMU Serif,CMU Serif_MSFontService,sans-serif" font-weight="500" font-size="83" transform="matrix(1 0 0 1 1758.81 722)">B</text><text font-family="CMU Serif,CMU Serif_MSFontService,sans-serif" font-weight="500" font-size="83" transform="matrix(1 0 0 1 1817.24 722)">atch</text><text font-family="CMU Serif,CMU Serif_MSFontService,sans-serif" font-weight="500" font-size="83" transform="matrix(1 0 0 1 2000.58 722)">Nor</text><text font-family="CMU Serif,CMU Serif_MSFontService,sans-serif" font-weight="500" font-size="83" transform="matrix(1 0 0 1 2136.36 722)">m</text><path d="M1589.5 842.1C1589.5 836.246 1594.25 831.5 1600.1 831.5L2364.9 831.5C2370.75 831.5 2375.5 836.246 2375.5 842.1L2375.5 979.899C2375.5 985.754 2370.75 990.5 2364.9 990.5L1600.1 990.5C1594.25 990.5 1589.5 985.754 1589.5 979.899Z" stroke="#000000" stroke-width="4.58333" stroke-miterlimit="8" fill="#FFFFFF" fill-rule="evenodd"/><text font-family="CMU Serif,CMU Serif_MSFontService,sans-serif" font-weight="500" font-size="83" transform="matrix(1 0 0 1 1876.54 939)">ReLU</text><path d="M3.4375-2.13014e-05 3.43772 35.322-3.43728 35.322-3.4375 2.13014e-05ZM13.7502 30.7386 0.000360892 58.2386-13.7498 30.7387Z" transform="matrix(-1 0 0 1 1982.5 773.5)"/><path d="M1985.94 990.5 1985.94 1025.81 1979.06 1025.81 1979.06 990.5ZM1996.25 1021.23 1982.5 1048.73 1968.75 1021.23Z"/><path d="M1983.5 252.062 2501.6 252.062 2501.6 1780.32 2097.58 1780.32 2097.58 1773.45 2498.16 1773.45 2494.72 1776.89 2494.72 255.5 2498.16 258.937 1983.5 258.937ZM2102.16 1790.64 2074.66 1776.89 2102.16 1763.14Z"/><path d="M2244.5 936.5 2286.72 936.5" stroke="#7F7F7F" stroke-width="6.875" stroke-miterlimit="8" fill="none" fill-rule="evenodd"/><path d="M0 0 58.2217 58.2217" stroke="#7F7F7F" stroke-width="6.875" stroke-miterlimit="8" fill="none" fill-rule="evenodd" transform="matrix(-1 0 0 1 2342.72 878.5)"/><path d="M1902.5 1782.5C1902.5 1737.77 1938.77 1701.5 1983.5 1701.5 2028.24 1701.5 2064.5 1737.77 2064.5 1782.5 2064.5 1827.24 2028.24 1863.5 1983.5 1863.5 1938.77 1863.5 1902.5 1827.24 1902.5 1782.5Z" stroke="#000000" stroke-width="4.58333" stroke-miterlimit="8" fill="#FFFFFF" fill-rule="evenodd"/><path d="M3.43723-0.0433754 4.08674 51.4264-2.78771 51.5131-3.43723 0.0433754ZM14.3406 46.7133 0.938681 74.3846-13.1572 47.0603Z" transform="matrix(-1 0 0 1 1983.44 1863.5)"/><path d="M1978.95 1748.74 1986.58 1748.74 1986.58 1779.68 2015.85 1779.68 2015.85 1786.82 1986.58 1786.82 1986.58 1817.76 1978.95 1817.76 1978.95 1786.82 1949.68 1786.82 1949.68 1779.68 1978.95 1779.68Z" fill-rule="evenodd"/><text fill="#000000" fill-opacity="0" font-family="Arial,Arial_MSFontService,sans-serif" font-size="69.0186" x="1949.68" y="1809.13">+</text><path d="M1589.5 407.1C1589.5 401.246 1594.25 396.5 1600.1 396.5L2364.9 396.5C2370.75 396.5 2375.5 401.246 2375.5 407.1L2375.5 544.9C2375.5 550.754 2370.75 555.5 2364.9 555.5L1600.1 555.5C1594.25 555.5 1589.5 550.754 1589.5 544.9Z" stroke="#000000" stroke-width="4.58333" stroke-miterlimit="8" fill="#FFFFFF" fill-rule="evenodd"/><text font-family="CMU Serif,CMU Serif_MSFontService,sans-serif" font-weight="500" font-size="83" transform="matrix(1 0 0 1 1726.72 504)">Conv2d Layer</text><path d="M1985.94 555.5 1985.94 591.364 1979.06 591.364 1979.06 555.5ZM1996.25 586.78 1982.5 614.28 1968.75 586.78Z"/><path d="M1589.5 1278.1C1589.5 1272.25 1594.25 1267.5 1600.1 1267.5L2364.9 1267.5C2370.75 1267.5 2375.5 1272.25 2375.5 1278.1L2375.5 1415.9C2375.5 1421.75 2370.75 1426.5 2364.9 1426.5L1600.1 1426.5C1594.25 1426.5 1589.5 1421.75 1589.5 1415.9Z" stroke="#000000" stroke-width="4.58333" stroke-miterlimit="8" fill="#FFFFFF" fill-rule="evenodd"/><text font-family="CMU Serif,CMU Serif_MSFontService,sans-serif" font-weight="500" font-size="83" transform="matrix(1 0 0 1 1758.81 1375)">B</text><text font-family="CMU Serif,CMU Serif_MSFontService,sans-serif" font-weight="500" font-size="83" transform="matrix(1 0 0 1 1817.24 1375)">atch</text><text font-family="CMU Serif,CMU Serif_MSFontService,sans-serif" font-weight="500" font-size="83" transform="matrix(1 0 0 1 2000.58 1375)">Nor</text><text font-family="CMU Serif,CMU Serif_MSFontService,sans-serif" font-weight="500" font-size="83" transform="matrix(1 0 0 1 2136.36 1375)">m</text><path d="M1589.5 1495.1C1589.5 1489.25 1594.25 1484.5 1600.1 1484.5L2364.9 1484.5C2370.75 1484.5 2375.5 1489.25 2375.5 1495.1L2375.5 1632.9C2375.5 1638.75 2370.75 1643.5 2364.9 1643.5L1600.1 1643.5C1594.25 1643.5 1589.5 1638.75 1589.5 1632.9Z" stroke="#000000" stroke-width="4.58333" stroke-miterlimit="8" fill="#FFFFFF" fill-rule="evenodd"/><text font-family="CMU Serif,CMU Serif_MSFontService,sans-serif" font-weight="500" font-size="83" transform="matrix(1 0 0 1 1639.64 1592)">Squeeze</text><text font-family="CMU Serif,CMU Serif_MSFontService,sans-serif" font-weight="500" font-size="83" transform="matrix(1 0 0 1 1922.09 1592)">-</text><text font-family="CMU Serif,CMU Serif_MSFontService,sans-serif" font-weight="500" font-size="83" transform="matrix(1 0 0 1 1949.59 1592)">Excitation</text><path d="M3.4375-2.13014e-05 3.43772 35.322-3.43728 35.322-3.4375 2.13014e-05ZM13.7502 30.7386 0.000360892 58.2386-13.7498 30.7387Z" transform="matrix(-1 0 0 1 1982.5 1426.5)"/><path d="M1985.94 1643.44 1986.51 1678.77 1979.63 1678.88 1979.06 1643.56ZM1996.74 1674.02 1983.44 1701.73 1969.25 1674.46Z"/><path d="M1589.5 1060.1C1589.5 1054.25 1594.25 1049.5 1600.1 1049.5L2364.9 1049.5C2370.75 1049.5 2375.5 1054.25 2375.5 1060.1L2375.5 1197.9C2375.5 1203.75 2370.75 1208.5 2364.9 1208.5L1600.1 1208.5C1594.25 1208.5 1589.5 1203.75 1589.5 1197.9Z" stroke="#000000" stroke-width="4.58333" stroke-miterlimit="8" fill="#FFFFFF" fill-rule="evenodd"/><text font-family="CMU Serif,CMU Serif_MSFontService,sans-serif" font-weight="500" font-size="83" transform="matrix(1 0 0 1 1726.72 1157)">Conv2d Layer</text><path d="M1985.94 1208.5 1985.94 1244.36 1979.06 1244.36 1979.06 1208.5ZM1996.25 1239.78 1982.5 1267.28 1968.75 1239.78Z"/><text font-family="Cambria Math,Cambria Math_MSFontService,sans-serif" font-weight="400" font-size="82" transform="matrix(1 0 0 1 1291.16 1060)">ℱ</text><text font-family="CMU Serif,CMU Serif_MSFontService,sans-serif" font-weight="500" font-size="82" transform="matrix(1 0 0 1 1348.45 1060)">(</text><text font-family="CMU Serif,CMU Serif_MSFontService,sans-serif" font-weight="500" font-size="82" transform="matrix(1 0 0 1 1380.54 1060)">X</text><text font-family="CMU Serif,CMU Serif_MSFontService,sans-serif" font-weight="500" font-size="82" transform="matrix(1 0 0 1 1442.41 1060)">)</text><text font-family="Cambria Math,Cambria Math_MSFontService,sans-serif" font-weight="400" font-size="82" transform="matrix(1 0 0 1 1594.85 2219)">ℱ</text><text font-family="CMU Serif,CMU Serif_MSFontService,sans-serif" font-weight="500" font-size="82" transform="matrix(1 0 0 1 1652.14 2219)">(</text><text font-family="CMU Serif,CMU Serif_MSFontService,sans-serif" font-weight="500" font-size="82" transform="matrix(1 0 0 1 1684.22 2219)">X</text><text font-family="CMU Serif,CMU Serif_MSFontService,sans-serif" font-weight="500" font-size="82" transform="matrix(1 0 0 1 1746.1 2219)">)+X</text><path d="M1589.5 1948.1C1589.5 1942.25 1594.25 1937.5 1600.1 1937.5L2364.9 1937.5C2370.75 1937.5 2375.5 1942.25 2375.5 1948.1L2375.5 2085.9C2375.5 2091.75 2370.75 2096.5 2364.9 2096.5L1600.1 2096.5C1594.25 2096.5 1589.5 2091.75 1589.5 2085.9Z" stroke="#000000" stroke-width="4.58333" stroke-miterlimit="8" fill="#FFFFFF" fill-rule="evenodd"/><text font-family="CMU Serif,CMU Serif_MSFontService,sans-serif" font-weight="500" font-size="83" transform="matrix(1 0 0 1 1876.54 2045)">ReLU</text><path d="M1985.94 2096.5 1985.94 2250.56 1979.06 2250.56 1979.06 2096.5ZM1996.25 2245.98 1982.5 2273.48 1968.75 2245.98Z"/><path d="M2244.5 2042.5 2286.72 2042.5" stroke="#7F7F7F" stroke-width="6.875" stroke-miterlimit="8" fill="none" fill-rule="evenodd"/><path d="M0 0 58.2217 58.2217" stroke="#7F7F7F" stroke-width="6.875" stroke-miterlimit="8" fill="none" fill-rule="evenodd" transform="matrix(-1 0 0 1 2342.72 1984.5)"/><path d="M1559.5 1658.5C1543.48 1658.5 1530.5 1616.39 1530.5 1564.44L1530.5 1125.06C1530.5 1073.11 1517.52 1031 1501.5 1031 1517.52 1031 1530.5 988.887 1530.5 936.938L1530.5 497.562C1530.5 445.613 1543.48 403.5 1559.5 403.5" stroke="#000000" stroke-width="6.875" stroke-miterlimit="8" fill="none" fill-rule="evenodd"/><path d="M1985.94 140.5 1985.94 373.657 1979.06 373.657 1979.06 140.5ZM1996.25 369.074 1982.5 396.574 1968.75 369.074Z"/></g></svg>