<svg width="1446" height="2183" xmlns="http://www.w3.org/2000/svg" xmlns:xlink="http://www.w3.org/1999/xlink" xml:space="preserve" overflow="hidden"><g transform="translate(-917 -53)"><rect x="1616.5" y="1489.5" width="71.9999" height="159" stroke="#000000" stroke-width="4.58333" stroke-miterlimit="8" fill="#973803"/><rect x="1686.5" y="1489.5" width="72.0002" height="159" stroke="#000000" stroke-width="4.58333" stroke-miterlimit="8" fill="#F83B08"/><rect x="1756.5" y="1489.5" width="71.9999" height="159" stroke="#000000" stroke-width="4.58333" stroke-miterlimit="8" fill="#FE6F08"/><rect x="1827.5" y="1489.5" width="71.0001" height="159" stroke="#000000" stroke-width="4.58333" stroke-miterlimit="8" fill="#FA6599"/><rect x="1897.5" y="1489.5" width="71.9999" height="159" stroke="#000000" stroke-width="4.58333" stroke-miterlimit="8" fill="#C61105"/><rect x="1967.5" y="1489.5" width="71.9999" height="159" stroke="#000000" stroke-width="4.58333" stroke-miterlimit="8" fill="#980099"/><rect x="2037.5" y="1489.5" width="72.0001" height="159" stroke="#000000" stroke-width="4.58333" stroke-miterlimit="8" fill="#FEC9FF"/><rect x="2108.5" y="1489.5" width="70.9998" height="159" stroke="#000000" stroke-width="4.58333" stroke-miterlimit="8" fill="#FCCDCC"/><rect x="2178.5" y="1489.5" width="72.0002" height="159" stroke="#000000" stroke-width="4.58333" stroke-miterlimit="8" fill="#F89F08"/><path d="M0 62.9999 63.6203 0 220 0 156.38 62.9999Z" stroke="#000000" stroke-width="4.58333" stroke-miterlimit="8" fill="#C57E04" fill-rule="evenodd" transform="matrix(1.83697e-16 1 1 -1.83697e-16 2250.5 1427.5)"/><path d="M1544.5 532.167C1544.5 526.276 1549.28 521.5 1555.17 521.5L2319.83 521.5C2325.72 521.5 2330.5 526.276 2330.5 532.167L2330.5 670.833C2330.5 676.724 2325.72 681.5 2319.83 681.5L1555.17 681.5C1549.28 681.5 1544.5 676.724 1544.5 670.833Z" stroke="#000000" stroke-width="4.58333" stroke-miterlimit="8" fill="#FFFFFF" fill-rule="evenodd"/><text font-family="CMU Serif,CMU Serif_MSFontService,sans-serif" font-weight="500" font-size="83" transform="matrix(1 0 0 1 1614.94 629)">Global AVG</text><text font-family="CMU Serif,CMU Serif_MSFontService,sans-serif" font-weight="500" font-size="83" transform="matrix(1 0 0 1 2069.83 629)">-</text><text font-family="CMU Serif,CMU Serif_MSFontService,sans-serif" font-weight="500" font-size="83" transform="matrix(1 0 0 1 2097.33 629)">Pool</text><rect x="1075.5" y="2050.5" width="71.9999" height="160" stroke="#000000" stroke-width="4.58333" stroke-miterlimit="8" fill="#973803"/><path d="M1075.5 2050.5 1138.11 1988.5 1209.5 1988.5 1146.89 2050.5Z" stroke="#000000" stroke-width="4.58333" stroke-miterlimit="8" fill="#A15D2F" fill-rule="evenodd"/><rect x="1145.5" y="2050.5" width="72.0002" height="160" stroke="#000000" stroke-width="4.58333" stroke-miterlimit="8" fill="#F83B08"/><rect x="1215.5" y="2050.5" width="71.9999" height="160" stroke="#000000" stroke-width="4.58333" stroke-miterlimit="8" fill="#FE6F08"/><rect x="1285.5" y="2050.5" width="71.9999" height="160" stroke="#000000" stroke-width="4.58333" stroke-miterlimit="8" fill="#FA6599"/><rect x="1356.5" y="2050.5" width="71.0001" height="160" stroke="#000000" stroke-width="4.58333" stroke-miterlimit="8" fill="#C61105"/><rect x="1426.5" y="2050.5" width="71.9999" height="160" stroke="#000000" stroke-width="4.58333" stroke-miterlimit="8" fill="#980099"/><rect x="1496.5" y="2050.5" width="72.0002" height="160" stroke="#000000" stroke-width="4.58333" stroke-miterlimit="8" fill="#FEC9FF"/><rect x="1566.5" y="2050.5" width="72.0002" height="160" stroke="#000000" stroke-width="4.58333" stroke-miterlimit="8" fill="#FCCDCC"/><rect x="1637.5" y="2050.5" width="70.9998" height="160" stroke="#000000" stroke-width="4.58333" stroke-miterlimit="8" fill="#F89F08"/><path d="M1145.5 2050.5 1208.11 1988.5 1279.5 1988.5 1216.89 2050.5Z" stroke="#000000" stroke-width="4.58333" stroke-miterlimit="8" fill="#F98461" fill-rule="evenodd"/><path d="M1215.5 2050.5 1278.11 1988.5 1349.5 1988.5 1286.89 2050.5Z" stroke="#000000" stroke-width="4.58333" stroke-miterlimit="8" fill="#FE6F08" fill-rule="evenodd"/><path d="M1285.5 2050.5 1348.11 1988.5 1420.5 1988.5 1357.89 2050.5Z" stroke="#000000" stroke-width="4.58333" stroke-miterlimit="8" fill="#FBA9C6" fill-rule="evenodd"/><path d="M1356.5 2050.5 1419.11 1988.5 1490.5 1988.5 1427.89 2050.5Z" stroke="#000000" stroke-width="4.58333" stroke-miterlimit="8" fill="#F8352F" fill-rule="evenodd"/><path d="M1426.5 2050.5 1489.11 1988.5 1560.5 1988.5 1497.89 2050.5Z" stroke="#000000" stroke-width="4.58333" stroke-miterlimit="8" fill="#F700F9" fill-rule="evenodd"/><path d="M1496.5 2050.5 1559.11 1988.5 1630.5 1988.5 1567.89 2050.5Z" stroke="#000000" stroke-width="4.58333" stroke-miterlimit="8" fill="#FEDFFF" fill-rule="evenodd"/><path d="M1566.5 2050.5 1629.11 1988.5 1701.5 1988.5 1638.89 2050.5Z" stroke="#000000" stroke-width="4.58333" stroke-miterlimit="8" fill="#FDE1E1" fill-rule="evenodd"/><path d="M1637.5 2050.5 1700.11 1988.5 1771.5 1988.5 1708.89 2050.5Z" stroke="#000000" stroke-width="4.58333" stroke-miterlimit="8" fill="#FAC461" fill-rule="evenodd"/><path d="M0 61.9999 62.6105 0 220 0 157.39 61.9999Z" stroke="#000000" stroke-width="4.58333" stroke-miterlimit="8" fill="#C57E04" fill-rule="evenodd" transform="matrix(1.83697e-16 1 1 -1.83697e-16 1709.5 1988.5)"/><rect x="1075.5" y="121.5" width="71.9999" height="160" stroke="#000000" stroke-width="4.58333" stroke-miterlimit="8" fill="#FFFFFF"/><path d="M1075.5 121.5 1138.11 59.5 1209.5 59.5 1146.89 121.5Z" stroke="#000000" stroke-width="4.58333" stroke-miterlimit="8" fill="#FFFFFF" fill-rule="evenodd"/><rect x="1145.5" y="121.5" width="72.0002" height="160" stroke="#000000" stroke-width="4.58333" stroke-miterlimit="8" fill="#FFFFFF"/><rect x="1215.5" y="121.5" width="71.9999" height="160" stroke="#000000" stroke-width="4.58333" stroke-miterlimit="8" fill="#FFFFFF"/><rect x="1286.5" y="121.5" width="70.9998" height="160" stroke="#000000" stroke-width="4.58333" stroke-miterlimit="8" fill="#FFFFFF"/><rect x="1356.5" y="121.5" width="71.0001" height="160" stroke="#000000" stroke-width="4.58333" stroke-miterlimit="8" fill="#FFFFFF"/><rect x="1426.5" y="121.5" width="71.9999" height="160" stroke="#000000" stroke-width="4.58333" stroke-miterlimit="8" fill="#FFFFFF"/><rect x="1496.5" y="121.5" width="72.0002" height="160" stroke="#000000" stroke-width="4.58333" stroke-miterlimit="8" fill="#FFFFFF"/><rect x="1566.5" y="121.5" width="72.0002" height="160" stroke="#000000" stroke-width="4.58333" stroke-miterlimit="8" fill="#FFFFFF"/><rect x="1637.5" y="121.5" width="70.9998" height="160" stroke="#000000" stroke-width="4.58333" stroke-miterlimit="8" fill="#FFFFFF"/><path d="M1145.5 121.5 1208.11 59.5 1279.5 59.5 1216.89 121.5Z" stroke="#000000" stroke-width="4.58333" stroke-miterlimit="8" fill="#FFFFFF" fill-rule="evenodd"/><path d="M1215.5 121.5 1278.11 59.5 1349.5 59.5 1286.89 121.5Z" stroke="#000000" stroke-width="4.58333" stroke-miterlimit="8" fill="#FFFFFF" fill-rule="evenodd"/><path d="M1286.5 121.5 1349.11 59.5 1420.5 59.5 1357.89 121.5Z" stroke="#000000" stroke-width="4.58333" stroke-miterlimit="8" fill="#FFFFFF" fill-rule="evenodd"/><path d="M1356.5 121.5 1419.11 59.5 1490.5 59.5 1427.89 121.5Z" stroke="#000000" stroke-width="4.58333" stroke-miterlimit="8" fill="#FFFFFF" fill-rule="evenodd"/><path d="M1426.5 121.5 1489.11 59.5 1560.5 59.5 1497.89 121.5Z" stroke="#000000" stroke-width="4.58333" stroke-miterlimit="8" fill="#FFFFFF" fill-rule="evenodd"/><path d="M1496.5 121.5 1559.11 59.5 1630.5 59.5 1567.89 121.5Z" stroke="#000000" stroke-width="4.58333" stroke-miterlimit="8" fill="#FFFFFF" fill-rule="evenodd"/><path d="M1566.5 121.5 1629.11 59.5 1701.5 59.5 1638.89 121.5Z" stroke="#000000" stroke-width="4.58333" stroke-miterlimit="8" fill="#FFFFFF" fill-rule="evenodd"/><path d="M1637.5 121.5 1700.11 59.5 1771.5 59.5 1708.89 121.5Z" stroke="#000000" stroke-width="4.58333" stroke-miterlimit="8" fill="#FFFFFF" fill-rule="evenodd"/><path d="M0 61.9999 62.6105 0 220 0 157.39 61.9999Z" stroke="#000000" stroke-width="4.58333" stroke-miterlimit="8" fill="#FFFFFF" fill-rule="evenodd" transform="matrix(1.83697e-16 1 1 -1.83697e-16 1709.5 59.5)"/><text font-family="CMU Serif,CMU Serif_MSFontService,sans-serif" font-weight="500" font-size="82" transform="matrix(1 0 0 1 967.745 229)">X</text><text font-family="CMU Serif,CMU Serif_MSFontService,sans-serif" font-weight="500" font-size="82" transform="matrix(1 0 0 1 967.014 2165)">X</text><text font-family="CMU Serif,CMU Serif_MSFontService,sans-serif" font-weight="500" font-size="82" transform="matrix(1 0 0 1 972.744 2142)">^</text><path d="M3.4375-4.10608e-05 3.45419 1397.09-3.42081 1397.09-3.4375 4.10608e-05ZM13.7666 1392.51 0.0169619 1420.01-13.7334 1392.51Z" transform="matrix(-1 0 0 1 1392.52 281.5)"/><path d="M1514.5 508.278C1514.5 498.459 1522.46 490.5 1532.28 490.5L2342.72 490.5C2352.54 490.5 2360.5 498.459 2360.5 508.278L2360.5 694.722C2360.5 704.541 2352.54 712.5 2342.72 712.5L1532.28 712.5C1522.46 712.5 1514.5 704.541 1514.5 694.722Z" stroke="#000000" stroke-width="4.58333" stroke-linecap="round" stroke-miterlimit="8" stroke-dasharray="32.0833 18.3333" fill="none" fill-rule="evenodd"/><path d="M1544.5 796.1C1544.5 790.246 1549.25 785.5 1555.1 785.5L2319.9 785.5C2325.75 785.5 2330.5 790.246 2330.5 796.1L2330.5 933.9C2330.5 939.754 2325.75 944.5 2319.9 944.5L1555.1 944.5C1549.25 944.5 1544.5 939.754 1544.5 933.9Z" stroke="#000000" stroke-width="4.58333" stroke-miterlimit="8" fill="#FFFFFF" fill-rule="evenodd"/><text font-family="CMU Serif,CMU Serif_MSFontService,sans-serif" font-weight="500" font-size="83" transform="matrix(1 0 0 1 1615.51 893)">Fully</text><text font-family="CMU Serif,CMU Serif_MSFontService,sans-serif" font-weight="500" font-size="83" transform="matrix(1 0 0 1 1804.57 893)">-</text><text font-family="CMU Serif,CMU Serif_MSFontService,sans-serif" font-weight="500" font-size="83" transform="matrix(1 0 0 1 1832.07 893)">connected</text><text font-family="CMU Serif,CMU Serif_MSFontService,sans-serif" font-weight="500" font-size="83" transform="matrix(1 0 0 1 2217.07 893)">1</text><path d="M1514.5 769.346C1514.5 760.594 1521.59 753.5 1530.35 753.5L2344.65 753.5C2353.41 753.5 2360.5 760.594 2360.5 769.346L2360.5 1663.65C2360.5 1672.41 2353.41 1679.5 2344.65 1679.5L1530.35 1679.5C1521.59 1679.5 1514.5 1672.41 1514.5 1663.65Z" stroke="#000000" stroke-width="4.58333" stroke-linecap="round" stroke-miterlimit="8" stroke-dasharray="32.0833 18.3333" fill="none" fill-rule="evenodd"/><path d="M1940.94 681.5 1940.94 762.685 1934.06 762.685 1934.06 681.5ZM1951.25 758.101 1937.5 785.601 1923.75 758.101Z"/><path d="M1544.5 1013.1C1544.5 1007.25 1549.25 1002.5 1555.1 1002.5L2319.9 1002.5C2325.75 1002.5 2330.5 1007.25 2330.5 1013.1L2330.5 1150.9C2330.5 1156.75 2325.75 1161.5 2319.9 1161.5L1555.1 1161.5C1549.25 1161.5 1544.5 1156.75 1544.5 1150.9Z" stroke="#000000" stroke-width="4.58333" stroke-miterlimit="8" fill="#FFFFFF" fill-rule="evenodd"/><text font-family="CMU Serif,CMU Serif_MSFontService,sans-serif" font-weight="500" font-size="83" transform="matrix(1 0 0 1 1831.5 1110)">ReLU</text><path d="M3.4375-2.13014e-05 3.43772 35.322-3.43728 35.322-3.4375 2.13014e-05ZM13.7502 30.7386 0.000360892 58.2386-13.7498 30.7387Z" transform="matrix(-1 0 0 1 1937.5 944.5)"/><path d="M1544.5 1230.17C1544.5 1224.28 1549.28 1219.5 1555.17 1219.5L2319.83 1219.5C2325.72 1219.5 2330.5 1224.28 2330.5 1230.17L2330.5 1368.83C2330.5 1374.72 2325.72 1379.5 2319.83 1379.5L1555.17 1379.5C1549.28 1379.5 1544.5 1374.72 1544.5 1368.83Z" stroke="#000000" stroke-width="4.58333" stroke-miterlimit="8" fill="#FFFFFF" fill-rule="evenodd"/><text font-family="CMU Serif,CMU Serif_MSFontService,sans-serif" font-weight="500" font-size="83" transform="matrix(1 0 0 1 1615.51 1328)">Fully</text><text font-family="CMU Serif,CMU Serif_MSFontService,sans-serif" font-weight="500" font-size="83" transform="matrix(1 0 0 1 1804.57 1328)">-</text><text font-family="CMU Serif,CMU Serif_MSFontService,sans-serif" font-weight="500" font-size="83" transform="matrix(1 0 0 1 1832.07 1328)">connected</text><text font-family="CMU Serif,CMU Serif_MSFontService,sans-serif" font-weight="500" font-size="83" transform="matrix(1 0 0 1 2217.07 1328)">2</text><path d="M3.4375-2.13014e-05 3.43772 35.322-3.43728 35.322-3.4375 2.13014e-05ZM13.7502 30.7386 0.000360892 58.2386-13.7498 30.7387Z" transform="matrix(-1 0 0 1 1937.5 1161.5)"/><path d="M1544.5 1448.1C1544.5 1442.25 1549.25 1437.5 1555.1 1437.5L2319.9 1437.5C2325.75 1437.5 2330.5 1442.25 2330.5 1448.1L2330.5 1585.9C2330.5 1591.75 2325.75 1596.5 2319.9 1596.5L1555.1 1596.5C1549.25 1596.5 1544.5 1591.75 1544.5 1585.9Z" stroke="#000000" stroke-width="4.58333" stroke-miterlimit="8" fill="#FFFFFF" fill-rule="evenodd"/><text font-family="CMU Serif,CMU Serif_MSFontService,sans-serif" font-weight="500" font-size="83" transform="matrix(1 0 0 1 1700.88 1545)">Sigmoid </text><text font-family="CMU Serif,CMU Serif_MSFontService,sans-serif" font-weight="500" font-size="83" transform="matrix(1 0 0 1 2017.7 1545)">σ</text><text font-family="CMU Serif,CMU Serif_MSFontService,sans-serif" font-weight="500" font-size="83" transform="matrix(1 0 0 1 2065.25 1545)">(x)</text><path d="M3.4375-2.13014e-05 3.43772 35.322-3.43728 35.322-3.4375 2.13014e-05ZM13.7502 30.7386 0.000360892 58.2386-13.7498 30.7387Z" transform="matrix(-1 0 0 1 1937.5 1379.5)"/><path d="M0-3.4375 123.804-3.4375 123.804 545.298 120.366 541.861 217.815 541.861 217.815 548.736 116.929 548.736 116.929 0 120.366 3.4375 0 3.4375ZM213.231 531.548 240.731 545.298 213.231 559.048Z" transform="matrix(1.83697e-16 1 1 -1.83697e-16 1392.5 281.5)"/><path d="M1936.39 1648.5 1936.39 1784.87 1495.42 1784.87 1495.42 1778 1932.95 1778 1929.51 1781.44 1929.51 1648.5ZM1500 1795.19 1472.5 1781.44 1500 1767.69Z"/><path d="M0 0C23.203 0 46.4061 17.4613 46.4061 34.9225 46.4061 52.3837 69.6091 69.8449 92.8121 69.8449" stroke="#7F7F7F" stroke-width="6.875" stroke-miterlimit="8" fill="none" fill-rule="evenodd" transform="matrix(1 0 0 -1 2217.5 1555.34)"/><path d="M2199.5 1107.5 2241.72 1107.5" stroke="#7F7F7F" stroke-width="6.875" stroke-miterlimit="8" fill="none" fill-rule="evenodd"/><path d="M0 0 58.2217 58.2217" stroke="#7F7F7F" stroke-width="6.875" stroke-miterlimit="8" fill="none" fill-rule="evenodd" transform="matrix(-1 0 0 1 2297.72 1049.5)"/><path d="M1311.5 1782C1311.5 1737.54 1347.54 1701.5 1392 1701.5 1436.46 1701.5 1472.5 1737.54 1472.5 1782 1472.5 1826.46 1436.46 1862.5 1392 1862.5 1347.54 1862.5 1311.5 1826.46 1311.5 1782Z" stroke="#000000" stroke-width="4.58333" stroke-miterlimit="8" fill="#FFFFFF" fill-rule="evenodd"/><path d="M3.4375-0.00406033 3.6331 165.593-3.2419 165.601-3.4375 0.00406033ZM13.9402 160.998 0.222671 188.514-13.5598 161.03Z" transform="matrix(-1 0 0 1 1391.72 1862.5)"/><path d="M1365.68 1753 1390.01 1777.27 1414.34 1753 1419.39 1757.99 1395.32 1782.48 1419.44 1806.87 1414.07 1812.24 1390.01 1787.69 1365.19 1812.02 1360.2 1806.98 1384.74 1782.48 1360.3 1758.37Z" fill-rule="evenodd"/><text fill="#000000" fill-opacity="0" font-family="Arial,Arial_MSFontService,sans-serif" font-size="59.2432" x="1360.2" y="1804.83">×</text><text font-family="CMU Serif,CMU Serif_MSFontService,sans-serif" font-weight="500" font-size="83" transform="matrix(1 0 0 1 1059.78 635)">Squeeze</text><text font-family="CMU Serif,CMU Serif_MSFontService,sans-serif" font-weight="500" font-size="83" transform="matrix(1 0 0 1 999.275 1104)">Excitation</text><text font-family="CMU Serif,CMU Serif_MSFontService,sans-serif" font-weight="500" font-size="83" transform="matrix(1 0 0 1 1090.62 1811)">Scale</text></g></svg>