<svg width="1437" height="2183" xmlns="http://www.w3.org/2000/svg" xmlns:xlink="http://www.w3.org/1999/xlink" xml:space="preserve" overflow="hidden"><g transform="translate(-2960 -103)"><rect x="3650.5" y="1539.5" width="71.9998" height="159" stroke="#000000" stroke-width="4.58333" stroke-miterlimit="8" fill="#973803"/><rect x="3720.5" y="1539.5" width="72.0002" height="159" stroke="#000000" stroke-width="4.58333" stroke-miterlimit="8" fill="#F83B08"/><rect x="3791.5" y="1539.5" width="70.9998" height="159" stroke="#000000" stroke-width="4.58333" stroke-miterlimit="8" fill="#FE6F08"/><rect x="3861.5" y="1539.5" width="72.0002" height="159" stroke="#000000" stroke-width="4.58333" stroke-miterlimit="8" fill="#FA6599"/><rect x="3931.5" y="1539.5" width="72.0002" height="159" stroke="#000000" stroke-width="4.58333" stroke-miterlimit="8" fill="#C61105"/><rect x="4001.5" y="1539.5" width="71.9998" height="159" stroke="#000000" stroke-width="4.58333" stroke-miterlimit="8" fill="#980099"/><rect x="4071.5" y="1539.5" width="72.0002" height="159" stroke="#000000" stroke-width="4.58333" stroke-miterlimit="8" fill="#FEC9FF"/><rect x="4142.5" y="1539.5" width="71" height="159" stroke="#000000" stroke-width="4.58333" stroke-miterlimit="8" fill="#FCCDCC"/><rect x="4212.5" y="1539.5" width="72" height="159" stroke="#000000" stroke-width="4.58333" stroke-miterlimit="8" fill="#F89F08"/><path d="M0 62.9999 63.6203 0 220 0 156.38 62.9999Z" stroke="#000000" stroke-width="4.58333" stroke-miterlimit="8" fill="#C57E04" fill-rule="evenodd" transform="matrix(1.83697e-16 1 1 -1.83697e-16 4284.5 1477.5)"/><path d="M3578.5 582.101C3578.5 576.246 3583.25 571.5 3589.1 571.5L4353.9 571.5C4359.75 571.5 4364.5 576.246 4364.5 582.101L4364.5 719.9C4364.5 725.754 4359.75 730.5 4353.9 730.5L3589.1 730.5C3583.25 730.5 3578.5 725.754 3578.5 719.9Z" stroke="#000000" stroke-width="4.58333" stroke-miterlimit="8" fill="#FFFFFF" fill-rule="evenodd"/><text font-family="CMU Serif,CMU Serif_MSFontService,sans-serif" font-weight="500" font-size="83" transform="matrix(1 0 0 1 3649.07 679)">Global AVG</text><text font-family="CMU Serif,CMU Serif_MSFontService,sans-serif" font-weight="500" font-size="83" transform="matrix(1 0 0 1 4103.97 679)">-</text><text font-family="CMU Serif,CMU Serif_MSFontService,sans-serif" font-weight="500" font-size="83" transform="matrix(1 0 0 1 4131.47 679)">Pool</text><rect x="3109.5" y="2100.5" width="71.9998" height="160" stroke="#000000" stroke-width="4.58333" stroke-miterlimit="8" fill="#973803"/><path d="M3109.5 2100.5 3172.11 2038.5 3243.5 2038.5 3180.89 2100.5Z" stroke="#000000" stroke-width="4.58333" stroke-miterlimit="8" fill="#A15D2F" fill-rule="evenodd"/><rect x="3179.5" y="2100.5" width="72.0002" height="160" stroke="#000000" stroke-width="4.58333" stroke-miterlimit="8" fill="#F83B08"/><rect x="3249.5" y="2100.5" width="72.0002" height="160" stroke="#000000" stroke-width="4.58333" stroke-miterlimit="8" fill="#FE6F08"/><rect x="3320.5" y="2100.5" width="70.9998" height="160" stroke="#000000" stroke-width="4.58333" stroke-miterlimit="8" fill="#FA6599"/><rect x="3390.5" y="2100.5" width="72.0002" height="160" stroke="#000000" stroke-width="4.58333" stroke-miterlimit="8" fill="#C61105"/><rect x="3460.5" y="2100.5" width="71.9998" height="160" stroke="#000000" stroke-width="4.58333" stroke-miterlimit="8" fill="#980099"/><rect x="3530.5" y="2100.5" width="71.9998" height="160" stroke="#000000" stroke-width="4.58333" stroke-miterlimit="8" fill="#FEC9FF"/><rect x="3601.5" y="2100.5" width="71.0002" height="160" stroke="#000000" stroke-width="4.58333" stroke-miterlimit="8" fill="#FCCDCC"/><rect x="3671.5" y="2100.5" width="71.9998" height="160" stroke="#000000" stroke-width="4.58333" stroke-miterlimit="8" fill="#F89F08"/><path d="M3179.5 2100.5 3242.11 2038.5 3313.5 2038.5 3250.89 2100.5Z" stroke="#000000" stroke-width="4.58333" stroke-miterlimit="8" fill="#F98461" fill-rule="evenodd"/><path d="M3249.5 2100.5 3312.11 2038.5 3384.5 2038.5 3321.89 2100.5Z" stroke="#000000" stroke-width="4.58333" stroke-miterlimit="8" fill="#FE6F08" fill-rule="evenodd"/><path d="M3320.5 2100.5 3383.11 2038.5 3454.5 2038.5 3391.89 2100.5Z" stroke="#000000" stroke-width="4.58333" stroke-miterlimit="8" fill="#FBA9C6" fill-rule="evenodd"/><path d="M3390.5 2100.5 3453.11 2038.5 3524.5 2038.5 3461.89 2100.5Z" stroke="#000000" stroke-width="4.58333" stroke-miterlimit="8" fill="#F8352F" fill-rule="evenodd"/><path d="M3460.5 2100.5 3523.11 2038.5 3594.5 2038.5 3531.89 2100.5Z" stroke="#000000" stroke-width="4.58333" stroke-miterlimit="8" fill="#F700F9" fill-rule="evenodd"/><path d="M3530.5 2100.5 3593.11 2038.5 3665.5 2038.5 3602.89 2100.5Z" stroke="#000000" stroke-width="4.58333" stroke-miterlimit="8" fill="#FEDFFF" fill-rule="evenodd"/><path d="M3601.5 2100.5 3664.11 2038.5 3735.5 2038.5 3672.89 2100.5Z" stroke="#000000" stroke-width="4.58333" stroke-miterlimit="8" fill="#FDE1E1" fill-rule="evenodd"/><path d="M3671.5 2100.5 3734.11 2038.5 3805.5 2038.5 3742.89 2100.5Z" stroke="#000000" stroke-width="4.58333" stroke-miterlimit="8" fill="#FAC461" fill-rule="evenodd"/><path d="M0 62.9999 63.6203 0 220 0 156.38 62.9999Z" stroke="#000000" stroke-width="4.58333" stroke-miterlimit="8" fill="#C57E04" fill-rule="evenodd" transform="matrix(1.83697e-16 1 1 -1.83697e-16 3743.5 2038.5)"/><rect x="3109.5" y="171.5" width="71.9998" height="160" stroke="#000000" stroke-width="4.58333" stroke-miterlimit="8" fill="#FFFFFF"/><path d="M3109.5 171.5 3172.11 109.5 3243.5 109.5 3180.89 171.5Z" stroke="#000000" stroke-width="4.58333" stroke-miterlimit="8" fill="#FFFFFF" fill-rule="evenodd"/><rect x="3179.5" y="171.5" width="72.0002" height="160" stroke="#000000" stroke-width="4.58333" stroke-miterlimit="8" fill="#FFFFFF"/><rect x="3249.5" y="171.5" width="72.0002" height="160" stroke="#000000" stroke-width="4.58333" stroke-miterlimit="8" fill="#FFFFFF"/><rect x="3320.5" y="171.5" width="70.9998" height="160" stroke="#000000" stroke-width="4.58333" stroke-miterlimit="8" fill="#FFFFFF"/><rect x="3390.5" y="171.5" width="72.0002" height="160" stroke="#000000" stroke-width="4.58333" stroke-miterlimit="8" fill="#FFFFFF"/><rect x="3460.5" y="171.5" width="71.9998" height="160" stroke="#000000" stroke-width="4.58333" stroke-miterlimit="8" fill="#FFFFFF"/><rect x="3530.5" y="171.5" width="71.9998" height="160" stroke="#000000" stroke-width="4.58333" stroke-miterlimit="8" fill="#FFFFFF"/><rect x="3601.5" y="171.5" width="71.0002" height="160" stroke="#000000" stroke-width="4.58333" stroke-miterlimit="8" fill="#FFFFFF"/><rect x="3671.5" y="171.5" width="71.9998" height="160" stroke="#000000" stroke-width="4.58333" stroke-miterlimit="8" fill="#FFFFFF"/><path d="M3179.5 171.5 3242.11 109.5 3313.5 109.5 3250.89 171.5Z" stroke="#000000" stroke-width="4.58333" stroke-miterlimit="8" fill="#FFFFFF" fill-rule="evenodd"/><path d="M3249.5 171.5 3312.11 109.5 3384.5 109.5 3321.89 171.5Z" stroke="#000000" stroke-width="4.58333" stroke-miterlimit="8" fill="#FFFFFF" fill-rule="evenodd"/><path d="M3320.5 171.5 3383.11 109.5 3454.5 109.5 3391.89 171.5Z" stroke="#000000" stroke-width="4.58333" stroke-miterlimit="8" fill="#FFFFFF" fill-rule="evenodd"/><path d="M3390.5 171.5 3453.11 109.5 3524.5 109.5 3461.89 171.5Z" stroke="#000000" stroke-width="4.58333" stroke-miterlimit="8" fill="#FFFFFF" fill-rule="evenodd"/><path d="M3460.5 171.5 3523.11 109.5 3594.5 109.5 3531.89 171.5Z" stroke="#000000" stroke-width="4.58333" stroke-miterlimit="8" fill="#FFFFFF" fill-rule="evenodd"/><path d="M3530.5 171.5 3593.11 109.5 3665.5 109.5 3602.89 171.5Z" stroke="#000000" stroke-width="4.58333" stroke-miterlimit="8" fill="#FFFFFF" fill-rule="evenodd"/><path d="M3601.5 171.5 3664.11 109.5 3735.5 109.5 3672.89 171.5Z" stroke="#000000" stroke-width="4.58333" stroke-miterlimit="8" fill="#FFFFFF" fill-rule="evenodd"/><path d="M3671.5 171.5 3734.11 109.5 3805.5 109.5 3742.89 171.5Z" stroke="#000000" stroke-width="4.58333" stroke-miterlimit="8" fill="#FFFFFF" fill-rule="evenodd"/><path d="M0 62.9999 63.6203 0 220 0 156.38 62.9999Z" stroke="#000000" stroke-width="4.58333" stroke-miterlimit="8" fill="#FFFFFF" fill-rule="evenodd" transform="matrix(1.83697e-16 1 1 -1.83697e-16 3743.5 109.5)"/><text font-family="CMU Serif,CMU Serif_MSFontService,sans-serif" font-weight="500" font-size="82" transform="matrix(1 0 0 1 3011.05 279)">x</text><text font-family="CMU Serif,CMU Serif_MSFontService,sans-serif" font-weight="500" font-size="82" transform="matrix(1 0 0 1 3010.31 2215)">x̂</text><path d="M3.4375-4.10608e-05 3.45419 1397.09-3.42081 1397.09-3.4375 4.10608e-05ZM13.7666 1392.51 0.0169619 1420.01-13.7334 1392.51Z" transform="matrix(-1 0 0 1 3426.52 331.5)"/><path d="M3548.5 558.278C3548.5 548.459 3556.46 540.5 3566.28 540.5L4376.72 540.5C4386.54 540.5 4394.5 548.459 4394.5 558.278L4394.5 744.722C4394.5 754.541 4386.54 762.5 4376.72 762.5L3566.28 762.5C3556.46 762.5 3548.5 754.541 3548.5 744.722Z" stroke="#000000" stroke-width="4.58333" stroke-linecap="round" stroke-miterlimit="8" stroke-dasharray="32.0833 18.3333" fill="none" fill-rule="evenodd"/><path d="M3578.5 846.101C3578.5 840.246 3583.25 835.5 3589.1 835.5L4353.9 835.5C4359.75 835.5 4364.5 840.246 4364.5 846.101L4364.5 983.9C4364.5 989.754 4359.75 994.5 4353.9 994.5L3589.1 994.5C3583.25 994.5 3578.5 989.754 3578.5 983.9Z" stroke="#000000" stroke-width="4.58333" stroke-miterlimit="8" fill="#FFFFFF" fill-rule="evenodd"/><text font-family="CMU Serif,CMU Serif_MSFontService,sans-serif" font-weight="500" font-size="83" transform="matrix(1 0 0 1 3649.64 943)">Fully</text><text font-family="CMU Serif,CMU Serif_MSFontService,sans-serif" font-weight="500" font-size="83" transform="matrix(1 0 0 1 3838.71 943)">-</text><text font-family="CMU Serif,CMU Serif_MSFontService,sans-serif" font-weight="500" font-size="83" transform="matrix(1 0 0 1 3866.21 943)">connected</text><text font-family="CMU Serif,CMU Serif_MSFontService,sans-serif" font-weight="500" font-size="83" transform="matrix(1 0 0 1 4223.71 943)"> </text><text font-family="CMU Serif,CMU Serif_MSFontService,sans-serif" font-weight="500" font-size="83" transform="matrix(1 0 0 1 4251.21 943)">1</text><path d="M3548.5 819.345C3548.5 810.594 3555.59 803.5 3564.35 803.5L4378.65 803.5C4387.41 803.5 4394.5 810.594 4394.5 819.345L4394.5 1713.65C4394.5 1722.41 4387.41 1729.5 4378.65 1729.5L3564.35 1729.5C3555.59 1729.5 3548.5 1722.41 3548.5 1713.65Z" stroke="#000000" stroke-width="4.58333" stroke-linecap="round" stroke-miterlimit="8" stroke-dasharray="32.0833 18.3333" fill="none" fill-rule="evenodd"/><path d="M3974.94 730.5 3974.94 811.684 3968.06 811.685 3968.06 730.5ZM3985.25 807.101 3971.5 834.601 3957.75 807.101Z"/><path d="M3578.5 1063.1C3578.5 1057.25 3583.25 1052.5 3589.1 1052.5L4353.9 1052.5C4359.75 1052.5 4364.5 1057.25 4364.5 1063.1L4364.5 1200.9C4364.5 1206.75 4359.75 1211.5 4353.9 1211.5L3589.1 1211.5C3583.25 1211.5 3578.5 1206.75 3578.5 1200.9Z" stroke="#000000" stroke-width="4.58333" stroke-miterlimit="8" fill="#FFFFFF" fill-rule="evenodd"/><text font-family="CMU Serif,CMU Serif_MSFontService,sans-serif" font-weight="500" font-size="83" transform="matrix(1 0 0 1 3865.63 1160)">ReLU</text><path d="M3.4375-2.13014e-05 3.43772 35.322-3.43728 35.322-3.4375 2.13014e-05ZM13.7502 30.7386 0.000360892 58.2386-13.7498 30.7387Z" transform="matrix(-1 0 0 1 3971.5 994.5)"/><path d="M3578.5 1280.17C3578.5 1274.28 3583.28 1269.5 3589.17 1269.5L4353.83 1269.5C4359.72 1269.5 4364.5 1274.28 4364.5 1280.17L4364.5 1418.83C4364.5 1424.72 4359.72 1429.5 4353.83 1429.5L3589.17 1429.5C3583.28 1429.5 3578.5 1424.72 3578.5 1418.83Z" stroke="#000000" stroke-width="4.58333" stroke-miterlimit="8" fill="#FFFFFF" fill-rule="evenodd"/><text font-family="CMU Serif,CMU Serif_MSFontService,sans-serif" font-weight="500" font-size="83" transform="matrix(1 0 0 1 3649.64 1377)">Fully</text><text font-family="CMU Serif,CMU Serif_MSFontService,sans-serif" font-weight="500" font-size="83" transform="matrix(1 0 0 1 3838.71 1377)">-</text><text font-family="CMU Serif,CMU Serif_MSFontService,sans-serif" font-weight="500" font-size="83" transform="matrix(1 0 0 1 3866.21 1377)">connected</text><text font-family="CMU Serif,CMU Serif_MSFontService,sans-serif" font-weight="500" font-size="83" transform="matrix(1 0 0 1 4223.71 1377)"> </text><text font-family="CMU Serif,CMU Serif_MSFontService,sans-serif" font-weight="500" font-size="83" transform="matrix(1 0 0 1 4251.21 1377)">2</text><path d="M3.4375-2.13014e-05 3.43772 35.322-3.43728 35.322-3.4375 2.13014e-05ZM13.7502 30.7386 0.000360892 58.2386-13.7498 30.7387Z" transform="matrix(-1 0 0 1 3971.5 1211.5)"/><path d="M3578.5 1498.1C3578.5 1492.25 3583.25 1487.5 3589.1 1487.5L4353.9 1487.5C4359.75 1487.5 4364.5 1492.25 4364.5 1498.1L4364.5 1635.9C4364.5 1641.75 4359.75 1646.5 4353.9 1646.5L3589.1 1646.5C3583.25 1646.5 3578.5 1641.75 3578.5 1635.9Z" stroke="#000000" stroke-width="4.58333" stroke-miterlimit="8" fill="#FFFFFF" fill-rule="evenodd"/><text font-family="CMU Serif,CMU Serif_MSFontService,sans-serif" font-weight="500" font-size="83" transform="matrix(1 0 0 1 3735.01 1595)">Sigmoid </text><text font-family="CMU Serif,CMU Serif_MSFontService,sans-serif" font-weight="500" font-size="83" transform="matrix(1 0 0 1 4051.83 1595)">σ</text><text font-family="CMU Serif,CMU Serif_MSFontService,sans-serif" font-weight="500" font-size="83" transform="matrix(1 0 0 1 4099.38 1595)">(x)</text><path d="M3.4375-2.13014e-05 3.43772 35.322-3.43728 35.322-3.4375 2.13014e-05ZM13.7502 30.7386 0.000360892 58.2386-13.7498 30.7387Z" transform="matrix(-1 0 0 1 3971.5 1429.5)"/><path d="M0-3.4375 123.804-3.4375 123.804 545.298 120.366 541.861 217.815 541.861 217.815 548.736 116.929 548.736 116.929 0 120.366 3.4375 0 3.4375ZM213.231 531.548 240.731 545.298 213.231 559.048Z" transform="matrix(1.83697e-16 1 1 -1.83697e-16 3426.5 331.5)"/><path d="M3970.39 1698.5 3970.39 1834.87 3529.42 1834.87 3529.42 1828 3966.95 1828 3963.51 1831.44 3963.51 1698.5ZM3534 1845.19 3506.5 1831.44 3534 1817.69Z"/><path d="M0 0C23.203 0 46.4061 17.4613 46.4061 34.9225 46.4061 52.3837 69.6091 69.8449 92.8121 69.8449" stroke="#7F7F7F" stroke-width="6.875" stroke-miterlimit="8" fill="none" fill-rule="evenodd" transform="matrix(1 0 0 -1 4251.5 1605.34)"/><path d="M4233.5 1157.5 4275.72 1157.5" stroke="#7F7F7F" stroke-width="6.875" stroke-miterlimit="8" fill="none" fill-rule="evenodd"/><path d="M0 0 58.2217 58.2217" stroke="#7F7F7F" stroke-width="6.875" stroke-miterlimit="8" fill="none" fill-rule="evenodd" transform="matrix(-1 0 0 1 4331.72 1099.5)"/><path d="M3345.5 1832C3345.5 1787.54 3381.54 1751.5 3426 1751.5 3470.46 1751.5 3506.5 1787.54 3506.5 1832 3506.5 1876.46 3470.46 1912.5 3426 1912.5 3381.54 1912.5 3345.5 1876.46 3345.5 1832Z" stroke="#000000" stroke-width="4.58333" stroke-miterlimit="8" fill="#FFFFFF" fill-rule="evenodd"/><path d="M3.4375-0.00406033 3.6331 165.593-3.2419 165.601-3.4375 0.00406033ZM13.9402 160.998 0.222671 188.514-13.5598 161.03Z" transform="matrix(-1 0 0 1 3426.72 1912.5)"/><path d="M3399.81 1802.95 3424.14 1827.23 3448.47 1802.95 3453.52 1807.94 3429.46 1832.44 3453.57 1856.82 3448.2 1862.19 3424.14 1837.65 3399.33 1861.98 3394.33 1856.93 3418.88 1832.44 3394.44 1808.32Z" fill-rule="evenodd"/><text fill="#000000" fill-opacity="0" font-family="Arial,Arial_MSFontService,sans-serif" font-size="59.2432" x="3394.33" y="1854.79">×</text><text font-family="CMU Serif,CMU Serif_MSFontService,sans-serif" font-weight="500" font-size="83" transform="matrix(1 0 0 1 3093.91 685)">Squeeze</text><text font-family="CMU Serif,CMU Serif_MSFontService,sans-serif" font-weight="500" font-size="83" transform="matrix(1 0 0 1 3033.41 1154)">Excitation</text><text font-family="CMU Serif,CMU Serif_MSFontService,sans-serif" font-weight="500" font-size="83" transform="matrix(1 0 0 1 3124.75 1861)">Scale</text></g></svg>