<svg width="791" height="2056" xmlns="http://www.w3.org/2000/svg" xmlns:xlink="http://www.w3.org/1999/xlink" xml:space="preserve" overflow="hidden"><g transform="translate(-178 -159)"><text font-family="CMU Serif,CMU Serif_MSFontService,sans-serif" font-weight="500" font-size="82" transform="matrix(1 0 0 1 485.029 273)">x</text><path d="M180.5 561.1C180.5 555.246 185.246 550.5 191.1 550.5L955.9 550.5C961.754 550.5 966.5 555.246 966.5 561.1L966.5 698.9C966.5 704.754 961.754 709.5 955.9 709.5L191.1 709.5C185.246 709.5 180.5 704.754 180.5 698.9Z" stroke="#000000" stroke-width="4.58333" stroke-miterlimit="8" fill="#FFFFFF" fill-rule="evenodd"/><text font-family="CMU Serif,CMU Serif_MSFontService,sans-serif" font-weight="500" font-size="83" transform="matrix(1 0 0 1 349.474 658)">B</text><text font-family="CMU Serif,CMU Serif_MSFontService,sans-serif" font-weight="500" font-size="83" transform="matrix(1 0 0 1 407.911 658)">atch</text><text font-family="CMU Serif,CMU Serif_MSFontService,sans-serif" font-weight="500" font-size="83" transform="matrix(1 0 0 1 591.245 658)">Norm</text><path d="M180.5 778.101C180.5 772.246 185.246 767.5 191.1 767.5L955.9 767.5C961.754 767.5 966.5 772.246 966.5 778.101L966.5 915.9C966.5 921.754 961.754 926.5 955.9 926.5L191.1 926.5C185.246 926.5 180.5 921.754 180.5 915.9Z" stroke="#000000" stroke-width="4.58333" stroke-miterlimit="8" fill="#FFFFFF" fill-rule="evenodd"/><text font-family="CMU Serif,CMU Serif_MSFontService,sans-serif" font-weight="500" font-size="83" transform="matrix(1 0 0 1 467.208 875)">ReLU</text><path d="M3.4375-2.13014e-05 3.43772 35.322-3.43728 35.322-3.4375 2.13014e-05ZM13.7502 30.7386 0.000360892 58.2386-13.7498 30.7387Z" transform="matrix(-1 0 0 1 573.5 709.5)"/><path d="M834.5 872.5 876.725 872.5" stroke="#7F7F7F" stroke-width="6.875" stroke-miterlimit="8" fill="none" fill-rule="evenodd"/><path d="M0 0 58.2217 58.2217" stroke="#7F7F7F" stroke-width="6.875" stroke-miterlimit="8" fill="none" fill-rule="evenodd" transform="matrix(-1 0 0 1 933.722 814.5)"/><path d="M180.5 343.1C180.5 337.246 185.246 332.5 191.1 332.5L955.9 332.5C961.754 332.5 966.5 337.246 966.5 343.1L966.5 480.9C966.5 486.754 961.754 491.5 955.9 491.5L191.1 491.5C185.246 491.5 180.5 486.754 180.5 480.9Z" stroke="#000000" stroke-width="4.58333" stroke-miterlimit="8" fill="#FFFFFF" fill-rule="evenodd"/><text font-family="CMU Serif,CMU Serif_MSFontService,sans-serif" font-weight="500" font-size="83" transform="matrix(1 0 0 1 317.39 440)">Conv2d Layer</text><path d="M576.937 491.5 576.938 527.364 570.063 527.364 570.062 491.5ZM587.25 522.78 573.5 550.28 559.75 522.781Z"/><path d="M576.937 159.5 576.938 309.845 570.063 309.845 570.062 159.5ZM587.25 305.262 573.5 332.762 559.75 305.262Z"/><path d="M180.5 996.1C180.5 990.246 185.246 985.5 191.1 985.5L955.9 985.5C961.754 985.5 966.5 990.246 966.5 996.1L966.5 1133.9C966.5 1139.75 961.754 1144.5 955.9 1144.5L191.1 1144.5C185.246 1144.5 180.5 1139.75 180.5 1133.9Z" stroke="#000000" stroke-width="4.58333" stroke-miterlimit="8" fill="#FFFFFF" fill-rule="evenodd"/><text font-family="CMU Serif,CMU Serif_MSFontService,sans-serif" font-weight="500" font-size="83" transform="matrix(1 0 0 1 440.281 1093)">Flatten</text><path d="M180.5 1214.1C180.5 1208.25 185.246 1203.5 191.1 1203.5L955.9 1203.5C961.754 1203.5 966.5 1208.25 966.5 1214.1L966.5 1351.9C966.5 1357.75 961.754 1362.5 955.9 1362.5L191.1 1362.5C185.246 1362.5 180.5 1357.75 180.5 1351.9Z" stroke="#000000" stroke-width="4.58333" stroke-miterlimit="8" fill="#FFFFFF" fill-rule="evenodd"/><text font-family="CMU Serif,CMU Serif_MSFontService,sans-serif" font-weight="500" font-size="83" transform="matrix(1 0 0 1 285.593 1311)">Fully</text><text font-family="CMU Serif,CMU Serif_MSFontService,sans-serif" font-weight="500" font-size="83" transform="matrix(1 0 0 1 474.655 1311)">-</text><text font-family="CMU Serif,CMU Serif_MSFontService,sans-serif" font-weight="500" font-size="83" transform="matrix(1 0 0 1 502.155 1311)">connected</text><path d="M3.4375-2.13014e-05 3.43772 35.322-3.43728 35.322-3.4375 2.13014e-05ZM13.7502 30.7386 0.000360892 58.2386-13.7498 30.7387Z" transform="matrix(-1 0 0 1 573.5 1144.5)"/><path d="M576.937 926.5 576.938 962.364 570.063 962.364 570.062 926.5ZM587.25 957.78 573.5 985.28 559.75 957.78Z"/><path d="M180.5 1431.1C180.5 1425.25 185.246 1420.5 191.1 1420.5L955.9 1420.5C961.754 1420.5 966.5 1425.25 966.5 1431.1L966.5 1568.9C966.5 1574.75 961.754 1579.5 955.9 1579.5L191.1 1579.5C185.246 1579.5 180.5 1574.75 180.5 1568.9Z" stroke="#000000" stroke-width="4.58333" stroke-miterlimit="8" fill="#FFFFFF" fill-rule="evenodd"/><text font-family="CMU Serif,CMU Serif_MSFontService,sans-serif" font-weight="500" font-size="83" transform="matrix(1 0 0 1 467.207 1528)">ReLU</text><path d="M576.937 1362.5 576.938 1397.82 570.063 1397.82 570.062 1362.5ZM587.25 1393.24 573.5 1420.74 559.75 1393.24Z"/><path d="M834.5 1525.5 876.725 1525.5" stroke="#7F7F7F" stroke-width="6.875" stroke-miterlimit="8" fill="none" fill-rule="evenodd"/><path d="M0 0 58.2217 58.2217" stroke="#7F7F7F" stroke-width="6.875" stroke-miterlimit="8" fill="none" fill-rule="evenodd" transform="matrix(-1 0 0 1 933.722 1467.5)"/><path d="M180.5 1649.1C180.5 1643.25 185.246 1638.5 191.1 1638.5L955.9 1638.5C961.754 1638.5 966.5 1643.25 966.5 1649.1L966.5 1786.9C966.5 1792.75 961.754 1797.5 955.9 1797.5L191.1 1797.5C185.246 1797.5 180.5 1792.75 180.5 1786.9Z" stroke="#000000" stroke-width="4.58333" stroke-miterlimit="8" fill="#FFFFFF" fill-rule="evenodd"/><text font-family="CMU Serif,CMU Serif_MSFontService,sans-serif" font-weight="500" font-size="83" transform="matrix(1 0 0 1 285.593 1746)">Fully</text><text font-family="CMU Serif,CMU Serif_MSFontService,sans-serif" font-weight="500" font-size="83" transform="matrix(1 0 0 1 474.655 1746)">-</text><text font-family="CMU Serif,CMU Serif_MSFontService,sans-serif" font-weight="500" font-size="83" transform="matrix(1 0 0 1 502.155 1746)">connected</text><path d="M180.5 1866.17C180.5 1860.28 185.276 1855.5 191.167 1855.5L955.833 1855.5C961.724 1855.5 966.5 1860.28 966.5 1866.17L966.5 2004.83C966.5 2010.72 961.724 2015.5 955.833 2015.5L191.167 2015.5C185.276 2015.5 180.5 2010.72 180.5 2004.83Z" stroke="#000000" stroke-width="4.58333" stroke-miterlimit="8" fill="#FFFFFF" fill-rule="evenodd"/><text font-family="CMU Serif,CMU Serif_MSFontService,sans-serif" font-weight="500" font-size="83" transform="matrix(1 0 0 1 436.27 1964)">tanh</text><text font-family="CMU Serif,CMU Serif_MSFontService,sans-serif" font-weight="500" font-size="83" transform="matrix(1 0 0 1 601.27 1964)">(x)</text><path d="M3.4375-2.13014e-05 3.43772 35.322-3.43728 35.322-3.4375 2.13014e-05ZM13.7502 30.7386 0.000360892 58.2386-13.7498 30.7387Z" transform="matrix(-1 0 0 1 573.5 1797.5)"/><path d="M576.937 1579.5 576.938 1615.36 570.063 1615.36 570.062 1579.5ZM587.25 1610.78 573.5 1638.28 559.75 1610.78Z"/><path d="M0 0C23.1904 0 46.3808 22.2006 46.3808 44.4011 46.3808 66.6017 69.5712 88.8023 92.7616 88.8023" stroke="#7F7F7F" stroke-width="6.875" stroke-miterlimit="8" fill="none" fill-rule="evenodd" transform="matrix(1 0 0 -1 834.5 1980.3)"/><text font-family="Cambria Math,Cambria Math_MSFontService,sans-serif" font-weight="400" font-size="82" transform="matrix(1 0 0 1 368.468 2128)">ğ’±</text><text font-family="CMU Serif,CMU Serif_MSFontService,sans-serif" font-weight="500" font-size="82" transform="matrix(1 0 0 1 424.614 2128)">(x)</text><path d="M576.937 2015.5 576.938 2163.81 570.063 2163.81 570.062 2015.5ZM587.25 2159.23 573.5 2186.73 559.75 2159.23Z"/></g></svg>