<svg width="4642" height="2401" xmlns="http://www.w3.org/2000/svg" xmlns:xlink="http://www.w3.org/1999/xlink" xml:space="preserve" overflow="hidden"><g transform="translate(222 25)"><text font-family="CMU Serif,CMU Serif_MSFontService,sans-serif" font-weight="500" font-size="73" transform="matrix(1 0 0 1 1409.38 2168)">XOR</text><text font-family="Cambria Math,Cambria Math_MSFontService,sans-serif" font-weight="400" font-size="73" transform="matrix(1 0 0 1 1599.58 2168)">⊕</text><text font-family="CMU Serif,CMU Serif_MSFontService,sans-serif" font-weight="500" font-size="82" transform="matrix(1 0 0 1 1744.78 71)">0100100001101101000100001011100101000010101100010110100110011110</text><text font-family="CMU Serif,CMU Serif_MSFontService,sans-serif" font-weight="500" font-size="82" transform="matrix(1 0 0 1 3022.38 171)">…</text><text font-family="CMU Serif,CMU Serif_MSFontService,sans-serif" font-weight="500" font-size="82" transform="matrix(1 0 0 1 1745.06 271)">0110101110011000001100001001010000100101111110100101001111001000</text><text font-family="CMU Serif,CMU Serif_MSFontService,sans-serif" font-weight="500" font-size="82" transform="matrix(1 0 0 1 1745.64 371)">0101111110110001110101011110000001011100000110000010110001110100</text><text font-family="CMU Serif,CMU Serif_MSFontService,sans-serif" font-weight="500" font-size="82" transform="matrix(1 0 0 1 3022.38 471)">…</text><text font-family="CMU Serif,CMU Serif_MSFontService,sans-serif" font-weight="500" font-size="82" transform="matrix(1 0 0 1 1744.49 571)">0010000111011001000011111010101001101001011001000111000000001010</text><text font-family="CMU Serif,CMU Serif_MSFontService,sans-serif" font-weight="500" font-size="82" transform="matrix(1 0 0 1 1747.64 671)">1101111111010110011101100101000001010001111110110100110110110110</text><text font-family="CMU Serif,CMU Serif_MSFontService,sans-serif" font-weight="500" font-size="82" transform="matrix(1 0 0 1 3022.38 770)">…</text><text font-family="CMU Serif,CMU Serif_MSFontService,sans-serif" font-weight="500" font-size="82" transform="matrix(1 0 0 1 1746.5 870)">0110100011100100011001110010011110111111000101000111110000101110</text><text font-family="CMU Serif,CMU Serif_MSFontService,sans-serif" font-weight="500" font-size="82" transform="matrix(1 0 0 1 1745.64 970)">0001010011011000110010110110110010100111000110100111110000110010</text><text font-family="CMU Serif,CMU Serif_MSFontService,sans-serif" font-weight="500" font-size="82" transform="matrix(1 0 0 1 3022.38 1070)">…</text><text font-family="CMU Serif,CMU Serif_MSFontService,sans-serif" font-weight="500" font-size="82" transform="matrix(1 0 0 1 1747.36 1170)">1000001001111010110100101111100001110111100111111101101100101010</text><text font-family="CMU Serif,CMU Serif_MSFontService,sans-serif" font-weight="500" font-size="82" transform="matrix(1 0 0 1 1745.06 1270)">1101000000000011000111000111100100111011011010100100110000010111</text><text font-family="CMU Serif,CMU Serif_MSFontService,sans-serif" font-weight="500" font-size="82" transform="matrix(1 0 0 1 3022.38 1370)">…</text><text font-family="CMU Serif,CMU Serif_MSFontService,sans-serif" font-weight="500" font-size="82" transform="matrix(1 0 0 1 1746.21 1470)">1010111011001110110110001010001011101011001100100111001100010001</text><text font-family="CMU Serif,CMU Serif_MSFontService,sans-serif" font-weight="500" font-size="82" transform="matrix(1 0 0 1 1747.64 1570)">1101011110010110101100110101011011111000001010010110101011111110</text><text font-family="CMU Serif,CMU Serif_MSFontService,sans-serif" font-weight="500" font-size="82" transform="matrix(1 0 0 1 1745.92 1670)">1100100011011101110001110010111000110111000000101010011001000111</text><text font-family="CMU Serif,CMU Serif_MSFontService,sans-serif" font-weight="500" font-size="82" transform="matrix(1 0 0 1 1743.92 1770)">0011111010011010110000001001000010100000001101101011000001011000</text><text font-family="CMU Serif,CMU Serif_MSFontService,sans-serif" font-weight="500" font-size="82" transform="matrix(1 0 0 1 1747.36 1870)">1111100000111111100100010011101101000011110111011110101100001011</text><text font-family="CMU Serif,CMU Serif_MSFontService,sans-serif" font-weight="500" font-size="82" transform="matrix(1 0 0 1 1745.92 1969)">0011000010100110011011100110100101001111011101100100101010010110</text><text font-family="CMU Serif,CMU Serif_MSFontService,sans-serif" font-weight="500" font-size="82" transform="matrix(1 0 0 1 1746.78 2069)">0101100101100101011111001100111011010110011001111000011011010100</text><path d="M1407.5 2197.5 4400.2 2197.5" stroke="#000000" stroke-width="11.4583" stroke-miterlimit="8" fill="none" fill-rule="evenodd"/><path d="M1714.5 274.5C1693.51 274.5 1676.5 260.79 1676.5 243.878L1676.5 177.123C1676.5 160.21 1659.49 146.5 1638.5 146.5 1659.49 146.5 1676.5 132.79 1676.5 115.878L1676.5 49.1227C1676.5 32.2103 1693.51 18.5001 1714.5 18.5001" stroke="#000000" stroke-width="9.16667" stroke-miterlimit="8" fill="none" fill-rule="evenodd"/><path d="M1714.5 877.5C1693.51 877.5 1676.5 863.79 1676.5 846.878L1676.5 780.123C1676.5 763.21 1659.49 749.5 1638.5 749.5 1659.49 749.5 1676.5 735.79 1676.5 718.877L1676.5 652.123C1676.5 635.21 1693.51 621.5 1714.5 621.5" stroke="#000000" stroke-width="9.16667" stroke-miterlimit="8" fill="none" fill-rule="evenodd"/><text font-family="CMU Serif,CMU Serif_MSFontService,sans-serif" font-weight="500" font-size="73" transform="matrix(1 0 0 1 726.459 122)">0 bis 33 zufällige Werte aus </text><text font-family="CMU Serif,CMU Serif_MSFontService,sans-serif" font-weight="500" font-size="73" transform="matrix(1 0 0 1 394.167 210)">verfügbare Flicken[ID, Distanz]</text><text font-family="CMU Serif,CMU Serif_MSFontService,sans-serif" font-weight="500" font-size="73" transform="matrix(1 0 0 1 1401.35 210)">-</text><text font-family="CMU Serif,CMU Serif_MSFontService,sans-serif" font-weight="500" font-size="73" transform="matrix(1 0 0 1 1425.99 210)">Array</text><path d="M1714.5 575.5C1693.51 575.5 1676.5 561.79 1676.5 544.877L1676.5 478.622C1676.5 461.71 1659.49 448 1638.5 448 1659.49 448 1676.5 434.29 1676.5 417.377L1676.5 351.122C1676.5 334.21 1693.51 320.5 1714.5 320.5" stroke="#000000" stroke-width="9.16667" stroke-miterlimit="8" fill="none" fill-rule="evenodd"/><text font-family="CMU Serif,CMU Serif_MSFontService,sans-serif" font-weight="500" font-size="73" transform="matrix(1 0 0 1 761.922 420)">0 bis 5 zufällige Werte aus</text><text font-family="CMU Serif,CMU Serif_MSFontService,sans-serif" font-weight="500" font-size="73" transform="matrix(1 0 0 1 892.547 508)">Spezialflicken[5]</text><text font-family="CMU Serif,CMU Serif_MSFontService,sans-serif" font-weight="500" font-size="73" transform="matrix(1 0 0 1 1401.3 508)">-</text><text font-family="CMU Serif,CMU Serif_MSFontService,sans-serif" font-weight="500" font-size="73" transform="matrix(1 0 0 1 1425.93 508)">Array</text><text font-family="CMU Serif,CMU Serif_MSFontService,sans-serif" font-weight="500" font-size="73" transform="matrix(1 0 0 1 761.922 723)">0 bis 5 zufällige Werte aus</text><text font-family="CMU Serif,CMU Serif_MSFontService,sans-serif" font-weight="500" font-size="73" transform="matrix(1 0 0 1 949.266 811)">StatusFlags</text><text font-family="CMU Serif,CMU Serif_MSFontService,sans-serif" font-weight="500" font-size="73" transform="matrix(1 0 0 1 1323.38 811)">[5]</text><text font-family="CMU Serif,CMU Serif_MSFontService,sans-serif" font-weight="500" font-size="73" transform="matrix(1 0 0 1 1401.3 811)">-</text><text font-family="CMU Serif,CMU Serif_MSFontService,sans-serif" font-weight="500" font-size="73" transform="matrix(1 0 0 1 1425.93 811)">Array</text><text font-family="CMU Serif,CMU Serif_MSFontService,sans-serif" font-style="italic" font-weight="500" font-size="73" transform="matrix(1 0 0 1 647.912 2290)">Zobrist</text><text font-family="CMU Serif,CMU Serif_MSFontService,sans-serif" font-style="italic" font-weight="500" font-size="73" transform="matrix(1 0 0 1 897.131 2290)">Hash</text><text font-family="CMU Serif,CMU Serif_MSFontService,sans-serif" font-weight="500" font-size="73" transform="matrix(1 0 0 1 1081.04 2290)">der Spielposition</text><path d="M1714.5 1180.5C1693.51 1180.5 1676.5 1166.79 1676.5 1149.88L1676.5 1083.12C1676.5 1066.21 1659.49 1052.5 1638.5 1052.5 1659.49 1052.5 1676.5 1038.79 1676.5 1021.88L1676.5 955.122C1676.5 938.21 1693.51 924.5 1714.5 924.5" stroke="#000000" stroke-width="9.16667" stroke-miterlimit="8" fill="none" fill-rule="evenodd"/><path d="M1714.5 1477.5C1693.51 1477.5 1676.5 1463.79 1676.5 1446.88L1676.5 1380.12C1676.5 1363.21 1659.49 1349.5 1638.5 1349.5 1659.49 1349.5 1676.5 1335.79 1676.5 1318.88L1676.5 1252.12C1676.5 1235.21 1693.51 1221.5 1714.5 1221.5" stroke="#000000" stroke-width="9.16667" stroke-miterlimit="8" fill="none" fill-rule="evenodd"/><text font-family="CMU Serif,CMU Serif_MSFontService,sans-serif" font-weight="500" font-size="73" transform="matrix(1 0 0 1 725.829 1025)">0 bis 81 zufällige Werte aus</text><text font-family="CMU Serif,CMU Serif_MSFontService,sans-serif" font-weight="500" font-size="73" transform="matrix(1 0 0 1 626.141 1113)">Spieler</text><text font-family="CMU Serif,CMU Serif_MSFontService,sans-serif" font-weight="500" font-size="73" transform="matrix(1 0 0 1 841.558 1113)">-</text><text font-family="CMU Serif,CMU Serif_MSFontService,sans-serif" font-weight="500" font-size="73" transform="matrix(1 0 0 1 866.193 1113)">1</text><text font-family="CMU Serif,CMU Serif_MSFontService,sans-serif" font-weight="500" font-size="73" transform="matrix(1 0 0 1 902.287 1113)">-</text><text font-family="CMU Serif,CMU Serif_MSFontService,sans-serif" font-weight="500" font-size="73" transform="matrix(1 0 0 1 926.922 1113)">Ablageplan[81]</text><text font-family="CMU Serif,CMU Serif_MSFontService,sans-serif" font-weight="500" font-size="73" transform="matrix(1 0 0 1 1401.3 1113)">-</text><text font-family="CMU Serif,CMU Serif_MSFontService,sans-serif" font-weight="500" font-size="73" transform="matrix(1 0 0 1 1425.93 1113)">Array</text><text font-family="CMU Serif,CMU Serif_MSFontService,sans-serif" font-weight="500" font-size="73" transform="matrix(1 0 0 1 725.829 1319)">0 bis 81 zufällige Werte aus</text><text font-family="CMU Serif,CMU Serif_MSFontService,sans-serif" font-weight="500" font-size="73" transform="matrix(1 0 0 1 625.568 1407)">Spieler</text><text font-family="CMU Serif,CMU Serif_MSFontService,sans-serif" font-weight="500" font-size="73" transform="matrix(1 0 0 1 840.985 1407)">-</text><text font-family="CMU Serif,CMU Serif_MSFontService,sans-serif" font-weight="500" font-size="73" transform="matrix(1 0 0 1 865.62 1407)">2</text><text font-family="CMU Serif,CMU Serif_MSFontService,sans-serif" font-weight="500" font-size="73" transform="matrix(1 0 0 1 902.287 1407)">-</text><text font-family="CMU Serif,CMU Serif_MSFontService,sans-serif" font-weight="500" font-size="73" transform="matrix(1 0 0 1 926.922 1407)">Ablageplan[81]</text><text font-family="CMU Serif,CMU Serif_MSFontService,sans-serif" font-weight="500" font-size="73" transform="matrix(1 0 0 1 1401.3 1407)">-</text><text font-family="CMU Serif,CMU Serif_MSFontService,sans-serif" font-weight="500" font-size="73" transform="matrix(1 0 0 1 1425.93 1407)">Array</text><text font-family="CMU Serif,CMU Serif_MSFontService,sans-serif" font-weight="500" font-size="82" transform="matrix(1 0 0 1 1745.06 2298)">0110110110111010010100010010110000000011101010001001010011110010</text><text font-family="CMU Serif,CMU Serif_MSFontService,sans-serif" font-weight="500" font-size="73" transform="matrix(1 0 0 1 120.295 1561)">1 zufälliger Wert aus Spieler</text><text font-family="CMU Serif,CMU Serif_MSFontService,sans-serif" font-weight="500" font-size="73" transform="matrix(1 0 0 1 1032.38 1561)">-</text><text font-family="CMU Serif,CMU Serif_MSFontService,sans-serif" font-weight="500" font-size="73" transform="matrix(1 0 0 1 1057.01 1561)">1</text><text font-family="CMU Serif,CMU Serif_MSFontService,sans-serif" font-weight="500" font-size="73" transform="matrix(1 0 0 1 1093.11 1561)">-</text><text font-family="CMU Serif,CMU Serif_MSFontService,sans-serif" font-weight="500" font-size="73" transform="matrix(1 0 0 1 1117.74 1561)">Position[54]</text><text font-family="CMU Serif,CMU Serif_MSFontService,sans-serif" font-weight="500" font-size="73" transform="matrix(1 0 0 1 1493.58 1561)">-</text><text font-family="CMU Serif,CMU Serif_MSFontService,sans-serif" font-weight="500" font-size="73" transform="matrix(1 0 0 1 1518.21 1561)">Array</text><text font-family="CMU Serif,CMU Serif_MSFontService,sans-serif" font-weight="500" font-size="73" transform="matrix(1 0 0 1 119.722 1662)">1 zufälliger Wert aus Spieler</text><text font-family="CMU Serif,CMU Serif_MSFontService,sans-serif" font-weight="500" font-size="73" transform="matrix(1 0 0 1 1031.81 1662)">-</text><text font-family="CMU Serif,CMU Serif_MSFontService,sans-serif" font-weight="500" font-size="73" transform="matrix(1 0 0 1 1056.44 1662)">2</text><text font-family="CMU Serif,CMU Serif_MSFontService,sans-serif" font-weight="500" font-size="73" transform="matrix(1 0 0 1 1093.11 1662)">-</text><text font-family="CMU Serif,CMU Serif_MSFontService,sans-serif" font-weight="500" font-size="73" transform="matrix(1 0 0 1 1117.74 1662)">Position[54]</text><text font-family="CMU Serif,CMU Serif_MSFontService,sans-serif" font-weight="500" font-size="73" transform="matrix(1 0 0 1 1493.58 1662)">-</text><text font-family="CMU Serif,CMU Serif_MSFontService,sans-serif" font-weight="500" font-size="73" transform="matrix(1 0 0 1 1518.21 1662)">Array</text><text font-family="CMU Serif,CMU Serif_MSFontService,sans-serif" font-weight="500" font-size="73" transform="matrix(1 0 0 1 -48.1254 1761)">1 zufälliger Wert aus Spieler</text><text font-family="CMU Serif,CMU Serif_MSFontService,sans-serif" font-weight="500" font-size="73" transform="matrix(1 0 0 1 863.958 1761)">-</text><text font-family="CMU Serif,CMU Serif_MSFontService,sans-serif" font-weight="500" font-size="73" transform="matrix(1 0 0 1 888.593 1761)">1</text><text font-family="CMU Serif,CMU Serif_MSFontService,sans-serif" font-weight="500" font-size="73" transform="matrix(1 0 0 1 924.687 1761)">-</text><text font-family="CMU Serif,CMU Serif_MSFontService,sans-serif" font-weight="500" font-size="73" transform="matrix(1 0 0 1 949.323 1761)">Knopfvorrat[192]</text><text font-family="CMU Serif,CMU Serif_MSFontService,sans-serif" font-weight="500" font-size="73" transform="matrix(1 0 0 1 1495.31 1761)">-</text><text font-family="CMU Serif,CMU Serif_MSFontService,sans-serif" font-weight="500" font-size="73" transform="matrix(1 0 0 1 1519.95 1761)">Array</text><text font-family="CMU Serif,CMU Serif_MSFontService,sans-serif" font-weight="500" font-size="73" transform="matrix(1 0 0 1 -48.6983 1861)">1 zufälliger Wert aus Spieler</text><text font-family="CMU Serif,CMU Serif_MSFontService,sans-serif" font-weight="500" font-size="73" transform="matrix(1 0 0 1 863.385 1861)">-</text><text font-family="CMU Serif,CMU Serif_MSFontService,sans-serif" font-weight="500" font-size="73" transform="matrix(1 0 0 1 888.02 1861)">2</text><text font-family="CMU Serif,CMU Serif_MSFontService,sans-serif" font-weight="500" font-size="73" transform="matrix(1 0 0 1 924.687 1861)">-</text><text font-family="CMU Serif,CMU Serif_MSFontService,sans-serif" font-weight="500" font-size="73" transform="matrix(1 0 0 1 949.323 1861)">Knopfvorrat[192]</text><text font-family="CMU Serif,CMU Serif_MSFontService,sans-serif" font-weight="500" font-size="73" transform="matrix(1 0 0 1 1495.31 1861)">-</text><text font-family="CMU Serif,CMU Serif_MSFontService,sans-serif" font-weight="500" font-size="73" transform="matrix(1 0 0 1 1519.95 1861)">Array</text><text font-family="CMU Serif,CMU Serif_MSFontService,sans-serif" font-weight="500" font-size="73" transform="matrix(1 0 0 1 -176.459 1961)">1 zufälliger Wert aus Spieler</text><text font-family="CMU Serif,CMU Serif_MSFontService,sans-serif" font-weight="500" font-size="73" transform="matrix(1 0 0 1 735.624 1961)">-</text><text font-family="CMU Serif,CMU Serif_MSFontService,sans-serif" font-weight="500" font-size="73" transform="matrix(1 0 0 1 760.26 1961)">1</text><text font-family="CMU Serif,CMU Serif_MSFontService,sans-serif" font-weight="500" font-size="73" transform="matrix(1 0 0 1 796.353 1961)">-</text><text font-family="CMU Serif,CMU Serif_MSFontService,sans-serif" font-weight="500" font-size="73" transform="matrix(1 0 0 1 820.989 1961)">Knopfeinkommen[30]</text><text font-family="CMU Serif,CMU Serif_MSFontService,sans-serif" font-weight="500" font-size="73" transform="matrix(1 0 0 1 1496.46 1961)">-</text><text font-family="CMU Serif,CMU Serif_MSFontService,sans-serif" font-weight="500" font-size="73" transform="matrix(1 0 0 1 1521.09 1961)">Array</text><text font-family="CMU Serif,CMU Serif_MSFontService,sans-serif" font-weight="500" font-size="73" transform="matrix(1 0 0 1 -177.031 2061)">1 zufälliger Wert aus Spieler</text><text font-family="CMU Serif,CMU Serif_MSFontService,sans-serif" font-weight="500" font-size="73" transform="matrix(1 0 0 1 735.052 2061)">-</text><text font-family="CMU Serif,CMU Serif_MSFontService,sans-serif" font-weight="500" font-size="73" transform="matrix(1 0 0 1 759.688 2061)">2</text><text font-family="CMU Serif,CMU Serif_MSFontService,sans-serif" font-weight="500" font-size="73" transform="matrix(1 0 0 1 796.354 2061)">-</text><text font-family="CMU Serif,CMU Serif_MSFontService,sans-serif" font-weight="500" font-size="73" transform="matrix(1 0 0 1 820.99 2061)">Knopfeinkommen[30]</text><text font-family="CMU Serif,CMU Serif_MSFontService,sans-serif" font-weight="500" font-size="73" transform="matrix(1 0 0 1 1496.46 2061)">-</text><text font-family="CMU Serif,CMU Serif_MSFontService,sans-serif" font-weight="500" font-size="73" transform="matrix(1 0 0 1 1521.09 2061)">Array</text></g></svg>